<?xml version="1.0" encoding="UTF-8" standalone="no"?><!DOCTYPE svg PUBLIC "-//W3C//DTD SVG 1.1//EN" "http://www.w3.org/Graphics/SVG/1.1/DTD/svg11.dtd"><svg width="100%" height="100%" viewBox="0 0 127 98" version="1.1" xmlns="http://www.w3.org/2000/svg" xmlns:xlink="http://www.w3.org/1999/xlink" xml:space="preserve" xmlns:serif="http://www.serif.com/" style="fill-rule:evenodd;clip-rule:evenodd;stroke-linecap:round;stroke-linejoin:round;stroke-miterlimit:1.5;"><path d="M124.204,11.374c0,-5.458 -4.431,-9.888 -9.889,-9.888l-101.91,0c-5.458,0 -9.889,4.43 -9.889,9.888l0,75.172c0,5.458 4.431,9.888 9.889,9.888l101.91,0c5.458,0 9.889,-4.43 9.889,-9.888l0,-75.172Z" style="fill:#e5f6e3;stroke:#000;stroke-width:1px;"/><path id="svg_4" d="M99.861,32.28c-9.212,0 -16.68,7.468 -16.68,16.68c0,9.212 7.468,16.68 16.68,16.68c9.213,0 16.68,-7.468 16.68,-16.68c0,-9.212 -7.467,-16.68 -16.68,-16.68Zm3.625,25.022c-0.091,0.074 -0.21,0.149 -0.121,0.238c0.09,0.089 -0.103,0.15 -0.103,0.195c0,0.045 0.119,0.282 0.06,0.386c-0.06,0.105 -0.105,0.255 -0.15,0.345c-0.044,0.088 -0.15,0.178 -0.119,0.312c0.029,0.133 -0.119,0.089 -0.119,0.223c0,0.133 0.133,0.074 0.103,0.239c-0.029,0.165 -0.103,0.21 -0.103,0.327c0,0.119 0.073,0.283 0.073,0.328c0,0.045 -0.073,0.195 -0.178,0.312c-0.105,0.119 -0.178,0.195 -0.165,0.267c0.016,0.075 0.119,0.166 0.104,0.212c-0.014,0.042 -0.148,0.192 -0.133,0.297c0.016,0.103 0.148,0.061 0.178,0.133c0.03,0.075 -0.178,0.135 -0.089,0.21c0.089,0.073 0.21,0.058 0.179,0.239c-0.022,0.128 0.073,0.187 0.144,0.227c-1.022,0.254 -2.086,0.404 -3.187,0.404c-7.299,0 -13.476,-5.937 -13.236,-13.236c0.24,-7.299 0.64,-4.608 1.743,-6.538c0.09,-0.048 0.157,-0.079 0.196,-0.071c0.074,0.015 0.09,0.119 0.21,0.149c0.119,0.03 0.224,-0.09 0.298,-0.134c0.074,-0.045 0.133,-0.224 0.059,-0.209c-0.075,0.015 -0.269,0 -0.269,0c0,0 0.21,-0.12 0.21,-0.194c0,-0.075 0.029,-0.194 0.148,-0.239c0.118,-0.046 0.118,-0.016 0.044,0.163c-0.075,0.179 0.15,0.104 0.239,0.03c0.088,-0.075 0.149,-0.015 0.312,-0.12c0.164,-0.104 0.164,-0.164 0.253,-0.164c0.09,0 0.254,0.164 0.344,0.105c0.088,-0.06 0.343,0.074 0.492,0.074c0.148,0 0.625,0.194 0.716,0.194c0.089,0 0.358,0.104 0.373,0.298c0.015,0.194 0.103,0.179 0.193,0.179c0.089,0 0.298,0.074 0.298,0.149c0,0.074 -0.06,0.373 0.09,0.447c0.148,0.074 0.283,0.194 0.343,0.165c0.06,-0.03 0,-0.268 -0.074,-0.299c-0.074,-0.03 -0.031,-0.134 -0.059,-0.194c-0.03,-0.058 0.089,-0.058 0.134,0.045c0.045,0.104 0.164,0.298 0.239,0.298c0.073,0 0.238,0.179 0.192,0.284c-0.044,0.104 0.045,0.253 0.18,0.253c0.133,0 0.298,0.209 0.358,0.224c0.059,0.015 0.134,0.09 0.134,0.135c0,0.045 0.074,0.298 0.074,0.402c0,0.104 -0.045,0.521 -0.06,0.685c-0.015,0.165 0.119,0.448 0.268,0.597c0.148,0.149 0.283,0.433 0.372,0.493c0.091,0.059 0.149,0.223 0.284,0.208c0.134,-0.014 0.223,0.09 0.343,0.299c0.119,0.209 0.238,0.551 0.328,0.581c0.089,0.029 0.239,0.134 0.163,0.208c-0.074,0.074 -0.193,0.239 -0.059,0.239c0.135,0 0.179,-0.074 0.284,0.061c0.103,0.133 0.239,0.208 0.222,0.298c-0.014,0.089 0.12,0.119 0.179,0.134c0.06,0.014 0.194,0.283 0.329,0.164c0.134,-0.12 -0.178,-0.298 -0.269,-0.375c-0.089,-0.073 0,-0.237 -0.209,-0.401c-0.209,-0.164 -0.179,-0.284 -0.328,-0.403c-0.149,-0.119 -0.267,-0.224 -0.119,-0.328c0.149,-0.105 0.164,0.104 0.223,0.238c0.06,0.134 0.372,0.403 0.507,0.522c0.134,0.119 0.374,0.537 0.447,0.537c0.074,0 0.284,0.238 0.284,0.238c0,0 0.118,0.193 0.073,0.253c-0.045,0.059 0.061,0.283 0.165,0.343c0.104,0.06 0.523,0.252 0.582,0.283c0.06,0.031 0.178,0.254 0.343,0.254c0.163,0 0.284,0.016 0.329,0.061c0.044,0.043 0.177,0.223 0.268,0.119c0.09,-0.105 0.103,-0.15 0.239,-0.15c0.134,0 0.193,0.104 0.267,0.179c0.075,0.075 0.284,0.27 0.388,0.255c0.105,-0.015 0.239,0.119 0.313,0.073c0.075,-0.046 0.194,0.029 0.253,0.06c0.062,0.03 0.269,0.135 0.255,0.312c-0.015,0.18 0.118,0.224 0.209,0.269c0.089,0.044 0.208,0.149 0.284,0.223c0.074,0.073 0.237,0.089 0.283,0.133c0.044,0.045 0.074,0.135 0.208,0.06c0.134,-0.073 0.106,-0.208 0.106,-0.208c0,0 0.148,-0.029 0.223,0.03c0.073,0.058 0.119,0.253 0.165,0.283c0.044,0.029 0.132,0.253 0.072,0.415c-0.058,0.166 -0.043,0.328 -0.104,0.328c-0.06,0 -0.133,0.195 -0.224,0.24c-0.087,0.045 -0.327,0.254 -0.312,0.328c0.015,0.073 0.15,0.296 0.119,0.402c-0.028,0.104 -0.222,0.224 -0.177,0.388c0.044,0.165 0.359,0.21 0.371,0.358c0.016,0.15 0.24,0.479 0.27,0.627c0.029,0.149 0.282,0.312 0.282,0.52c0,0.211 0.358,0.344 0.433,0.358c0.072,0.014 0.209,0.15 0.312,0.195c0.103,0.044 0.194,0.133 0.267,0.253c0.074,0.121 0.061,0.3 0.061,0.343c0,0.045 -0.045,0.505 -0.089,0.774c-0.046,0.27 0.057,0.479 -0.031,0.554Zm-9.631,-13.865c0.044,0.015 0.134,0.105 0.179,0.105c0.046,0 0.268,0.179 0.328,0.239c0.061,0.059 0.061,0.223 -0.015,0.238c-0.076,0.015 -0.119,-0.164 -0.134,-0.238c-0.015,-0.075 -0.164,-0.075 -0.239,-0.12c-0.075,-0.044 -0.241,-0.265 -0.119,-0.224Zm19.216,5.994c-0.165,0.208 -0.149,0.312 -0.224,0.328c-0.073,0.015 0.075,0.074 0.103,0.222c0.026,0.129 -0.074,0.257 0.073,0.376c-0.558,5.301 -4.258,9.679 -9.2,11.232c-0.008,-0.013 -0.022,-0.029 -0.024,-0.039c-0.031,-0.09 -0.031,-0.268 0.073,-0.327c0.105,-0.061 0.359,-0.268 0.417,-0.312c0.06,-0.046 0.149,-0.254 0.105,-0.284c-0.044,-0.03 -0.267,0 -0.299,-0.045c-0.03,-0.044 -0.03,-0.105 0.119,-0.209c0.15,-0.104 0.224,-0.254 0.284,-0.298c0.06,-0.045 0.178,-0.134 0.224,-0.24c0.043,-0.103 -0.047,-0.045 -0.136,-0.045c-0.088,0 -0.134,-0.163 -0.134,-0.237c0,-0.075 0.224,0.03 0.389,0.06c0.164,0.027 0.088,-0.075 0.074,-0.163c-0.015,-0.09 0.029,-0.24 0.12,-0.196c0.087,0.045 0.55,-0.014 0.609,-0.029c0.06,-0.015 0.223,-0.283 0.283,-0.358c0.061,-0.075 0.073,-0.149 0,-0.193c-0.075,-0.046 -0.164,-0.211 -0.193,-0.254c-0.03,-0.047 -0.045,-0.314 -0.015,-0.39c0.029,-0.072 0,0.433 0.208,0.493c0.21,0.06 0.328,0.09 0.522,-0.089c0.194,-0.178 0.342,-0.299 0.358,-0.417c0.015,-0.119 0.06,-0.24 0.134,-0.282c0.075,-0.045 0.12,0.118 0.209,-0.075c0.09,-0.195 0.179,-0.18 0.269,-0.343c0.088,-0.165 -0.149,-0.373 0.027,-0.493c0.18,-0.118 0.494,-0.268 0.494,-0.268c0,0 0.089,-0.044 0.268,-0.089c0.178,-0.044 0.372,-0.016 0.432,-0.103c0.06,-0.091 0.119,-0.284 0.209,-0.388c0.09,-0.106 0.194,-0.269 0.149,-0.344c-0.045,-0.074 0.119,-0.404 0.104,-0.492c-0.015,-0.089 -0.149,-0.299 0.075,-0.477c0.224,-0.178 0.461,-0.449 0.477,-0.521c0.014,-0.075 0.194,-0.388 0.177,-0.539c-0.014,-0.148 -0.177,-0.327 -0.281,-0.373c-0.106,-0.042 -0.328,-0.057 -0.418,-0.176c-0.089,-0.12 -0.343,-0.239 -0.432,-0.209c-0.089,0.03 -0.239,0.058 -0.359,-0.017c-0.119,-0.073 -0.312,-0.165 -0.386,-0.223c-0.076,-0.059 -0.269,-0.103 -0.358,-0.103c-0.09,0 -0.075,-0.061 -0.209,0.118c-0.135,0.18 0,0.24 -0.239,0.209c-0.24,-0.028 0.029,-0.044 0.165,-0.223c0.132,-0.178 -0.016,-0.283 -0.165,-0.237c-0.149,0.044 -0.045,0.134 -0.283,0.179c-0.238,0.043 -0.238,-0.106 -0.089,-0.135c0.149,-0.03 0.417,-0.164 0.417,-0.222c0,-0.061 -0.03,-0.225 -0.149,-0.225c-0.12,0 -0.09,-0.148 -0.268,-0.341c-0.179,-0.195 -0.403,-0.315 -0.583,-0.286c-0.177,0.03 -0.312,0.075 -0.401,-0.087c-0.09,-0.165 -0.194,-0.195 -0.255,-0.284c-0.059,-0.089 -0.209,0 -0.254,-0.044l-0.045,-0.045c0,0 -0.194,0.045 -0.088,-0.09c0.103,-0.134 0.148,-0.388 0.103,-0.373c-0.043,0.015 -0.119,0.225 -0.193,0.21c-0.073,-0.015 -0.016,-0.046 -0.165,-0.134c-0.149,-0.089 -0.387,-0.015 -0.387,0.06c0,0.074 -0.074,0.134 -0.074,0.134c0,0 -0.045,-0.044 -0.09,-0.134c-0.044,-0.09 -0.253,-0.105 -0.358,-0.015c-0.103,0.089 -0.163,-0.225 -0.237,-0.225c-0.075,0 -0.223,0.075 -0.299,0.211c-0.073,0.133 -0.043,0.327 -0.105,0.312c-0.058,-0.015 -0.073,-0.267 -0.058,-0.358c0.014,-0.09 0.178,-0.239 0.058,-0.268c-0.119,-0.03 -0.298,0.149 -0.371,0.164c-0.075,0.015 -0.224,0.119 -0.313,0.24c-0.089,0.118 -0.133,0.192 -0.224,0.237c-0.088,0.045 -0.222,0 -0.192,-0.045c0.029,-0.044 -0.255,-0.207 -0.299,-0.149c-0.046,0.06 -0.178,0.105 -0.312,0.165c-0.135,0.06 -0.255,-0.074 -0.284,-0.134c-0.029,-0.059 -0.091,-0.073 -0.104,-0.268c-0.015,-0.193 0.031,-0.403 0.074,-0.521c0.044,-0.12 -0.224,-0.358 -0.328,-0.345c-0.104,0.018 -0.209,0.121 -0.312,0.105c-0.106,-0.014 -0.06,-0.044 -0.224,-0.044c-0.164,0 -0.03,-0.029 0,-0.164c0.029,-0.133 -0.06,-0.313 0.106,-0.433c0.163,-0.119 0.104,-0.402 0,-0.416c-0.106,-0.016 -0.3,0.045 -0.433,0.03c-0.133,-0.016 -0.239,0.104 -0.194,0.237c0.045,0.134 -0.075,0.224 -0.119,0.21c-0.045,-0.015 -0.104,-0.089 -0.269,0.03c-0.163,0.118 -0.223,0.073 -0.387,-0.06c-0.164,-0.135 -0.343,-0.268 -0.373,-0.477c-0.029,-0.209 -0.046,-0.418 0.015,-0.537c0.059,-0.12 0.059,-0.327 -0.03,-0.358c-0.089,-0.029 0.104,-0.178 0.208,-0.208c0.106,-0.03 0.269,-0.164 0.299,-0.224c0.029,-0.059 0.179,-0.046 0.342,-0.046c0.164,0 0.194,0 0.358,0.09c0.164,0.089 0.194,-0.045 0.194,-0.09c0,-0.044 0.059,-0.134 0.238,-0.119c0.179,0.015 0.432,-0.06 0.478,-0.015c0.046,0.045 0.133,0.224 0.222,0.164c0.091,-0.058 0.12,-0.164 0.151,0.016c0.028,0.178 0.103,0.448 0.238,0.493c0.134,0.044 0.06,0.222 0.193,0.237c0.132,0.015 0.195,-0.282 0.151,-0.387c-0.046,-0.103 -0.136,-0.416 -0.21,-0.491c-0.074,-0.074 -0.074,-0.268 0.073,-0.328c0.149,-0.06 0.507,-0.358 0.611,-0.446c0.105,-0.091 0.387,-0.166 0.299,-0.285c-0.089,-0.119 -0.119,-0.193 -0.119,-0.284c0,-0.09 0.089,-0.059 0.134,0c0.045,0.06 0.223,-0.089 0.178,-0.164c-0.044,-0.073 -0.03,-0.178 0.074,-0.164c0.105,0.015 0.134,-0.074 0.09,-0.134c-0.045,-0.06 0.104,-0.134 0.209,-0.104c0.105,0.029 0.373,-0.015 0.418,-0.075c0.043,-0.06 -0.09,-0.119 -0.09,-0.239c0,-0.119 0.178,-0.224 0.284,-0.239c0.104,-0.014 0.237,0 0.253,-0.044c0.014,-0.045 0.164,-0.164 0.178,-0.06c0.016,0.104 0,0.284 0.119,0.284c0.12,0 0.267,-0.135 0.313,-0.149c0.043,-0.014 0.328,-0.074 0.388,-0.089c0.059,-0.015 0.416,-0.045 0.373,-0.149c-0.045,-0.104 -0.09,-0.208 -0.136,-0.253c-0.045,-0.044 -0.088,0.015 -0.149,0.09c-0.059,0.074 -0.164,0.074 -0.193,0.015c-0.03,-0.059 0.014,-0.238 -0.089,-0.179c-0.106,0.059 -0.12,0.119 -0.181,0.089c-0.059,-0.03 -0.118,-0.134 -0.118,-0.134c0,0 0.148,-0.074 0.044,-0.209c-0.103,-0.134 -0.254,-0.104 -0.402,-0.029c-0.149,0.074 -0.135,0.059 -0.313,0.104c-0.178,0.044 -0.269,0.089 -0.269,0.089c0,0 0.24,-0.148 0.343,-0.239c0.105,-0.089 0.24,-0.134 0.329,-0.223c0.089,-0.09 0.327,0.044 0.327,0.044c0,0 0.12,-0.119 0.12,-0.044c0,0.074 -0.031,0.268 0.059,0.268c0.09,0 0.343,-0.119 0.241,-0.15c-0.107,-0.03 0.148,0 0.251,-0.075c0.106,-0.074 0.223,-0.074 0.284,-0.103c0.059,-0.03 0.105,-0.164 0.208,-0.164c0.106,0 0.15,0.134 0,0.224c-0.149,0.089 -0.164,0.313 -0.238,0.373c-0.074,0.059 -0.03,0.134 0.089,0.119c0.12,-0.015 0.223,0.015 0.328,-0.015c0.106,-0.03 0.165,0.03 0.193,0.075c0.03,0.044 0.12,-0.045 0.12,-0.045c0,0 0.194,-0.045 0.253,0.03c0.061,0.073 0.106,-0.045 0.061,-0.12c-0.045,-0.073 -0.105,-0.148 -0.149,-0.238c-0.045,-0.09 -0.105,-0.12 -0.223,-0.09c-0.119,0.03 -0.149,-0.03 -0.224,-0.073c-0.074,-0.046 -0.135,0.059 -0.074,-0.046c0.061,-0.103 0.089,-0.134 0.134,-0.224c0.045,-0.089 0.24,-0.254 0.045,-0.297c-0.194,-0.046 -0.255,-0.075 -0.284,-0.164c-0.029,-0.09 -0.253,-0.254 -0.312,-0.254c-0.061,0 -0.267,0 -0.283,-0.075c-0.015,-0.074 -0.164,-0.238 -0.239,-0.313c-0.073,-0.074 -0.358,-0.403 -0.403,-0.433c-0.045,-0.029 -0.104,-0.014 -0.238,0.165c-0.134,0.18 -0.253,0.21 -0.359,0.165c-0.104,-0.045 -0.119,-0.03 -0.221,-0.149c-0.107,-0.12 0.103,-0.135 0.059,-0.209c-0.046,-0.074 -0.284,-0.105 -0.433,-0.12c-0.149,-0.014 -0.254,-0.179 -0.478,-0.194c-0.222,-0.014 -0.491,0.03 -0.565,0.03c-0.074,0 -0.074,0.105 -0.104,0.269c-0.031,0.164 0.104,0.209 -0.031,0.239c-0.133,0.029 -0.194,0.044 -0.059,0.104c0.134,0.06 0.313,0.298 0.313,0.298c0,0 0,0.135 -0.106,0.209c-0.103,0.075 -0.208,0.149 -0.267,0.061c-0.061,-0.091 -0.224,-0.074 -0.178,0.015c0.044,0.09 0.133,0.134 0.133,0.224c0,0.088 0.135,0.312 0.045,0.387c-0.09,0.074 -0.193,0.016 -0.267,0.029c-0.075,0.014 -0.151,-0.119 -0.09,-0.149c0.059,-0.03 -0.016,-0.253 -0.016,-0.253c0,0 -0.178,0.253 -0.164,0.119c0.016,-0.134 -0.074,-0.149 -0.074,-0.254c0,-0.104 -0.09,-0.149 -0.222,-0.119c-0.136,0.03 -0.299,-0.046 -0.553,-0.091c-0.253,-0.044 -0.357,-0.073 -0.566,-0.179c-0.209,-0.104 -0.284,-0.03 -0.388,-0.015c-0.105,0.015 -0.06,-0.209 -0.194,-0.237c-0.133,-0.031 -0.208,0.028 -0.238,-0.165c-0.029,-0.193 0.045,-0.239 0.372,-0.448c0.328,-0.209 0.284,-0.298 0.537,-0.328c0.253,-0.03 0.373,0.03 0.373,-0.045c0,-0.075 0.06,-0.373 0.06,-0.224c0,0.149 0.301,0.159 0.165,0.263c-0.133,0.104 -0.059,0.119 0.046,0.119c0.105,0 0.297,-0.104 0.297,-0.104c0,0 0.239,-0.105 0.299,-0.015c0.061,0.089 0.061,0.179 0.165,0.179c0.105,0 0.327,-0.119 0.133,-0.224c-0.193,-0.104 -0.312,-0.089 -0.431,-0.209c-0.12,-0.119 -0.09,-0.074 -0.224,-0.044c-0.133,0.029 -0.133,-0.045 -0.179,-0.045c-0.046,0 -0.119,0.03 -0.149,-0.03c-0.029,-0.06 0.016,-0.075 0.166,-0.075c0.148,0 0.327,0.045 0.327,0.045c0,0 0.178,-0.06 0.223,-0.074c0.045,-0.015 0.283,-0.045 0.239,-0.178c-0.046,-0.135 -0.194,-0.135 -0.239,-0.179c-0.045,-0.045 0.089,-0.104 0.164,-0.135c0.075,-0.03 0.283,0 0.283,0c0,0 0.135,0.015 0.135,-0.044c0,-0.06 -0.032,-0.135 0.058,-0.09c0.091,0.045 0,0.179 0.134,0.149c0.134,-0.03 0.165,0 0.238,0.045c0.075,0.045 -0.015,0.224 -0.088,0.254c-0.075,0.028 -0.194,0.088 -0.03,0.103c0.165,0.016 0.282,0.016 0.282,0.016c0,0 0.106,-0.104 0.15,-0.194c0.044,-0.089 0.12,-0.03 0.178,0c0.06,0.029 0.284,0.075 0.075,0.134c-0.21,0.06 -0.254,0.135 -0.298,0.209c-0.044,0.075 -0.061,0.12 -0.254,0.075c-0.195,-0.045 -0.298,-0.03 -0.343,0.045c-0.045,0.073 -0.015,0.313 0.061,0.283c0.072,-0.03 0.148,-0.03 0.237,-0.06c0.09,-0.029 0.448,0.03 0.536,0.015c0.09,-0.015 0.24,0.149 0.285,0.12c0.045,-0.03 0.134,0.059 0.222,0.119c0.09,0.06 0.06,-0.134 0.223,-0.015c0.165,0.119 0.075,0.119 0.165,0.119c0.088,0 0.283,0.015 0.283,0.015c0,0 0.016,-0.148 0.165,-0.119c0.149,0.03 0.281,0.194 0.266,0.073c-0.014,-0.118 0.015,-0.207 -0.103,-0.297c-0.119,-0.089 -0.312,-0.149 -0.343,-0.194c-0.03,-0.045 -0.06,-0.104 -0.015,-0.134c0.045,-0.029 0.253,0.015 0.372,0.091c0.119,0.074 0.223,0.149 0.313,0.089c0.088,-0.06 0.195,-0.089 0.239,-0.134c0.043,-0.046 0.149,-0.179 0.149,-0.179c0,0 -0.449,-0.059 -0.506,-0.134c-0.061,-0.075 -0.27,-0.179 -0.33,-0.179c-0.059,0 -0.222,0.104 -0.282,-0.045c-0.06,-0.149 -0.06,-0.328 -0.12,-0.343c-0.058,-0.015 -0.686,-0.105 -0.774,-0.15c-0.089,-0.044 -0.448,-0.149 -0.582,-0.223c-0.134,-0.075 -0.328,-0.179 -0.446,-0.179c-0.12,0 -0.612,0.059 -0.701,0.044c-0.09,-0.015 -0.359,0.03 -0.463,0.045c-0.104,0.015 0.134,0.209 -0.088,0.254c-0.224,0.044 -0.194,0.074 -0.15,-0.149c0.044,-0.224 -0.15,-0.284 -0.343,-0.194c-0.194,0.089 -0.507,0.149 -0.432,0.253c0.074,0.105 -0.014,0.18 0.134,0.284c0.149,0.104 0.21,0.134 0.402,0.119c0.195,-0.015 0.389,0.029 0.389,0.029c0,0 0,0.18 -0.074,0.209c-0.074,0.029 -0.194,0.029 -0.225,0.119c-0.028,0.089 -0.178,0.134 -0.178,0.089c0,-0.044 0.075,-0.193 -0.029,-0.268c-0.104,-0.075 -0.135,-0.09 -0.254,-0.015c-0.119,0.075 -0.133,0.104 -0.194,-0.015c-0.06,-0.119 -0.239,-0.224 -0.239,-0.224c0,0 -0.119,-0.148 -0.209,-0.222c-0.088,-0.075 -0.252,-0.06 -0.268,0.015c-0.015,0.073 0.03,0.148 0.089,0.283c0.06,0.134 0.12,0.387 0.015,0.403c-0.104,0.015 -0.119,0.03 -0.224,0.06c-0.104,0.029 -0.149,-0.045 -0.149,-0.165c0,-0.119 -0.046,-0.223 -0.015,-0.268c0.03,-0.045 -0.119,0.031 -0.268,0c-0.149,-0.029 -0.268,0.06 -0.12,0.105c0.15,0.045 0.181,0.223 0.045,0.268c-0.134,0.045 -0.641,0 -0.805,0c-0.165,0 -0.402,0.045 -0.448,-0.045c-0.045,-0.089 0.135,-0.148 0.239,-0.148c0.104,0 0.416,0.014 0.536,-0.149c0.119,-0.164 -0.15,-0.194 -0.268,-0.194c-0.119,0 -0.21,-0.045 -0.343,-0.178c-0.135,-0.134 0.09,-0.224 0.06,-0.283c-0.03,-0.06 -0.179,-0.017 -0.312,-0.017c-0.135,0 -0.344,-0.103 -0.344,0.017c0,0.119 0.165,0.461 0.06,0.386c-0.104,-0.073 -0.089,-0.179 -0.164,-0.268c-0.075,-0.09 -0.193,-0.075 -0.343,-0.06c-0.148,0.015 -0.402,0.06 -0.476,0.045c-0.074,-0.015 -0.015,-0.015 -0.179,-0.09c-0.163,-0.074 -0.239,-0.059 -0.359,-0.134c-0.118,-0.077 -0.013,-0.106 -0.222,-0.12c-0.208,-0.015 -0.193,0.103 -0.402,0.074c-0.209,-0.03 -0.268,0.015 -0.477,0c-0.209,-0.015 -0.312,-0.03 -0.343,0.075c-0.029,0.104 -0.09,0.283 -0.179,0.283c-0.089,0 -0.194,0.105 0.089,0.12c0.284,0.014 0.121,0.148 0.373,0.134c0.254,-0.015 0.477,-0.015 0.537,-0.134c0.06,-0.12 0.105,-0.12 0.134,-0.075c0.029,0.045 0.253,0.312 0.253,0.312c0,0 0.15,0.119 0.21,0.149c0.058,0.03 -0.06,0.164 -0.179,0.09c-0.119,-0.075 -0.343,-0.059 -0.433,-0.133c-0.089,-0.075 -0.492,-0.075 -0.597,-0.06c-0.103,0.015 -0.283,-0.045 -0.343,-0.045c-0.058,0 -0.253,0.149 -0.253,0.149c0,0 -0.075,-0.12 -0.119,-0.18c-0.044,-0.059 -0.119,0.06 -0.179,0.075c-0.059,0.015 -0.238,-0.119 -0.417,-0.06c-0.179,0.06 -0.12,0.12 -0.373,0.105c-0.254,-0.015 -0.312,-0.06 -0.402,-0.045l-0.091,0.015c0,0 0.015,0.059 -0.088,0.119c-0.104,0.06 -0.18,0.134 -0.255,0.045c-0.073,-0.09 -0.118,-0.09 -0.163,-0.105c-0.046,-0.014 -0.135,-0.089 -0.328,-0.045c-0.194,0.045 -0.492,-0.059 -0.551,-0.059c-0.046,0 -0.359,-0.017 -0.563,-0.038c2.42,-2.63 5.88,-4.292 9.729,-4.292c2.443,0 4.725,0.676 6.691,1.834c-0.134,0.083 -0.366,0.069 -0.445,0.026c-0.09,-0.049 -0.181,-0.089 -0.545,-0.07c-0.364,0.021 -0.763,0.14 -0.683,0.26c0.083,0.119 -0.163,0.189 -0.226,0.129c-0.063,-0.059 -0.355,0.069 -0.336,0.19c0.018,0.119 -0.045,0.258 -0.201,0.228c-0.154,-0.031 -0.263,0.069 -0.272,0.168c-0.008,0.1 -0.355,0.168 -0.381,0.168c-0.028,0 -0.473,-0.009 -0.31,0.109c0.111,0.08 0.172,0.031 0.31,0.06c0.136,0.03 0.245,0.249 0.318,0.279c0.071,0.03 0.172,0 0.217,-0.06c0.045,-0.059 0.109,-0.268 0.109,-0.268c0,0 0,0.198 0.111,0.238c0.109,0.041 0.38,-0.029 0.453,-0.019c0.074,0.009 0.502,0.07 0.618,0.128c0.119,0.06 0.408,0.1 0.491,0.229c0.081,0.13 0.092,0.577 0.136,0.626c0.046,0.05 0.2,-0.159 0.236,-0.208c0.035,-0.051 0.227,-0.021 0.291,0.048c0.064,0.07 0.209,0.239 0.201,0.309c-0.011,0.071 -0.038,0.179 -0.092,0.14c-0.055,-0.039 -0.146,-0.029 -0.11,-0.11c0.037,-0.079 0.055,-0.249 -0.017,-0.249c-0.074,0 -0.137,0 -0.137,0c0,0 -0.137,-0.04 -0.228,0.109c-0.091,0.15 -0.017,0.299 0.046,0.299c0.063,0 0.211,0 0.211,0.039c0,0.04 -0.156,0.159 -0.147,0.229c0.01,0.07 0.126,0.308 0.165,0.358c0.036,0.05 0.226,0.099 0.28,0.111c0.057,0.009 -0.127,0.019 -0.08,0.088c0.046,0.07 0.117,0.239 0.217,0.279c0.1,0.04 0.382,0.218 0.417,0.298c0.036,0.079 0.254,-0.059 0.3,-0.07c0.046,-0.009 0.037,0.209 0.164,0.22c0.127,0.009 0.172,-0.021 0.282,-0.111c0.109,-0.089 0.082,-0.209 0.09,-0.298c0.011,-0.09 0,-0.158 0.12,-0.13c0.119,0.03 0.181,-0.02 0.172,-0.119c-0.009,-0.1 -0.109,-0.219 0.08,-0.249c0.192,-0.03 0.292,-0.159 0.41,-0.159c0.118,0 0.446,0.05 0.481,0c0.036,-0.049 0.191,-0.278 0.291,-0.288c0.077,-0.008 0.257,-0.024 0.442,-0.048c1.816,2.164 2.939,4.917 3.068,7.925c-0.136,0.182 -0.014,0.35 0.024,0.468c0.001,0.034 0.005,0.067 0.005,0.101c0,0.156 -0.018,0.309 -0.024,0.464c-0.001,0.002 -0.001,0.004 -0.003,0.007Zm-11.151,-4.965c-0.073,0.015 -0.194,-0.06 -0.194,-0.164c0,-0.105 -0.104,0.194 -0.046,0.283c0.061,0.09 -0.119,0.194 -0.177,0.194c-0.059,0 -0.105,-0.133 -0.09,-0.267c0.016,-0.135 -0.088,-0.254 -0.254,-0.239c-0.164,0.016 -0.238,0.149 -0.297,0.194c-0.061,0.045 -0.061,0.297 -0.046,0.358c0.015,0.061 0.015,0.27 -0.133,0.254c-0.135,-0.015 -0.105,-0.268 -0.091,-0.358c0.017,-0.09 -0.044,-0.314 0.017,-0.432c0.06,-0.119 0.237,-0.164 0.358,-0.179c0.12,-0.015 0.371,0.075 0.416,0.06c0.046,-0.016 0.255,-0.016 0.358,0c0.105,0.012 0.253,0.281 0.179,0.296Zm0.268,0.045c0.046,0.029 0.357,-0.045 0.417,0.029c0.059,0.075 -0.062,0.09 -0.21,0.15c-0.148,0.059 -0.194,0.044 -0.253,0.119c-0.06,0.075 -0.254,0.103 -0.343,0.193c-0.09,0.09 -0.249,0.143 -0.283,0.074c-0.046,-0.089 0.015,-0.044 0.029,-0.089c0.015,-0.045 0.281,-0.148 0.281,-0.148c0,0 0.317,-0.358 0.362,-0.328Zm-1.193,-0.523c-0.043,0.015 -0.209,-0.029 -0.344,-0.029c-0.133,0 -0.104,-0.09 -0.164,-0.074c-0.059,0.015 -0.193,0.045 -0.284,0.09c-0.089,0.044 -0.238,0.034 -0.238,-0.046c0,-0.12 0.059,-0.09 0.253,-0.164c0.194,-0.075 0.404,-0.284 0.493,-0.194c0.089,0.089 0.253,0.194 0.358,0.208c0.105,0.017 -0.03,0.194 -0.074,0.209Zm-1.525,-4.626c-0.091,0.03 -0.398,0.16 -0.368,0.229c0.011,0.026 0.089,0.079 0.218,0.059c0.129,-0.02 0.316,-0.04 0.407,-0.049c0.09,-0.01 0.109,-0.16 0.01,-0.169c-0.099,-0.01 -0.179,-0.1 -0.267,-0.07Zm-1.103,0.12c-0.07,0.029 -0.279,-0.05 -0.388,0.02c-0.07,0.044 -0.03,0.188 0.081,0.198c0.109,0.01 0.297,-0.069 0.316,-0.01c0.021,0.06 0.09,0.329 0.269,0.239c0.179,-0.089 0.169,-0.169 0.218,-0.179c0.049,-0.01 -0.009,-0.228 -0.09,-0.279c-0.079,-0.049 -0.337,-0.019 -0.406,0.011Zm-0.359,-0.845c0.019,0.05 -0.009,0.089 0.13,0.109c0.139,0.021 0.198,0.04 0.279,0.04c0.079,0 0.048,-0.13 -0.021,-0.218c-0.07,-0.09 -0.049,-0.079 -0.229,-0.13c-0.179,-0.049 -0.358,-0.049 -0.477,-0.04c-0.119,0.01 -0.249,-0.019 -0.279,0.119c-0.015,0.072 0.081,0.129 0.2,0.129c0.119,0 0.377,-0.058 0.397,-0.009Zm0.259,0.546c0.05,0.109 0.05,0.059 0.19,0.07c0.137,0.01 0.246,-0.139 0.257,-0.188c0.01,-0.051 -0.07,-0.149 -0.258,-0.13c-0.19,0.02 -0.766,-0.03 -0.845,0.039c-0.076,0.067 0,0.268 -0.03,0.288c-0.03,0.02 0.01,0.109 0.088,0.09c0.08,-0.02 0.12,-0.209 0.181,-0.209c0.059,0.001 0.368,-0.069 0.417,0.04Zm-1.869,-0.407c0.059,0.049 0.21,0.009 0.198,-0.04c-0.009,-0.05 0.061,-0.249 -0.058,-0.259c-0.12,-0.009 -0.287,0.111 -0.467,0.17c-0.116,0.038 -0.09,0.149 -0.011,0.149c0.08,0 0.279,-0.07 0.338,-0.02Zm0.847,0.179c-0.1,0.049 -0.131,0.079 -0.219,0.059c-0.09,-0.019 -0.09,-0.179 -0.249,-0.149c-0.159,0.03 -0.189,0.12 -0.238,0.16c-0.049,0.04 -0.16,0.07 -0.199,0.049c-0.039,-0.019 -0.268,-0.148 -0.268,-0.148c0,0 -0.478,-0.021 -0.497,-0.08c-0.02,-0.06 -0.099,-0.159 -0.318,-0.139c-0.219,0.019 -0.597,0.149 -0.656,0.149c-0.06,0 0.071,0.119 -0.011,0.119c-0.079,0 -0.178,-0.009 -0.207,0.08c-0.021,0.06 0.089,0.059 0.216,0.059c0.129,0 0.339,0 0.399,-0.03c0.059,-0.029 0.358,-0.099 0.347,-0.01c-0.01,0.091 0.12,0.228 0.189,0.209c0.07,-0.02 0.21,-0.149 0.279,-0.099c0.07,0.05 0.08,0.168 0.149,0.199c0.07,0.029 0.259,0.029 0.349,0c0.088,-0.031 0.337,-0.031 0.446,-0.01c0.109,0.02 0.428,0.079 0.458,0.02c0.03,-0.061 0.119,-0.07 0.128,-0.13c0.01,-0.059 0.059,-0.247 0.059,-0.247c0,0 -0.059,-0.111 -0.157,-0.061Zm5.032,10.279c-0.136,0.024 -0.104,0.289 0.06,0.241c0.164,-0.048 0.076,-0.266 -0.06,-0.241Zm1.297,-0.355c-0.119,-0.03 -0.254,0 -0.343,0.014c-0.09,0.015 -0.343,0.239 -0.343,0.239c0,0 0.164,0.03 0.267,0.03c0.106,0 0.165,0.059 0.254,0.103c0.089,0.046 0.253,-0.059 0.312,-0.059c0.061,0 0.135,0.179 0.15,-0.015c0.016,-0.194 -0.178,-0.283 -0.297,-0.312Zm-4.153,-9.666c-0.05,-0.119 -0.298,-0.16 -0.349,-0.04c-0.044,0.104 0.398,0.159 0.349,0.04Zm2.842,8.934c0.165,-0.029 0.074,-0.165 -0.06,-0.149c-0.136,0.015 -0.105,0.179 0.06,0.149Zm1.982,0.922c-0.136,0.025 -0.105,0.29 0.059,0.242c0.165,-0.048 0.076,-0.266 -0.059,-0.242Zm-1.805,-0.444c-0.103,0.015 -0.327,-0.103 -0.446,-0.209c-0.12,-0.104 -0.343,-0.104 -0.433,-0.104c-0.088,0 -0.447,0.104 -0.447,0.104c-0.015,0.149 0.134,0.104 0.313,0.104c0.179,0 0.492,-0.029 0.55,0.045c0.06,0.074 0.328,0.193 0.404,0.254c0.073,0.06 0.312,0.074 0.327,0.015c0.015,-0.06 -0.163,-0.224 -0.268,-0.209Zm-1.778,-9.521c-0.149,-0.01 -0.338,-0.01 -0.457,0c-0.12,0.009 -0.209,-0.079 -0.299,-0.13c-0.088,-0.049 -0.288,-0.209 -0.406,-0.228c-0.119,-0.02 -0.099,-0.02 -0.348,-0.079c-0.126,-0.031 -0.337,-0.07 -0.337,-0.099c0,-0.03 -0.06,0.139 0.049,0.189c0.109,0.05 0.288,0.139 0.417,0.189c0.131,0.049 0.377,0.059 0.458,0.159c0.079,0.099 0.347,0.179 0.347,0.179l0.318,0.03c0,0 0.219,-0.049 0.448,-0.03c0.228,0.02 0.566,0.049 0.756,0.04c0.187,-0.009 0.217,-0.07 0.239,-0.109c0.018,-0.04 -0.349,-0.119 -0.44,-0.109c-0.087,0.007 -0.596,0.007 -0.745,-0.002Zm0.556,2.286c-0.039,0.045 0.18,0.109 0.219,0.049c0.039,-0.058 -0.117,-0.158 -0.219,-0.049Zm0.668,0.208c0.099,-0.04 0.049,-0.16 -0.091,-0.12c-0.158,0.046 -0.01,0.16 0.091,0.12Z" style="fill:#87e878;fill-rule:nonzero;stroke:#000;stroke-width:0.6px;stroke-linecap:butt;stroke-linejoin:miter;stroke-miterlimit:4;"/><path id="svg_1" d="M20.943,57.469c-1.024,-0.104 -0.024,-1.703 -0.41,-2.444c-0.004,-1.091 -0.409,-2.165 -0.277,-3.25c0.805,-1.912 0.134,-4.001 -0.042,-5.971c-0.08,-0.435 -0.078,-1.552 -0.276,-0.559c-0.55,1.675 -0.013,3.745 -0.483,5.441c-0.786,0.944 -1.38,-0.554 -0.629,-1.128c0.876,-1.38 0.664,-3.238 0.694,-4.958c-0.038,-1.087 0.398,-2.453 1.689,-2.484c1.105,-0.084 2.151,0.443 3.265,0.378c3.25,0.05 6.533,0.078 9.742,-0.514c1.601,-0.369 3.196,0.283 4.8,0.018c0.902,0.098 1.379,-0.324 0.981,-1.115c0.672,-0.463 1.189,0.878 1.487,-0.317c1.081,-0.745 1.232,1.455 2.43,0.834c1.444,0.187 -0.628,1.479 0.582,2.126c0.731,0.564 1.851,1.962 0.396,2.365c-1.251,-0.088 -2.505,-0.006 -3.756,0.055c-0.579,0.967 -1.784,1.693 -1.652,2.96c-0.1,1.512 -1.16,3.003 -2.61,3.473c-0.619,-0.123 -0.89,0.077 -0.812,0.712c-0.32,0.829 -0.377,1.704 -0.339,2.586c-0.095,0.487 0.107,0.865 0.393,1.239c-0.337,0.584 -2.266,0.238 -1.535,-0.866c0.187,-1.448 -0.033,-2.902 -0.197,-4.341c-0.769,-0.547 -1.701,-0.347 -2.48,0.093c-1.717,0.629 -3.705,1.226 -5.466,0.417c-0.982,-0.274 -2.463,-0.478 -3.192,0.35c-0.329,1.249 -0.241,2.591 -0.521,3.859c-0.005,0.662 0.626,1.231 -0.442,1.046c-0.447,0.011 -0.894,0.025 -1.34,-0.005l0,0l0,0Zm0.911,-1.411c0.176,-0.593 -0.253,-2.101 -0.29,-0.695c-0.146,0.447 0.04,2.59 0.258,1.167c0.014,-0.157 0.024,-0.314 0.032,-0.472Z" style="fill:#ff8767;fill-rule:nonzero;stroke:#000;stroke-width:0.6px;stroke-linecap:butt;stroke-linejoin:miter;stroke-miterlimit:4;"/><path d="M13.286,85.355c97.672,-80.341 100.148,-81.208 100.148,-81.208" style="fill:none;stroke:#9d9994;stroke-width:1px;stroke-dasharray:1,3,3,0;"/></svg>