<?xml version="1.0" encoding="UTF-8" standalone="no"?><!DOCTYPE svg PUBLIC "-//W3C//DTD SVG 1.1//EN" "http://www.w3.org/Graphics/SVG/1.1/DTD/svg11.dtd"><svg width="100%" height="100%" viewBox="0 0 127 98" version="1.1" xmlns="http://www.w3.org/2000/svg" xmlns:xlink="http://www.w3.org/1999/xlink" xml:space="preserve" xmlns:serif="http://www.serif.com/" style="fill-rule:evenodd;clip-rule:evenodd;stroke-linecap:round;stroke-linejoin:round;stroke-miterlimit:1.5;"><path d="M124.204,11.3c0,-5.458 -4.431,-9.889 -9.889,-9.889l-101.91,0c-5.458,0 -9.889,4.431 -9.889,9.889l0,75.171c0,5.458 4.431,9.889 9.889,9.889l101.91,0c5.458,0 9.889,-4.431 9.889,-9.889l0,-75.171Z" style="fill:#e5f6e3;stroke:#000;stroke-width:1px;"/><path id="svg_5" d="M39.641,51.079l0,5.655l8.953,0l4.376,16.156l24.639,0l8.078,-19.388l-36.756,0l0,-2.423l-9.29,0l0,0Zm8.234,28.543c0,2.007 -1.627,3.634 -3.635,3.634c-2.007,0 -3.635,-1.627 -3.635,-3.634c0,-2.008 1.628,-3.635 3.635,-3.635c1.15,0 2.175,0.534 2.841,1.367c0.497,0.622 0.794,1.41 0.794,2.268Zm23.023,0c0,2.007 -1.627,3.634 -3.635,3.634c-2.007,0 -3.635,-1.627 -3.635,-3.634c0,-2.008 1.628,-3.635 3.635,-3.635c2.008,0 3.635,1.627 3.635,3.635Z" style="fill:#87e878;fill-rule:nonzero;stroke:#666c99;stroke-width:0.9px;stroke-linecap:butt;stroke-linejoin:miter;stroke-miterlimit:4;"/><path id="svg_1" d="M79.638,41.084c0.753,-2.467 1.785,-4.557 2.763,-5.598c1.049,-1.116 0.583,-1.6 -0.498,-0.519c-0.455,0.455 -0.585,0.125 -0.585,-1.486c0,-3.844 1.993,-6.222 6.787,-8.101c4.057,-1.59 7.047,-3.378 8.288,-4.954l1.01,-1.285l0,2.235c0,2.764 -0.857,6.939 -1.807,8.797c-1.006,1.971 -4.458,5.609 -6.151,6.485c-1.517,0.785 -4.758,1.016 -6.489,0.463c-0.863,-0.276 -1.137,-0.065 -1.584,1.217c-0.298,0.853 -0.541,2.067 -0.541,2.697c0,0.716 -0.287,1.146 -0.764,1.146c-0.567,0 -0.678,-0.283 -0.429,-1.097l0,0l0,0Z" style="fill:#87e878;fill-rule:nonzero;stroke:#6d6254;stroke-width:0.6px;stroke-linecap:butt;stroke-linejoin:miter;stroke-miterlimit:4;"/><path id="svg_11" serif:id="svg_1" d="M83.323,42.939c0.67,-2.194 1.587,-4.053 2.457,-4.979c0.932,-0.992 0.519,-1.423 -0.443,-0.461c-0.404,0.405 -0.52,0.111 -0.52,-1.322c0,-3.418 1.772,-5.533 6.035,-7.204c3.608,-1.414 6.268,-3.004 7.37,-4.406l0.899,-1.142l0,1.988c0,2.457 -0.763,6.17 -1.607,7.823c-0.895,1.753 -3.964,4.988 -5.47,5.767c-1.349,0.697 -4.231,0.903 -5.771,0.411c-0.767,-0.245 -1.011,-0.058 -1.409,1.083c-0.264,0.759 -0.48,1.838 -0.48,2.398c0,0.636 -0.256,1.019 -0.68,1.019c-0.504,0 -0.602,-0.252 -0.381,-0.975l0,0l0,0Z" style="fill:#87e878;fill-rule:nonzero;stroke:#6d6254;stroke-width:0.53px;stroke-linecap:butt;stroke-linejoin:miter;stroke-miterlimit:4;"/><path id="svg_12" serif:id="svg_1" d="M88.686,44.393c0.471,-1.544 1.117,-2.852 1.729,-3.504c0.656,-0.698 0.365,-1.001 -0.312,-0.324c-0.284,0.284 -0.366,0.078 -0.366,-0.93c0,-2.406 1.247,-3.894 4.248,-5.07c2.538,-0.995 4.41,-2.114 5.186,-3.1l0.632,-0.804l0,1.399c0,1.729 -0.537,4.342 -1.131,5.505c-0.63,1.233 -2.789,3.51 -3.849,4.058c-0.949,0.491 -2.977,0.635 -4.061,0.289c-0.54,-0.172 -0.711,-0.04 -0.991,0.762c-0.186,0.534 -0.339,1.294 -0.339,1.688c0,0.448 -0.179,0.717 -0.478,0.717c-0.354,0 -0.424,-0.177 -0.268,-0.686l0,0l0,0Z" style="fill:#87e878;fill-rule:nonzero;stroke:#6d6254;stroke-width:0.38px;stroke-linecap:butt;stroke-linejoin:miter;stroke-miterlimit:4;"/><path id="ellipse6" d="M66.303,53.724c-5.161,0 -9.408,4.247 -9.408,9.408c0,5.161 4.247,9.408 9.408,9.408c0,0 0,0 0,0c5.161,0 9.408,-4.247 9.408,-9.408c0,-5.161 -4.247,-9.408 -9.408,-9.408c0,0 0,0 0,0Zm1.26,3.383l0.013,0c0.553,0.01 0.73,0.521 0.73,0.521c0,0 0.472,0.93 0.031,2.068c-0.372,0.962 -0.449,1.04 -0.449,1.04c0,0 -0.12,0.174 0.261,0.166c0,0 2.326,-0.01 2.406,-0.01c0.172,0 0.719,0.156 0.688,0.853c-0.023,0.515 -0.343,0.695 -0.508,0.754c-0.021,0.008 -0.032,0.032 -0.023,0.053c0.003,0.009 0.01,0.016 0.018,0.021c0.168,0.098 0.512,0.344 0.504,0.722c-0.01,0.458 -0.194,0.626 -0.578,0.731c-0.021,0.005 -0.035,0.028 -0.028,0.049c0.002,0.011 0.01,0.02 0.018,0.025c0.146,0.083 0.395,0.284 0.38,0.692c-0.015,0.415 -0.316,0.561 -0.48,0.611c-0.021,0.007 -0.034,0.029 -0.027,0.051c0.002,0.008 0.008,0.017 0.016,0.022c0.104,0.071 0.258,0.233 0.251,0.564c-0.004,0.175 -0.063,0.303 -0.137,0.394c-0.117,0.144 -0.3,0.219 -0.485,0.22l-5.16,0.01c-0.001,-0.001 -0.281,0 -0.281,-0.374l0,-3.397c0.001,-0.837 0.236,-1.656 0.678,-2.366c0.269,-0.43 0.873,-1.12 1.212,-1.476c0.075,-0.08 0.348,-0.315 0.348,-0.444c0,-0.165 0.019,-0.432 0.025,-0.928c0.004,-0.315 0.261,-0.574 0.577,-0.572l0,0Zm-5.927,4.966l2.068,0c0.163,0 0.296,0.131 0.296,0.295l0,4.741c0,0.163 -0.131,0.296 -0.296,0.296l-2.068,0c-0.163,0 -0.296,-0.132 -0.296,-0.296l0,-4.742c0.001,-0.163 0.133,-0.294 0.296,-0.294Z" style="fill:none;stroke:#666c99;stroke-width:0.6px;stroke-linecap:butt;stroke-miterlimit:1.41421;"/><g><ellipse cx="68.902" cy="37.151" rx="2.166" ry="1.217" style="fill:#9d9994;stroke:#c2eaf3;stroke-width:0.4px;"/><path d="M69.317,36.459c0.091,0 0.446,0.106 0.526,0.143c0.319,0.145 0.427,0.181 0.653,0.388" style="fill:none;stroke:#c2eaf3;stroke-width:0.24px;"/></g><g><ellipse cx="71.62" cy="33.536" rx="2.166" ry="1.217" style="fill:#9d9994;stroke:#c2eaf3;stroke-width:0.4px;"/><path d="M72.034,32.844c0.091,0 0.447,0.106 0.527,0.143c0.319,0.146 0.426,0.182 0.653,0.389" style="fill:none;stroke:#c2eaf3;stroke-width:0.24px;"/></g><g><ellipse cx="61.712" cy="36.141" rx="2.166" ry="1.217" style="fill:#9d9994;stroke:#c2eaf3;stroke-width:0.4px;"/><path d="M62.126,35.449c0.091,0 0.446,0.106 0.527,0.143c0.318,0.145 0.426,0.181 0.653,0.388" style="fill:none;stroke:#c2eaf3;stroke-width:0.24px;"/></g><g><ellipse cx="60.608" cy="32.712" rx="2.166" ry="1.217" style="fill:#9d9994;stroke:#c2eaf3;stroke-width:0.4px;"/><path d="M61.022,32.02c0.091,0 0.447,0.106 0.527,0.142c0.319,0.146 0.426,0.182 0.653,0.389" style="fill:none;stroke:#c2eaf3;stroke-width:0.24px;"/></g><g><ellipse cx="55.764" cy="35.243" rx="2.166" ry="1.217" style="fill:#9d9994;stroke:#c2eaf3;stroke-width:0.4px;"/><path d="M56.178,34.551c0.091,0 0.447,0.106 0.527,0.142c0.319,0.146 0.426,0.182 0.653,0.389" style="fill:none;stroke:#c2eaf3;stroke-width:0.24px;"/></g><g><ellipse cx="65.473" cy="31.103" rx="2.166" ry="1.217" style="fill:#9d9994;stroke:#c2eaf3;stroke-width:0.4px;"/><path d="M65.887,30.411c0.091,0 0.447,0.106 0.527,0.143c0.319,0.146 0.426,0.181 0.653,0.388" style="fill:none;stroke:#c2eaf3;stroke-width:0.24px;"/></g><g><ellipse cx="64.237" cy="39.371" rx="2.166" ry="1.217" style="fill:#9d9994;stroke:#c2eaf3;stroke-width:0.4px;"/><path d="M64.651,38.679c0.091,0 0.446,0.106 0.527,0.143c0.318,0.145 0.426,0.181 0.653,0.388" style="fill:none;stroke:#c2eaf3;stroke-width:0.24px;"/></g><g><ellipse cx="57.551" cy="39.371" rx="2.166" ry="1.217" style="fill:#9d9994;stroke:#c2eaf3;stroke-width:0.4px;"/><path d="M57.965,38.679c0.091,0 0.447,0.106 0.527,0.143c0.318,0.145 0.426,0.181 0.653,0.388" style="fill:none;stroke:#c2eaf3;stroke-width:0.24px;"/></g><g><ellipse cx="52.333" cy="38.154" rx="2.166" ry="1.217" style="fill:#9d9994;stroke:#c2eaf3;stroke-width:0.4px;"/><path d="M52.747,37.462c0.091,0 0.446,0.107 0.527,0.143c0.318,0.146 0.426,0.182 0.653,0.389" style="fill:none;stroke:#c2eaf3;stroke-width:0.24px;"/></g><g><ellipse cx="66.044" cy="34.253" rx="2.166" ry="1.217" style="fill:#9d9994;stroke:#c2eaf3;stroke-width:0.4px;"/><path d="M66.459,33.562c0.091,0 0.446,0.106 0.527,0.142c0.318,0.146 0.426,0.182 0.652,0.389" style="fill:none;stroke:#c2eaf3;stroke-width:0.24px;"/></g><g id="APPLE"><g><path d="M44.953,25.172c0.507,-0.27 0.91,-0.731 1.153,-1.247c0.21,-0.447 0.315,-0.94 0.301,-1.434c-0.004,-0.14 -0.114,-0.256 -0.256,-0.256c-0.038,0 -0.076,0.009 -0.109,0.025c-0.012,0.002 -0.024,0.005 -0.036,0.009c-0.344,0.126 -0.695,0.229 -1.028,0.382c-0.331,0.152 -0.626,0.37 -0.906,0.6c-0.396,0.327 -0.749,0.718 -0.997,1.168c-0.167,-0.314 -0.366,-0.61 -0.599,-0.884c-0.304,-0.359 -0.681,-0.664 -1.088,-0.897c-0.243,-0.139 -0.559,-0.059 -0.701,0.183c-0.141,0.24 -0.059,0.563 0.183,0.701c0.13,0.075 0.255,0.156 0.374,0.245c0.216,0.174 0.412,0.371 0.585,0.587c0.198,0.266 0.363,0.554 0.496,0.857c0.115,0.283 0.204,0.575 0.269,0.872c0.227,0.104 0.427,0.227 0.598,0.369c0.135,-0.112 0.288,-0.212 0.458,-0.3c-0.04,-0.24 -0.094,-0.478 -0.162,-0.711c0.503,0.058 1.01,-0.027 1.465,-0.269Zm-1.427,-0.238c-0.004,-0.001 -0.008,-0.002 -0.012,-0.002c-0.025,-0.004 -0.049,-0.008 -0.074,-0.013c-0.013,-0.002 -0.026,-0.005 -0.039,-0.007c0.001,-0.003 0.002,-0.006 0.003,-0.008c0.013,-0.031 0.028,-0.062 0.042,-0.092c0.073,-0.152 0.161,-0.297 0.258,-0.435c0.019,-0.027 0.039,-0.054 0.059,-0.081c0.006,-0.008 0.02,-0.026 0.024,-0.03c0.012,-0.016 0.025,-0.032 0.038,-0.048c0.056,-0.069 0.116,-0.135 0.176,-0.2c0.117,-0.124 0.242,-0.241 0.371,-0.352c0.057,-0.049 0.116,-0.097 0.176,-0.143c0.008,-0.007 0.021,-0.017 0.025,-0.02c0.016,-0.012 0.032,-0.024 0.048,-0.036c0.037,-0.027 0.075,-0.054 0.113,-0.081c0.148,-0.104 0.301,-0.196 0.464,-0.274c0.038,-0.019 0.076,-0.036 0.115,-0.053c0.002,-0.001 0.004,-0.002 0.006,-0.003c0.003,-0.001 0.005,-0.002 0.009,-0.003c0.019,-0.008 0.038,-0.016 0.057,-0.023c0.081,-0.032 0.164,-0.062 0.246,-0.09c0.084,-0.029 0.168,-0.057 0.252,-0.086c-0.002,0.023 -0.004,0.045 -0.007,0.068c0,0.002 -0.001,0.005 -0.001,0.009c-0.002,0.014 -0.004,0.027 -0.006,0.041c-0.006,0.034 -0.012,0.067 -0.018,0.101c-0.014,0.072 -0.032,0.143 -0.051,0.214c-0.018,0.065 -0.039,0.129 -0.061,0.193c-0.012,0.032 -0.023,0.063 -0.036,0.094c-0.002,0.006 -0.004,0.011 -0.006,0.016c-0.003,0.006 -0.016,0.037 -0.02,0.046c-0.056,0.126 -0.123,0.247 -0.198,0.363c-0.03,0.047 -0.062,0.093 -0.096,0.138c0.001,-0.002 -0.039,0.049 -0.048,0.06c-0.024,0.03 -0.049,0.058 -0.074,0.086c-0.084,0.093 -0.176,0.178 -0.273,0.257c0,0 -0.05,0.037 -0.061,0.045c-0.026,0.019 -0.053,0.037 -0.08,0.054c-0.058,0.038 -0.119,0.073 -0.181,0.105c-0.028,0.015 -0.058,0.029 -0.087,0.043c-0.013,0.006 -0.026,0.012 -0.039,0.018c-0.001,0 -0.002,0.001 -0.004,0.001c-0.065,0.027 -0.132,0.049 -0.2,0.069c-0.085,0.025 -0.172,0.044 -0.259,0.058c-0.006,0.001 -0.012,0.002 -0.017,0.002c-0.022,0.003 -0.044,0.005 -0.066,0.007c-0.052,0.005 -0.103,0.007 -0.155,0.008c-0.101,0.002 -0.202,-0.004 -0.302,-0.015c-0.004,-0.001 -0.008,-0.001 -0.011,-0.001Z" style="fill:#87e878;fill-rule:nonzero;stroke:#9d9994;stroke-width:0.37px;stroke-linecap:butt;stroke-miterlimit:1.41421;"/><path d="M42.675,26.429c-0.539,-0.318 -1.242,-0.442 -1.817,-0.442c-0.001,0 -0.001,0 -0.002,0c-1.914,0 -2.839,0.835 -2.95,3.066c-0.092,2.233 1.753,4.918 4.53,4.918c0.002,0 0.004,0 0.006,0c0.264,0 0.539,-0.217 0.75,-0.384c0.217,0.167 0.486,0.384 0.75,0.384c0.002,0 0.004,0 0.006,0c2.777,0 4.623,-2.685 4.53,-4.918c-0.11,-2.231 -1.036,-3.066 -2.95,-3.066c0,0 -0.001,0 -0.002,0c-0.578,0 -1.281,0.125 -1.822,0.446c0,-0.001 0,-0.002 0,-0.002c-0.197,0.116 -0.373,0.258 -0.512,0.429c-0.141,-0.173 -0.318,-0.316 -0.517,-0.433" style="fill:#87e878;fill-rule:nonzero;stroke:#9d9994;stroke-width:0.4px;stroke-linecap:butt;stroke-miterlimit:1.41421;"/></g></g></svg>