<?xml version="1.0" encoding="UTF-8" standalone="no"?><!DOCTYPE svg PUBLIC "-//W3C//DTD SVG 1.1//EN" "http://www.w3.org/Graphics/SVG/1.1/DTD/svg11.dtd"><svg width="100%" height="100%" viewBox="0 0 127 98" version="1.1" xmlns="http://www.w3.org/2000/svg" xmlns:xlink="http://www.w3.org/1999/xlink" xml:space="preserve" xmlns:serif="http://www.serif.com/" style="fill-rule:evenodd;clip-rule:evenodd;stroke-linecap:round;stroke-linejoin:round;stroke-miterlimit:1.5;"><path d="M124.204,11.374c0,-5.458 -4.431,-9.888 -9.889,-9.888l-101.91,0c-5.458,0 -9.889,4.43 -9.889,9.888l0,75.172c0,5.458 4.431,9.888 9.889,9.888l101.91,0c5.458,0 9.889,-4.43 9.889,-9.888l0,-75.172Z" style="fill:#e5f6e3;stroke:#000;stroke-width:1px;"/><path d="M38.656,51.44c7.141,-2.364 7.081,-2.48 7.081,-2.48" style="fill:none;stroke:#9d9994;stroke-width:0.2px;"/><clipPath id="_clip1"><rect x="38.416" y="26.997" width="48.262" height="20.23"/></clipPath><g clip-path="url(#_clip1)"><ellipse cx="62.547" cy="47.624" rx="24.131" ry="10.115" style="fill:#ddc17b;stroke:#9d9994;stroke-width:0.55px;"/></g><path d="M38.678,46.917c47.714,0 47.764,0.052 47.764,0.052" style="fill:none;stroke:#9d9994;stroke-width:0.55px;"/><path d="M39.398,64.721c0.661,-0.26 1.726,-0.12 2.56,-0.12c2.501,0 4.852,0.001 7.06,0.002c34.282,0.016 34.343,0.118 34.343,0.118" style="fill:none;stroke:#9d9994;stroke-width:0.55px;"/><clipPath id="_clip2"><rect x="39.398" y="64.437" width="44.778" height="0.163"/></clipPath><g clip-path="url(#_clip2)"><path d="M39.931,63.778c47.714,0 47.764,0.052 47.764,0.052" style="fill:none;stroke:#9d9994;stroke-width:0.55px;"/></g><rect x="45.737" y="48.96" width="41.057" height="9.769" style="fill:#33f19a;stroke:#9d9994;stroke-width:0.2px;"/><rect x="38.678" y="51.56" width="45.184" height="10.751" style="fill:#33f19a;stroke:#9d9994;stroke-width:0.4px;"/><path d="M83.863,51.56c2.956,-2.478 2.931,-2.6 2.931,-2.6" style="fill:none;stroke:#9d9994;stroke-width:0.2px;"/><path d="M83.956,62.31c2.956,-3.414 2.838,-3.581 2.838,-3.581" style="fill:none;stroke:#9d9994;stroke-width:0.2px;"/><path d="M48.215,51.375l-9.211,0l6.473,-2.23l2.738,0l0,2.23Z" style="fill:#33f19a;"/><path d="M84.059,62.071l0,-7.56l2.619,1.89l0,2.47l-2.619,3.2Z" style="fill:#33f19a;"/><clipPath id="_clip3"><rect x="37.238" y="64.721" width="48.067" height="9.903"/></clipPath><g clip-path="url(#_clip3)"><path d="M84.861,67.814c0,-2.109 -1.711,-3.82 -3.82,-3.82l-39.312,0c-2.109,0 -3.82,1.711 -3.82,3.82l0,2.263c0,2.108 1.711,3.82 3.82,3.82l39.312,0c2.109,0 3.82,-1.712 3.82,-3.82l0,-2.263Z" style="fill:#ddc17b;stroke:#9d9994;stroke-width:0.55px;"/></g><path d="M50.162,40.987c0.457,0 0.726,-0.484 1.207,-0.484" style="fill:none;stroke:#9d9994;stroke-width:0.55px;"/><path d="M53.61,40.159c0.054,-0.025 0.175,-0.014 0.228,-0.038c0.144,-0.066 0.608,-0.048 0.852,-0.048" style="fill:none;stroke:#9d9994;stroke-width:0.55px;"/><path d="M52.17,41.719c0.054,-0.025 0.175,-0.014 0.228,-0.038c0.144,-0.066 0.608,-0.048 0.852,-0.048" style="fill:none;stroke:#9d9994;stroke-width:0.55px;"/><path d="M57.099,39.993c0,-0.039 0.367,-0.125 0.415,-0.125c0.167,0 0.399,-0.017 0.52,0.104" style="fill:none;stroke:#9d9994;stroke-width:0.55px;"/><path d="M64.181,39.972c-0.391,0.021 0.307,-0.003 0.436,0.062c0.04,0.02 0.158,-0.008 0.187,0.021c0.032,0.032 0.183,0.083 0.249,0.083" style="fill:none;stroke:#9d9994;stroke-width:0.55px;"/><path d="M68.501,40.387c-0.022,-0.061 0.518,-0.042 0.748,0.062c0.035,0.017 0.139,-0.026 0.166,0c0.014,0.015 0.122,0.084 0.145,0.084" style="fill:none;stroke:#9d9994;stroke-width:0.55px;"/><path d="M69.941,41.587c-0.022,-0.061 0.518,-0.042 0.748,0.062c0.035,0.017 0.139,-0.026 0.166,0c0.014,0.015 0.122,0.084 0.145,0.084" style="fill:none;stroke:#9d9994;stroke-width:0.55px;"/><path d="M67.545,41.554c0.058,-0.058 0.162,0 0.228,0c0.214,0 0.604,0.147 0.727,0.27" style="fill:none;stroke:#9d9994;stroke-width:0.55px;"/><path d="M55.545,41.554c0.058,-0.058 0.162,0 0.228,0c0.214,0 0.604,0.147 0.727,0.27" style="fill:none;stroke:#9d9994;stroke-width:0.55px;"/><path id="svg_1" d="M7.723,90.143c-1.188,-0.12 -0.027,-1.978 -0.476,-2.838c-0.004,-1.267 -0.474,-2.515 -0.321,-3.775c0.935,-2.221 0.155,-4.647 -0.05,-6.936c-0.092,-0.505 -0.09,-1.803 -0.32,-0.649c-0.639,1.945 -0.015,4.35 -0.561,6.32c-0.913,1.097 -1.602,-0.644 -0.731,-1.311c1.018,-1.602 0.772,-3.76 0.806,-5.758c-0.044,-1.263 0.463,-2.85 1.963,-2.886c1.283,-0.097 2.498,0.515 3.792,0.439c3.775,0.059 7.588,0.092 11.315,-0.596c1.861,-0.429 3.713,0.328 5.576,0.021c1.048,0.113 1.602,-0.377 1.14,-1.296c0.78,-0.538 1.38,1.021 1.727,-0.368c1.256,-0.865 1.431,1.69 2.822,0.969c1.678,0.217 -0.729,1.718 0.676,2.469c0.849,0.656 2.15,2.279 0.46,2.747c-1.453,-0.102 -2.909,-0.006 -4.363,0.064c-0.673,1.123 -2.072,1.966 -1.919,3.438c-0.116,1.757 -1.346,3.488 -3.031,4.034c-0.719,-0.143 -1.033,0.09 -0.943,0.827c-0.372,0.964 -0.438,1.98 -0.394,3.004c-0.11,0.565 0.124,1.005 0.457,1.44c-0.391,0.678 -2.633,0.276 -1.784,-1.006c0.218,-1.682 -0.038,-3.371 -0.228,-5.043c-0.894,-0.636 -1.976,-0.403 -2.881,0.108c-1.994,0.731 -4.303,1.424 -6.348,0.485c-1.141,-0.319 -2.861,-0.556 -3.709,0.407c-0.381,1.45 -0.279,3.009 -0.605,4.481c-0.005,0.77 0.727,1.431 -0.513,1.216c-0.519,0.012 -1.039,0.028 -1.557,-0.007l0,0l0,0Zm1.059,-1.638c0.204,-0.689 -0.294,-2.441 -0.337,-0.807c-0.17,0.518 0.046,3.008 0.3,1.355c0.016,-0.182 0.027,-0.365 0.037,-0.548Z" style="fill:#ff8767;fill-rule:nonzero;stroke:#000;stroke-width:0.4px;stroke-linecap:butt;stroke-linejoin:miter;stroke-miterlimit:4;"/><path d="M35.742,75.829c-3.309,0.32 -3.25,0.249 -3.25,0.249c0,0 0.498,-0.935 1.57,-0.094" style="fill:none;stroke:#000;stroke-width:0.4px;"/><ellipse cx="33.273" cy="73.035" rx="0.782" ry="1.032" style="fill:#f4f2ef;stroke:#000;stroke-width:0.18px;"/><path d="M33.681,72.921c-0.079,-0.089 -0.159,-0.178 -0.238,-0.267" style="fill:none;stroke:#000;stroke-width:0.18px;"/></svg>