<?xml version="1.0" encoding="UTF-8" standalone="no"?><!DOCTYPE svg PUBLIC "-//W3C//DTD SVG 1.1//EN" "http://www.w3.org/Graphics/SVG/1.1/DTD/svg11.dtd"><svg width="100%" height="100%" viewBox="0 0 127 98" version="1.1" xmlns="http://www.w3.org/2000/svg" xmlns:xlink="http://www.w3.org/1999/xlink" xml:space="preserve" xmlns:serif="http://www.serif.com/" style="fill-rule:evenodd;clip-rule:evenodd;stroke-linecap:round;stroke-linejoin:round;stroke-miterlimit:1.5;"><path d="M124.204,11.374c0,-5.458 -4.431,-9.888 -9.889,-9.888l-101.91,0c-5.458,0 -9.889,4.43 -9.889,9.888l0,75.172c0,5.458 4.431,9.888 9.889,9.888l101.91,0c5.458,0 9.889,-4.43 9.889,-9.888l0,-75.172Z" style="fill:#e5f6e3;stroke:#000;stroke-width:1px;"/><path id="svg_9" d="M85.907,25.597c-0.744,0.97 -0.661,2.287 -0.661,3.445c0.17,2.128 0.528,4.272 1.329,6.259c0.577,1.294 0.997,2.661 1.787,3.852c0.962,1.699 2.12,3.274 3.402,4.743c0.939,1.121 2.012,2.119 3.176,3.003c0.326,0.283 1.235,1.078 0.905,0.112c-0.426,-0.497 -0.917,-0.949 -1.341,-1.457c-2.094,-2.394 -4.419,-4.738 -5.56,-7.769c-0.119,-0.643 0.55,0.589 0.628,0.875c1.143,2.144 2.746,3.999 4.326,5.83c0.848,0.843 1.601,2.114 2.934,2.142c1.109,0.109 -0.018,-0.521 -0.363,-0.862c-1.571,-1.433 -3.174,-2.857 -4.395,-4.615c-0.784,-0.829 -1.268,-1.877 -1.865,-2.84c-0.61,-1.107 -1.088,-2.283 -1.656,-3.413c-0.369,-0.745 -0.732,-1.493 -0.942,-2.302c-0.417,-1.245 -0.796,-2.501 -1.099,-3.778c-0.215,-0.801 -0.515,-1.585 -0.529,-2.423l-0.076,-0.802l0,0Zm14.105,20.125c-0.111,-0.06 -0.241,-0.094 -0.372,-0.077c-0.915,0.001 -1.097,0.76 -1.777,1.074c-0.523,0.263 -0.994,0.289 -1.596,0.186c0.001,0.261 0.053,0.68 -0.077,0.941c-0.287,0.576 -1.229,0.761 -1.726,0.447c-0.183,-0.156 -0.524,-0.653 -0.838,-0.417c-0.104,0.078 -0.156,0.183 -0.13,0.262c-0.105,0.209 0.105,0.444 0.262,0.653c0.498,0.444 1.23,0.548 1.858,0.469c0.471,-0.027 0.915,-0.263 1.229,-0.63l0.444,-0.628c0.157,-0.183 0.392,-0.131 0.837,-0.367c0.522,-0.263 1.202,-0.839 1.777,-0.944c0.209,-0.027 0.393,-0.001 0.628,0.051c-0.026,-0.209 -0.079,-0.366 -0.105,-0.575c-0.079,-0.105 -0.131,-0.262 -0.236,-0.314c-0.049,-0.049 -0.111,-0.095 -0.178,-0.131l0,0Zm1.232,3.081c-0.196,-0.1 -0.423,-0.16 -0.658,-0.203l0.288,0.47c-0.209,0.157 -0.679,0.446 -0.758,0.733c-0.208,0.55 0.525,0.915 0.995,0.758c0.576,-0.236 0.889,-0.865 0.522,-1.44c-0.103,-0.137 -0.237,-0.24 -0.389,-0.318Zm-1.137,-0.246c-0.041,-0.02 -0.082,-0.04 -0.122,-0.059c-0.298,-0.129 -0.599,-0.251 -0.896,-0.383c-0.183,-0.089 -0.368,-0.184 -0.571,-0.219c-0.315,0.033 -0.601,0.207 -0.826,0.423c-0.031,0.032 -0.061,0.066 -0.089,0.101c0.226,0.277 0.558,0.425 0.875,0.569c0.191,0.089 0.368,0.207 0.552,0.31c0.132,0.073 0.257,0.158 0.394,0.221c0.169,0.077 0.369,0.059 0.525,-0.037c0.135,-0.082 0.268,-0.169 0.381,-0.28c0.097,-0.101 0.187,-0.264 0.098,-0.398c-0.078,-0.114 -0.198,-0.187 -0.321,-0.248l0,0l0,0Zm-0.409,1.299c-0.079,0.027 -0.131,0 -0.209,0.027c-0.183,0.235 0.184,1.203 0.576,0.679c-0.21,-0.235 -0.314,-0.418 -0.367,-0.706l0,0l0,0Z" style="fill:#87e878;fill-rule:nonzero;stroke:#000;stroke-width:0.6px;stroke-linecap:butt;stroke-linejoin:miter;stroke-miterlimit:4;"/><path id="svg_8" d="M109.365,69.606c-0.268,-4.831 0.504,-9.689 -0.094,-14.508c-0.971,2.805 -1.43,5.761 -1.483,8.725c-0.045,1.844 -0.018,3.689 -0.025,5.533c-0.715,0.2 -1.653,0.131 -2.093,0.809c-0.683,0.338 -4.354,2.064 -3.828,0.869c0.652,-0.523 3.275,-1.729 3.306,-2.666c0.684,-5.7 0.289,-11.449 0.331,-17.173c0.048,-2.296 -0.126,-4.624 0.287,-6.893c0.221,-1.152 2.076,-0.556 2.016,-2.024c0.329,-1.278 0.074,-2.821 1.033,-3.857c1.148,-0.839 2.378,0.48 2.25,1.677c0.116,1.237 -0.129,2.809 0.989,3.66c1.246,0.298 1.42,1.92 1.965,2.905c0.458,1.158 1.053,2.587 0.009,3.623c-0.643,0.941 -1.831,1.819 -1.408,3.11c-0.066,3.363 -0.733,6.678 -1.012,10.024c-0.227,1.91 -0.306,3.853 -0.753,5.726c-0.061,0.617 -0.634,2.113 -1.316,1.142c-0.095,-0.216 -0.138,-0.45 -0.174,-0.682l0,0l0,0Zm-3.384,-13.733c-0.5,-0.436 0.047,1.46 0.052,0.187l-0.052,-0.187Zm0.738,-3.623c-0.204,-0.755 -0.773,1.125 -0.584,1.614c-0.031,0.74 0.081,0.453 0.228,-0.089c0.161,-0.496 0.303,-1.004 0.356,-1.525l0,0Zm6.679,-2.512c0.598,-1.231 -0.294,-2.595 -1.207,-3.394c-0.906,0.179 -0.452,1.871 -0.444,2.656c-0.04,0.996 1.227,2.34 1.651,0.738l0,0Zm-6.404,-1.254c-0.325,-0.584 -0.104,2.518 0.054,0.885c0.013,-0.295 0,-0.593 -0.054,-0.885Z" style="fill:#87e878;fill-rule:nonzero;"/><path d="M109.586,37.194l0.024,0l0.024,0.001l0.024,0.001l0.024,0.001l0.024,0.001l0.024,0.002l0.024,0.002l0.024,0.002l0.023,0.003l0.024,0.003l0.023,0.003l0.024,0.003l0.023,0.003l0.023,0.004l0.024,0.004l0.023,0.005l0.023,0.004l0.022,0.005l0.023,0.005l0.023,0.005l0.022,0.006l0.023,0.005l0.022,0.006l0.022,0.006l0.022,0.007l0.022,0.006l0.022,0.007l0.022,0.007l0.022,0.007l0.021,0.008l0.022,0.007l0.021,0.008l0.021,0.008l0.021,0.008l0.021,0.009l0.021,0.009l0.02,0.008l0.021,0.009l0.02,0.009l0.02,0.01l0.02,0.009l0.02,0.01l0.02,0.01l0.02,0.01l0.02,0.01l0.019,0.01l0.019,0.011l0.02,0.011l0.019,0.011l0.018,0.01l0.019,0.012l0.019,0.011l0.019,0.011l0.018,0.012l0.018,0.012l0.018,0.012l0.018,0.012l0.018,0.012l0.018,0.012l0.017,0.012l0.018,0.013l0.017,0.013l0.017,0.013l0.018,0.013l0.016,0.013l0.017,0.013l0.017,0.013l0.017,0.014l0.016,0.013l0.016,0.014l0.016,0.013l0.016,0.014l0.016,0.015l0.016,0.014l0.016,0.014l0.015,0.014l0.016,0.015l0.015,0.014l0.015,0.015l0.015,0.015l0.015,0.015l0.015,0.015l0.014,0.015l0.015,0.015l0.014,0.015l0.014,0.015l0.014,0.016l0.015,0.016l0.013,0.015l0.014,0.016l0.014,0.016l0.013,0.016l0.014,0.016l0.013,0.016l0.013,0.016l0.013,0.017l0.013,0.016l0.013,0.017l0.012,0.016l0.013,0.017l0.012,0.017l0.012,0.016l0.013,0.017l0.012,0.018l0.011,0.016l0.012,0.018l0.012,0.017l0.011,0.017l0.012,0.018l0.011,0.017l0.011,0.018l0.011,0.018l0.011,0.017l0.011,0.018l0.011,0.018l0.01,0.018l0.01,0.018l0.011,0.018l0.01,0.018l0.01,0.019l0.01,0.018l0.009,0.018l0.01,0.019l0.01,0.019l0.009,0.018l0.009,0.019l0.009,0.019l0.009,0.019l0.009,0.018l0.009,0.019l0.008,0.019l0.009,0.02l0.008,0.019l0.008,0.019l0.009,0.019l0.008,0.02l0.007,0.019l0.008,0.02l0.007,0.019l0.008,0.02l0.007,0.02l0.007,0.019l0.007,0.02l0.007,0.02l0.007,0.021l0.006,0.02l0.007,0.019l0.006,0.021l0.006,0.02l0.006,0.02l0.006,0.021l0.006,0.02l0.006,0.021l0.005,0.02l0.005,0.021l0.005,0.02l0.005,0.021l0.005,0.021l0.005,0.021l0.004,0.02l0.005,0.021l0.004,0.022l0.004,0.021l0.004,0.021l0.004,0.021l0.003,0.021l0.004,0.021l0.003,0.022l0.003,0.021l0.003,0.022l0.003,0.021l0.003,0.021l0.002,0.022l0.003,0.022l0.002,0.021l0.002,0.022l0.002,0.022l0.001,0.021l0.002,0.022l0.001,0.022l0.001,0.022l0.001,0.022l0.001,0.022l0,0.022l0.001,0.022l0,0.022l0,0.022l0,0.023l-0.001,0.022l0,0.022l-0.001,0.023l-0.001,0.022l-0.001,0.022l-0.001,0.022l-0.001,0.007l0.001,0.009l0,0.002l0,0.003l0.003,0.034l0.002,0.033l0.002,0.033l0.003,0.034l0.002,0.033l0.002,0.033l0.001,0.033l0.004,0.065l0.003,0.065l0.003,0.065l0.002,0.065l0.002,0.064l0.002,0.063l0.002,0.064l0.004,0.125l0.004,0.123l0.002,0.061l0.002,0.061l0.003,0.06l0.002,0.059l0.003,0.058l0.003,0.059l0.001,0.028l0.002,0.029l0.002,0.028l0.001,0.029l0.002,0.028l0.002,0.028l0.002,0.027l0.002,0.028l0.003,0.027l0.002,0.027l0.002,0.027l0.003,0.027l0.003,0.026l0.002,0.027l0.003,0.026l0.003,0.025l0.003,0.026l0.004,0.025l0.003,0.026l0.003,0.024l0.004,0.025l0.004,0.024l0.004,0.025l0.004,0.023l0.004,0.024l0.004,0.023l0.004,0.023l0.005,0.023l0.004,0.023l0.005,0.022l0.005,0.022l0.005,0.022l0.005,0.021l0.005,0.021l0.005,0.021l0.006,0.02l0.005,0.021l0.006,0.02l0.006,0.019l0.006,0.02l0.006,0.019l0.006,0.018l0.007,0.019l0.006,0.018l0.007,0.018l0.006,0.017l0.007,0.018l0.008,0.018l0.003,0.007l0.003,0.008l0.004,0.009l0.004,0.008l0.003,0.008l0.004,0.008l0.003,0.008l0.004,0.008l0.004,0.008l0.004,0.008l0.004,0.007l0.003,0.008l0.004,0.007l0.004,0.008l0.004,0.007l0.004,0.008l0.004,0.007l0.004,0.007l0.004,0.007l0.004,0.007l0.004,0.008l0.004,0.007l0.005,0.006l0.004,0.007l0.004,0.007l0.004,0.007l0.005,0.007l0.004,0.006l0.004,0.007l0.005,0.007l0.004,0.006l0.005,0.007l0.004,0.006l0.005,0.006l0.005,0.007l0.004,0.006l0.005,0.006l0.005,0.007l0.004,0.006l0.005,0.006l0.005,0.006l0.005,0.006l0.005,0.006l0.005,0.006l0.005,0.006l0.005,0.006l0.006,0.006l0.005,0.006l0.005,0.006l0.005,0.006l0.006,0.005l0.005,0.006l0.006,0.006l0.005,0.006l0.003,0.002l0.004,0.002l0.022,0.008l0.022,0.008l0.022,0.008l0.022,0.009l0.022,0.008l0.021,0.009l0.022,0.009l0.021,0.01l0.021,0.009l0.022,0.01l0.02,0.01l0.021,0.01l0.021,0.01l0.02,0.01l0.021,0.011l0.02,0.011l0.02,0.011l0.02,0.01l0.02,0.012l0.019,0.011l0.02,0.012l0.019,0.011l0.019,0.012l0.019,0.012l0.019,0.012l0.019,0.012l0.018,0.013l0.019,0.012l0.018,0.013l0.018,0.013l0.018,0.013l0.017,0.013l0.018,0.013l0.017,0.013l0.018,0.013l0.017,0.014l0.016,0.013l0.017,0.014l0.017,0.014l0.016,0.014l0.016,0.014l0.016,0.014l0.016,0.014l0.016,0.014l0.016,0.015l0.015,0.014l0.015,0.014l0.016,0.015l0.015,0.015l0.014,0.014l0.015,0.015l0.015,0.015l0.014,0.015l0.014,0.015l0.014,0.015l0.014,0.015l0.014,0.015l0.013,0.015l0.014,0.016l0.013,0.015l0.013,0.015l0.013,0.015l0.014,0.017l0.024,0.03l0.025,0.031l0.025,0.031l0.023,0.031l0.024,0.032l0.022,0.031l0.023,0.032l0.021,0.032l0.022,0.031l0.021,0.032l0.02,0.032l0.02,0.032l0.02,0.032l0.019,0.032l0.019,0.032l0.018,0.032l0.018,0.031l0.018,0.032l0.017,0.032l0.018,0.032l0.016,0.032l0.017,0.032l0.016,0.032l0.016,0.031l0.015,0.032l0.016,0.032l0.015,0.031l0.015,0.032l0.014,0.031l0.014,0.032l0.014,0.031l0.014,0.031l0.014,0.032l0.013,0.031l0.014,0.031l0.013,0.03l0.013,0.031l0.012,0.031l0.013,0.03l0.012,0.031l0.013,0.031l0.023,0.059l0.024,0.06l0.023,0.059l0.022,0.058l0.022,0.058l0.043,0.113l0.042,0.11l0.02,0.053l0.02,0.053l0.02,0.051l0.02,0.051l0.02,0.049l0.009,0.024l0.01,0.024l0.01,0.023l0.009,0.024l0.01,0.023l0.01,0.022l0.009,0.022l0.01,0.022l0.009,0.021l0.009,0.022l0.01,0.02l0.009,0.021l0.009,0.019l0.009,0.02l0.01,0.019l0.009,0.019l0.009,0.018l0.009,0.018l0.009,0.017l0.008,0.017l0.009,0.016l0.04,0.072l0.065,0.165l0.044,0.112l0.023,0.057l0.023,0.059l0.022,0.059l0.023,0.06l0.023,0.06l0.023,0.061l0.023,0.062l0.023,0.062l0.012,0.032l0.011,0.032l0.011,0.032l0.011,0.032l0.012,0.033l0.011,0.032l0.011,0.033l0.011,0.032l0.011,0.033l0.01,0.033l0.011,0.034l0.011,0.033l0.01,0.034l0.01,0.034l0.011,0.034l0.01,0.034l0.01,0.034l0.01,0.034l0.009,0.035l0.01,0.035l0.009,0.035l0.009,0.035l0.009,0.035l0.009,0.035l0.009,0.036l0.008,0.036l0.008,0.036l0.008,0.036l0.008,0.036l0.008,0.037l0.007,0.036l0.007,0.037l0.007,0.037l0.006,0.037l0.007,0.038l0.006,0.037l0.005,0.038l0.006,0.038l0.005,0.037l0.004,0.039l0.005,0.038l0.004,0.039l0.004,0.038l0.003,0.039l0.003,0.039l0.003,0.04l0.002,0.039l0.002,0.039l0.001,0.04l0.001,0.04l0,0.04l0,0.04l0,0.041l-0.001,0.04l-0.001,0.041l-0.002,0.039l-0.001,0.022l-0.002,0.021l-0.001,0.02l-0.001,0.021l-0.002,0.02l-0.002,0.021l-0.002,0.021l-0.002,0.02l-0.002,0.021l-0.002,0.021l-0.003,0.02l-0.003,0.021l-0.002,0.021l-0.003,0.021l-0.003,0.021l-0.004,0.021l-0.003,0.02l-0.004,0.021l-0.003,0.021l-0.004,0.021l-0.004,0.021l-0.004,0.021l-0.005,0.021l-0.004,0.021l-0.005,0.021l-0.005,0.021l-0.005,0.021l-0.005,0.021l-0.005,0.021l-0.006,0.022l-0.005,0.021l-0.006,0.02l-0.006,0.021l-0.006,0.022l-0.007,0.021l-0.006,0.021l-0.007,0.021l-0.007,0.021l-0.007,0.021l-0.007,0.021l-0.008,0.021l-0.007,0.021l-0.008,0.021l-0.008,0.02l-0.008,0.021l-0.008,0.021l-0.009,0.021l-0.009,0.021l-0.009,0.02l-0.009,0.021l-0.009,0.021l-0.009,0.021l-0.01,0.02l-0.01,0.021l-0.01,0.02l-0.01,0.021l-0.01,0.02l-0.011,0.02l-0.011,0.021l-0.011,0.02l-0.011,0.02l-0.011,0.021l-0.012,0.02l-0.011,0.02l-0.012,0.02l-0.012,0.02l-0.013,0.019l-0.012,0.02l-0.013,0.02l-0.013,0.02l-0.012,0.019l-0.014,0.02l-0.013,0.019l-0.014,0.019l-0.013,0.02l-0.014,0.019l-0.014,0.019l-0.014,0.019l-0.015,0.019l-0.015,0.019l-0.014,0.019l-0.015,0.018l-0.015,0.019l-0.016,0.019l-0.015,0.018l-0.016,0.018l-0.016,0.018l-0.016,0.019l-0.016,0.018l-0.016,0.018l-0.017,0.017l-0.016,0.018l-0.001,0l-0.003,0.005l-0.002,0.003l-0.003,0.003l-0.019,0.027l-0.019,0.026l-0.019,0.026l-0.019,0.026l-0.019,0.025l-0.019,0.026l-0.019,0.025l-0.02,0.025l-0.019,0.025l-0.019,0.024l-0.02,0.025l-0.038,0.048l-0.038,0.048l-0.038,0.047l-0.038,0.046l-0.038,0.046l-0.037,0.045l-0.038,0.045l-0.073,0.088l-0.036,0.043l-0.035,0.043l-0.035,0.042l-0.034,0.042l-0.033,0.041l-0.033,0.041l-0.033,0.041l-0.015,0.019l-0.016,0.02l-0.015,0.02l-0.015,0.019l-0.015,0.02l-0.015,0.019l-0.014,0.019l-0.014,0.019l-0.014,0.019l-0.014,0.019l-0.013,0.019l-0.014,0.018l-0.013,0.019l-0.012,0.018l-0.013,0.018l-0.012,0.018l-0.012,0.018l-0.011,0.018l-0.012,0.017l-0.011,0.018l-0.01,0.017l-0.011,0.017l-0.01,0.017l-0.01,0.017l-0.01,0.016l-0.009,0.017l-0.009,0.016l-0.009,0.016l-0.008,0.016l-0.008,0.015l-0.008,0.016l-0.007,0.015l-0.008,0.015l-0.007,0.015l-0.006,0.015l-0.007,0.014l-0.006,0.014l-0.006,0.014l-0.005,0.014l-0.005,0.014l-0.005,0.013l-0.005,0.015l-0.002,0.005l-0.002,0.007l-0.003,0.006l-0.002,0.007l-0.002,0.006l-0.002,0.006l-0.001,0.007l-0.002,0.006l-0.002,0.006l-0.002,0.007l-0.001,0.006l-0.002,0.006l-0.001,0.006l-0.002,0.006l-0.001,0.006l-0.002,0.006l-0.001,0.006l-0.001,0.006l-0.001,0.005l-0.001,0.006l-0.001,0.006l-0.001,0.006l-0.001,0.005l-0.001,0.006l-0.001,0.006l-0.001,0.005l-0.001,0.006l-0.001,0.006l0,0.005l-0.001,0.006l0,0.005l-0.001,0.006l0,0.006l-0.001,0.005l0,0.005l-0.001,0.006l0,0.006l0,0.005l0,0.006l-0.001,0.005l0,0.006l0,0.005l0,0.006l0,0.006l0,0.005l0.001,0.006l0,0.005l0,0.006l0,0.006l0.001,0.006l0,0.005l0,0.006l0.001,0.006l0,0.006l0.001,0.006l0.001,0.006l0,0.006l0.001,0.006l0.001,0.006l0.001,0.006l0.001,0.007l0.001,0.006l0.001,0.006l0.001,0.007l0.001,0.006l0.002,0.007l0.001,0.007l0.002,0.006l0.001,0.007l0.002,0.007l0.001,0.007l0.002,0.007l0.002,0.007l0.002,0.007l0.002,0.007l0.002,0.008l0.002,0.007l0.003,0.007l0.002,0.008l0.053,0.166l-0.005,0.242l-0.002,0.081l-0.002,0.081l-0.002,0.082l-0.003,0.081l-0.002,0.081l-0.003,0.081l-0.004,0.082l-0.003,0.081l-0.004,0.081l-0.003,0.081l-0.004,0.081l-0.005,0.08l-0.004,0.081l-0.005,0.081l-0.004,0.081l-0.005,0.08l-0.005,0.081l-0.006,0.081l-0.005,0.08l-0.006,0.081l-0.005,0.08l-0.006,0.08l-0.006,0.081l-0.007,0.08l-0.006,0.08l-0.007,0.081l-0.006,0.08l-0.007,0.08l-0.007,0.08l-0.007,0.08l-0.007,0.08l-0.008,0.08l-0.007,0.08l-0.008,0.08l-0.007,0.079l-0.008,0.08l-0.008,0.08l-0.008,0.079l-0.008,0.08l-0.009,0.08l-0.008,0.079l-0.009,0.08l-0.008,0.079l-0.009,0.079l-0.009,0.08l-0.017,0.158l-0.018,0.159l-0.019,0.158l-0.019,0.158l-0.018,0.158l-0.02,0.158l-0.019,0.158l-0.02,0.157l-0.019,0.157l-0.02,0.158l-0.02,0.157l-0.02,0.157l-0.02,0.156l-0.041,0.313l-0.04,0.313l-0.041,0.312l-0.02,0.156l-0.019,0.155l-0.02,0.156l-0.02,0.155l-0.019,0.156l-0.019,0.155l-0.019,0.155l-0.019,0.155l-0.019,0.155l-0.018,0.154l-0.018,0.155l-0.017,0.154l-0.018,0.155l-0.008,0.077l-0.009,0.077l-0.008,0.077l-0.008,0.077l-0.008,0.077l-0.008,0.077l-0.008,0.077l-0.008,0.077l-0.007,0.077l-0.008,0.077l-0.007,0.077l-0.007,0.077l-0.007,0.077l-0.007,0.076l-0.007,0.077l-0.007,0.077l-0.007,0.077l-0.008,0.093l-0.012,0.104l-0.01,0.088l-0.01,0.087l-0.01,0.088l-0.009,0.088l-0.01,0.088l-0.009,0.088l-0.009,0.089l-0.009,0.088l-0.009,0.089l-0.009,0.089l-0.009,0.089l-0.017,0.178l-0.018,0.18l-0.034,0.359l-0.018,0.181l-0.017,0.181l-0.018,0.182l-0.009,0.091l-0.01,0.091l-0.009,0.091l-0.01,0.092l-0.009,0.091l-0.01,0.092l-0.01,0.091l-0.01,0.092l-0.011,0.092l-0.01,0.092l-0.011,0.092l-0.011,0.092l-0.012,0.092l-0.011,0.092l-0.012,0.093l-0.012,0.092l-0.013,0.093l-0.013,0.092l-0.013,0.093l-0.013,0.093l-0.014,0.093l-0.014,0.092l-0.008,0.047l-0.007,0.046l-0.008,0.047l-0.007,0.046l-0.008,0.047l-0.008,0.046l-0.008,0.047l-0.008,0.047l-0.008,0.046l-0.008,0.047l-0.008,0.046l-0.009,0.047l-0.008,0.047l-0.009,0.046l-0.009,0.047l-0.009,0.047l-0.009,0.046l-0.009,0.047l-0.009,0.047l-0.009,0.046l-0.01,0.047l-0.01,0.047l-0.01,0.046l-0.009,0.047l-0.011,0.047l-0.01,0.046l-0.01,0.047l-0.011,0.047l-0.01,0.047l-0.011,0.047l-0.007,0.03l0,0l-0.002,0.006l0,0l-0.003,0.025l-0.003,0.024l-0.004,0.024l-0.004,0.024l-0.004,0.024l-0.004,0.025l-0.005,0.024l-0.004,0.024l-0.005,0.025l-0.005,0.024l-0.006,0.025l-0.005,0.024l-0.006,0.025l-0.005,0.025l-0.006,0.024l-0.007,0.025l-0.006,0.026l-0.007,0.024l-0.006,0.025l-0.007,0.026l-0.008,0.025l-0.007,0.025l-0.008,0.026l-0.007,0.025l-0.008,0.026l-0.008,0.025l-0.009,0.026l-0.008,0.026l-0.009,0.026l-0.009,0.025l-0.009,0.026l-0.01,0.026l-0.009,0.026l-0.01,0.026l-0.01,0.026l-0.011,0.026l-0.01,0.027l-0.011,0.026l-0.011,0.026l-0.011,0.026l-0.012,0.026l-0.011,0.027l-0.012,0.026l-0.013,0.026l-0.012,0.027l-0.013,0.026l-0.013,0.026l-0.013,0.026l-0.014,0.027l-0.014,0.026l-0.015,0.026l-0.014,0.027l-0.015,0.026l-0.016,0.026l-0.015,0.026l-0.017,0.027l-0.016,0.026l-0.017,0.026l-0.018,0.027l-0.018,0.026l-0.018,0.026l-0.019,0.026l-0.02,0.027l-0.02,0.026l-0.021,0.026l-0.022,0.026l-0.022,0.026l-0.023,0.026l-0.024,0.026l-0.024,0.026l-0.026,0.026l-0.024,0.024l-0.016,0.014l-0.014,0.013l-0.014,0.013l-0.014,0.013l-0.015,0.012l-0.015,0.013l-0.015,0.013l-0.016,0.012l-0.015,0.012l-0.016,0.012l-0.017,0.013l-0.017,0.012l-0.017,0.012l-0.017,0.012l-0.018,0.012l-0.018,0.011l-0.019,0.012l-0.019,0.011l-0.019,0.011l-0.02,0.011l-0.021,0.011l-0.02,0.011l-0.02,0.01l-0.022,0.01l-0.021,0.01l-0.022,0.01l-0.023,0.009l-0.023,0.009l-0.023,0.009l-0.024,0.008l-0.024,0.008l-0.024,0.007l-0.025,0.008l-0.025,0.006l-0.025,0.007l-0.026,0.005l-0.026,0.006l-0.026,0.005l-0.027,0.004l-0.027,0.004l-0.027,0.003l-0.028,0.003l-0.027,0.002l-0.027,0.001l-0.028,0.001l-0.028,0.001l-0.028,0l-0.028,-0.001l-0.028,-0.002l-0.028,-0.002l-0.028,-0.002l-0.028,-0.004l-0.027,-0.003l-0.028,-0.005l-0.028,-0.005l-0.027,-0.006l-0.027,-0.006l-0.027,-0.006l-0.027,-0.008l-0.026,-0.008l-0.026,-0.008l-0.026,-0.009l-0.026,-0.009l-0.025,-0.01l-0.025,-0.01l-0.024,-0.01l-0.025,-0.011l-0.023,-0.011l-0.024,-0.012l-0.023,-0.012l-0.023,-0.012l-0.022,-0.013l-0.022,-0.013l-0.021,-0.013l-0.021,-0.014l-0.021,-0.014l-0.021,-0.014l-0.02,-0.014l-0.019,-0.014l-0.02,-0.015l-0.019,-0.015l-0.018,-0.015l-0.019,-0.015l-0.018,-0.015l-0.017,-0.016l-0.018,-0.015l-0.017,-0.016l-0.017,-0.016l-0.016,-0.016l-0.017,-0.017l-0.015,-0.016l-0.016,-0.016l-0.016,-0.017l-0.015,-0.017l-0.015,-0.017l-0.015,-0.017l-0.014,-0.017l-0.014,-0.017l-0.015,-0.018l-0.014,-0.017l-0.013,-0.018l-0.014,-0.018l-0.013,-0.017l-0.013,-0.018l-0.014,-0.018l-0.069,-0.098l-0.052,-0.121l-0.013,-0.032l-0.013,-0.033l-0.013,-0.032l-0.012,-0.033l-0.011,-0.032l-0.011,-0.031l-0.01,-0.032l-0.01,-0.031l-0.009,-0.031l-0.009,-0.031l-0.008,-0.03l-0.009,-0.03l-0.007,-0.03l-0.008,-0.029l-0.007,-0.03l-0.004,-0.02l-0.49,0.135l-0.023,0.006l-0.022,0.006l-0.023,0.006l-0.022,0.005l-0.022,0.006l-0.023,0.005l-0.023,0.006l-0.042,0.009l-0.043,0.009l-0.043,0.009l-0.042,0.009l-0.042,0.008l-0.041,0.007l-0.04,0.008l-0.041,0.007l-0.039,0.007l-0.039,0.006l-0.076,0.013l-0.073,0.012l-0.072,0.012l-0.034,0.006l-0.034,0.005l-0.034,0.006l-0.032,0.006l-0.032,0.006l-0.031,0.006l-0.03,0.006l-0.03,0.006l-0.028,0.006l-0.028,0.006l-0.028,0.006l-0.012,0.003l-0.013,0.003l-0.013,0.003l-0.013,0.003l-0.012,0.004l-0.012,0.003l-0.011,0.003l-0.012,0.003l-0.011,0.003l-0.011,0.004l-0.011,0.003l-0.01,0.003l-0.011,0.003l-0.01,0.004l-0.009,0.003l-0.01,0.003l-0.009,0.003l-0.009,0.004l-0.009,0.003l-0.008,0.003l-0.009,0.003l-0.007,0.004l-0.008,0.003l-0.007,0.003l-0.008,0.003l-0.007,0.003l-0.006,0.003l-0.006,0.003l-0.007,0.003l-0.006,0.003l-0.005,0.003l-0.005,0.003l-0.006,0.003l-0.005,0.002l-0.004,0.003l-0.005,0.003l-0.004,0.002l-0.004,0.003l-0.004,0.002l-0.003,0.003l-0.004,0.002l-0.003,0.002l-0.003,0.003l-0.003,0.002l-0.003,0.002l-0.002,0.002l-0.003,0.002l-0.002,0.002l-0.003,0.002l-0.002,0.002l-0.002,0.002l-0.002,0.002l-0.002,0.002l-0.002,0.002l-0.002,0.002l-0.001,0.002l-0.002,0.002l-0.002,0.002l-0.002,0.002l-0.001,0.002l-0.002,0.002l-0.002,0.003l-0.002,0.003l-0.002,0.002l-0.001,0.003l-0.15,0.227l-0.27,0.133l-0.041,0.02l-0.044,0.021l-0.049,0.024l-0.052,0.025l-0.056,0.027l-0.059,0.028l-0.063,0.029l-0.065,0.031l-0.069,0.031l-0.071,0.033l-0.074,0.034l-0.076,0.035l-0.079,0.035l-0.081,0.036l-0.083,0.037l-0.084,0.037l-0.087,0.038l-0.087,0.038l-0.045,0.019l-0.045,0.019l-0.046,0.019l-0.045,0.019l-0.046,0.02l-0.046,0.019l-0.046,0.019l-0.047,0.019l-0.047,0.019l-0.046,0.019l-0.048,0.019l-0.047,0.019l-0.047,0.019l-0.048,0.018l-0.047,0.019l-0.048,0.018l-0.048,0.019l-0.048,0.018l-0.048,0.018l-0.047,0.018l-0.048,0.018l-0.048,0.017l-0.048,0.017l-0.048,0.018l-0.048,0.016l-0.048,0.017l-0.047,0.016l-0.048,0.017l-0.047,0.015l-0.048,0.016l-0.047,0.015l-0.047,0.015l-0.047,0.015l-0.047,0.014l-0.047,0.014l-0.047,0.014l-0.046,0.013l-0.046,0.013l-0.047,0.013l-0.046,0.012l-0.046,0.012l-0.046,0.011l-0.046,0.011l-0.044,0.01l-0.024,0.005l-0.023,0.005l-0.023,0.005l-0.022,0.004l-0.023,0.005l-0.023,0.004l-0.023,0.005l-0.023,0.004l-0.023,0.004l-0.023,0.004l-0.023,0.003l-0.023,0.004l-0.023,0.003l-0.023,0.003l-0.023,0.003l-0.023,0.003l-0.024,0.003l-0.023,0.003l-0.024,0.002l-0.024,0.002l-0.023,0.002l-0.024,0.002l-0.024,0.001l-0.025,0.001l-0.025,0.001l-0.025,0.001l-0.025,0l-0.025,0l-0.026,0l-0.026,-0.001l-0.026,-0.001l-0.027,-0.001l-0.027,-0.002l-0.028,-0.002l-0.028,-0.003l-0.029,-0.003l-0.029,-0.004l-0.03,-0.005l-0.03,-0.005l-0.031,-0.007l-0.032,-0.007l-0.032,-0.008l-0.033,-0.009l-0.033,-0.01l-0.035,-0.011l-0.035,-0.013l-0.036,-0.014l-0.036,-0.016l-0.037,-0.017l-0.038,-0.02l-0.037,-0.021l-0.039,-0.023l-0.038,-0.025l-0.038,-0.028l-0.038,-0.03l-0.038,-0.032l-0.033,-0.031l-0.022,-0.022l-0.018,-0.019l-0.017,-0.019l-0.017,-0.019l-0.018,-0.021l-0.016,-0.021l-0.016,-0.022l-0.016,-0.021l-0.015,-0.022l-0.015,-0.023l-0.014,-0.023l-0.013,-0.023l-0.013,-0.024l-0.013,-0.024l-0.011,-0.024l-0.012,-0.024l-0.011,-0.026l-0.009,-0.024l-0.009,-0.024l-0.009,-0.025l-0.008,-0.024l-0.008,-0.025l-0.007,-0.025l-0.006,-0.025l-0.005,-0.023l-0.005,-0.025l-0.005,-0.025l-0.004,-0.024l-0.003,-0.023l-0.004,-0.028l-0.004,-0.042l-0.002,-0.045l-0.001,-0.044l0.001,-0.043l0.002,-0.042l0.003,-0.04l0.005,-0.04l0.005,-0.038l0.007,-0.037l0.007,-0.036l0.008,-0.035l0.009,-0.034l0.009,-0.033l0.01,-0.032l0.01,-0.031l0.01,-0.031l0.012,-0.03l0.011,-0.03l0.012,-0.028l0.105,-0.245l0.211,-0.167l0.025,-0.019l0.025,-0.019l0.025,-0.018l0.025,-0.019l0.025,-0.018l0.026,-0.018l0.025,-0.017l0.026,-0.018l0.026,-0.018l0.027,-0.017l0.026,-0.018l0.027,-0.017l0.027,-0.018l0.028,-0.017l0.028,-0.018l0.028,-0.017l0.028,-0.018l0.057,-0.036l0.059,-0.036l0.06,-0.036l0.06,-0.037l0.062,-0.037l0.063,-0.037l0.064,-0.038l0.129,-0.077l0.133,-0.079l0.066,-0.04l0.068,-0.04l0.067,-0.041l0.068,-0.04l0.067,-0.042l0.068,-0.041l0.067,-0.041l0.068,-0.042l0.033,-0.021l0.033,-0.021l0.034,-0.021l0.033,-0.021l0.033,-0.021l0.032,-0.021l0.033,-0.021l0.032,-0.021l0.033,-0.022l0.032,-0.021l0.031,-0.021l0.032,-0.021l0.031,-0.021l0.031,-0.021l0.03,-0.021l0.031,-0.021l0.03,-0.021l0.029,-0.021l0.03,-0.02l0.028,-0.021l0.029,-0.021l0.028,-0.02l0.028,-0.021l0.027,-0.02l0.026,-0.02l0.027,-0.02l0.025,-0.02l0.026,-0.02l0.024,-0.02l0.024,-0.019l0.024,-0.02l0.023,-0.019l0.022,-0.019l0.022,-0.018l0.021,-0.019l0.02,-0.018l0.02,-0.017l0.018,-0.018l0.019,-0.017l0.018,-0.018l0.008,-0.007l0.008,-0.008l0.008,-0.008l0.008,-0.008l0.007,-0.008l0.008,-0.008l0.007,-0.007l0.007,-0.008l0.007,-0.007l0.006,-0.007l0.007,-0.007l0.006,-0.007l0.006,-0.007l0.006,-0.007l0.005,-0.006l0.006,-0.006l0.005,-0.006l0.005,-0.006l0.004,-0.006l0.004,-0.005l0.005,-0.006l0.004,-0.005l0.003,-0.005l0.004,-0.004l0.003,-0.005l0.003,-0.004l0.003,-0.004l0,-0.001l0.007,-0.054l0.008,-0.066l0.007,-0.065l0.008,-0.065l0.007,-0.066l0.007,-0.065l0.008,-0.066l0.007,-0.065l0.007,-0.066l0.007,-0.065l0.007,-0.066l0.007,-0.065l0.006,-0.066l0.007,-0.065l0.006,-0.066l0.007,-0.065l0.012,-0.132l0.013,-0.131l0.012,-0.131l0.011,-0.132l0.011,-0.131l0.011,-0.131l0.011,-0.132l0.01,-0.131l0.01,-0.132l0.01,-0.131l0.009,-0.132l0.009,-0.132l0.009,-0.131l0.008,-0.132l0.008,-0.132l0.008,-0.132l0.008,-0.132l0.007,-0.132l0.007,-0.132l0.007,-0.132l0.006,-0.132l0.006,-0.132l0.006,-0.132l0.006,-0.132l0.005,-0.133l0.005,-0.132l0.005,-0.132l0.005,-0.133l0.004,-0.132l0.005,-0.132l0.004,-0.133l0.003,-0.133l0.004,-0.132l0.003,-0.133l0.003,-0.132l0.003,-0.133l0.003,-0.133l0.003,-0.133l0.002,-0.132l0.002,-0.133l0.002,-0.133l0.002,-0.133l0.001,-0.133l0.002,-0.133l0.001,-0.133l0.001,-0.133l0.001,-0.133l0.001,-0.133l0,-0.134l0.001,-0.133l0,-0.133l0,-0.133l0,-0.134l0,-0.133l0,-0.134l0,-0.133l0,-0.134l-0.001,-0.133l-0.001,-0.134l0,-0.133l-0.001,-0.134l-0.001,-0.133l-0.002,-0.268l-0.003,-0.268l-0.003,-0.267l-0.003,-0.268l-0.003,-0.268l-0.004,-0.268l-0.003,-0.268l-0.004,-0.269l-0.004,-0.268l-0.008,-0.537l-0.007,-0.538l-0.004,-0.269l-0.004,-0.269l-0.003,-0.27l-0.004,-0.269l-0.003,-0.269l-0.003,-0.27l-0.002,-0.27l-0.002,-0.269l-0.001,-0.136l-0.001,-0.134l-0.001,-0.135l-0.001,-0.135l0,-0.136l-0.001,-0.135l0,-0.135l0,-0.135l0,-0.135l0,-0.135l0,-0.135l0,-0.135l0.001,-0.136l0,-0.135l0.001,-0.135l0.001,-0.141l0.002,-0.112l0.002,-0.105l0.001,-0.105l0.001,-0.106l0.001,-0.105l0.001,-0.106l0,-0.106l0.001,-0.107l0,-0.106l0,-0.107l0,-0.107l-0.001,-0.106l0,-0.215l-0.001,-0.216l-0.003,-0.432l-0.001,-0.218l0,-0.109l-0.001,-0.109l0,-0.109l0,-0.11l0,-0.109l0.001,-0.11l0,-0.11l0.001,-0.11l0.001,-0.11l0.001,-0.111l0.002,-0.11l0.001,-0.111l0.003,-0.111l0.002,-0.11l0.003,-0.111l0.001,-0.056l0.002,-0.056l0.002,-0.055l0.002,-0.056l0.002,-0.056l0.002,-0.056l0.002,-0.055l0.002,-0.056l0.002,-0.056l0.003,-0.056l0.002,-0.056l0.003,-0.056l0.003,-0.056l0.003,-0.056l0.003,-0.056l0.003,-0.056l0.004,-0.056l0.003,-0.056l0.004,-0.056l0.004,-0.056l0.004,-0.057l0.004,-0.056l0.004,-0.056l0.005,-0.057l0.004,-0.056l0.005,-0.056l0.005,-0.057l0.005,-0.056l0.005,-0.056l0.005,-0.057l0.006,-0.056l0.006,-0.057l0.006,-0.056l0.006,-0.057l0.006,-0.057l0.006,-0.056l0.007,-0.057l0.007,-0.056l0.007,-0.057l0.007,-0.057l0.008,-0.056l0.007,-0.057l0.008,-0.057l0.008,-0.057l0.008,-0.057l0.009,-0.056l0.008,-0.057l0.009,-0.057l0.009,-0.057l0.01,-0.057l0.009,-0.057l0.01,-0.057l0.01,-0.057l0.012,-0.063l0.005,-0.028l0.006,-0.026l0.005,-0.025l0.006,-0.025l0.007,-0.026l0.007,-0.025l0.007,-0.025l0.007,-0.025l0.008,-0.025l0.008,-0.025l0.009,-0.025l0.008,-0.024l0.01,-0.025l0.009,-0.024l0.01,-0.024l0.01,-0.024l0.01,-0.023l0.011,-0.024l0.011,-0.023l0.012,-0.023l0.012,-0.023l0.012,-0.022l0.012,-0.023l0.013,-0.022l0.012,-0.022l0.013,-0.021l0.014,-0.022l0.014,-0.021l0.013,-0.021l0.015,-0.02l0.014,-0.021l0.015,-0.02l0.014,-0.019l0.015,-0.02l0.015,-0.019l0.016,-0.018l0.015,-0.019l0.016,-0.018l0.016,-0.018l0.016,-0.017l0.016,-0.017l0.016,-0.017l0.016,-0.017l0.017,-0.016l0.016,-0.016l0.017,-0.016l0.016,-0.015l0.017,-0.015l0.017,-0.015l0.016,-0.014l0.017,-0.014l0.017,-0.014l0.017,-0.013l0.017,-0.014l0.017,-0.013l0.016,-0.012l0.017,-0.013l0.017,-0.012l0.017,-0.012l0.017,-0.011l0.016,-0.011l0.017,-0.012l0.017,-0.011l0.016,-0.01l0.017,-0.011l0.017,-0.01l0.016,-0.01l0.018,-0.01l0.031,-0.018l0.032,-0.018l0.032,-0.017l0.032,-0.017l0.032,-0.016l0.031,-0.015l0.031,-0.015l0.03,-0.014l0.03,-0.013l0.03,-0.013l0.029,-0.013l0.029,-0.012l0.028,-0.011l0.028,-0.012l0.028,-0.01l0.027,-0.011l0.027,-0.01l0.027,-0.01l0.05,-0.019l0.049,-0.018l0.093,-0.033l0.043,-0.016l0.042,-0.015l0.019,-0.007l0.019,-0.008l0.019,-0.007l0.018,-0.007l0.017,-0.006l0.017,-0.007l0.016,-0.006l0.015,-0.007l0.015,-0.006l0.014,-0.006l0.013,-0.006l0.013,-0.006l0.012,-0.005l0.011,-0.006l0.01,-0.005l0.01,-0.005l0.009,-0.005l0.008,-0.004l0.009,-0.005l0.002,-0.001l0.003,-0.002l0.003,-0.002l0.001,0l0,-0.003l0,-0.005l0.001,-0.004l0,-0.005l0,-0.006l0,-0.006l0,-0.006l0,-0.006l0,-0.007l0,-0.007l0,-0.007l-0.005,-0.149l0.04,-0.16l0.006,-0.024l0.005,-0.023l0.006,-0.024l0.005,-0.024l0.006,-0.025l0.005,-0.025l0.005,-0.025l0.005,-0.025l0.005,-0.025l0.005,-0.026l0.004,-0.026l0.005,-0.026l0.004,-0.027l0.005,-0.026l0.004,-0.027l0.004,-0.027l0.004,-0.028l0.004,-0.027l0.004,-0.028l0.004,-0.028l0.004,-0.029l0.004,-0.028l0.004,-0.029l0.003,-0.029l0.004,-0.028l0.007,-0.06l0.007,-0.06l0.007,-0.06l0.006,-0.061l0.007,-0.062l0.006,-0.063l0.007,-0.063l0.013,-0.128l0.006,-0.066l0.007,-0.066l0.007,-0.066l0.008,-0.067l0.007,-0.068l0.008,-0.068l0.009,-0.068l0.004,-0.035l0.004,-0.035l0.005,-0.034l0.005,-0.035l0.005,-0.035l0.005,-0.036l0.005,-0.035l0.005,-0.035l0.005,-0.036l0.006,-0.035l0.006,-0.036l0.006,-0.036l0.006,-0.036l0.007,-0.036l0.006,-0.036l0.007,-0.037l0.007,-0.036l0.008,-0.037l0.007,-0.036l0.008,-0.037l0.008,-0.037l0.008,-0.037l0.009,-0.036l0.009,-0.038l0.009,-0.037l0.01,-0.037l0.01,-0.037l0.01,-0.038l0.01,-0.037l0.011,-0.037l0.012,-0.038l0.011,-0.038l0.012,-0.037l0.012,-0.038l0.013,-0.038l0.013,-0.038l0.014,-0.037l0.014,-0.038l0.014,-0.038l0.015,-0.038l0.015,-0.038l0.016,-0.038l0.016,-0.038l0.017,-0.038l0.017,-0.038l0.018,-0.037l0.018,-0.038l0.018,-0.037l0.01,-0.02l0.009,-0.019l0.01,-0.018l0.01,-0.019l0.01,-0.019l0.01,-0.019l0.011,-0.019l0.01,-0.018l0.011,-0.019l0.01,-0.019l0.011,-0.018l0.011,-0.019l0.011,-0.018l0.011,-0.019l0.012,-0.019l0.011,-0.018l0.012,-0.019l0.012,-0.018l0.012,-0.018l0.012,-0.019l0.012,-0.018l0.013,-0.018l0.012,-0.018l0.013,-0.019l0.013,-0.018l0.013,-0.018l0.013,-0.018l0.013,-0.018l0.013,-0.018l0.014,-0.018l0.014,-0.018l0.014,-0.017l0.014,-0.018l0.014,-0.018l0.014,-0.017l0.015,-0.018l0.014,-0.017l0.015,-0.018l0.015,-0.017l0.015,-0.017l0.015,-0.018l0.015,-0.017l0.016,-0.017l0.079,-0.086l0.096,-0.07l0.022,-0.015l0.021,-0.015l0.021,-0.014l0.022,-0.015l0.022,-0.014l0.022,-0.014l0.022,-0.013l0.022,-0.014l0.022,-0.013l0.022,-0.013l0.023,-0.012l0.022,-0.013l0.023,-0.012l0.022,-0.012l0.023,-0.011l0.023,-0.011l0.023,-0.012l0.024,-0.01l0.023,-0.011l0.023,-0.01l0.023,-0.01l0.024,-0.01l0.023,-0.009l0.024,-0.01l0.024,-0.008l0.024,-0.009l0.023,-0.008l0.024,-0.008l0.024,-0.008l0.024,-0.008l0.024,-0.007l0.025,-0.007l0.024,-0.006l0.024,-0.007l0.024,-0.006l0.025,-0.005l0.024,-0.006l0.025,-0.005l0.024,-0.005l0.024,-0.005l0.025,-0.004l0.024,-0.004l0.025,-0.003l0.024,-0.004l0.025,-0.003l0.024,-0.003l0.025,-0.002l0.024,-0.003l0.024,-0.002l0.025,-0.001l0.024,-0.002l0.025,-0.001l0.024,0l0.024,-0.001l0.025,0l0.024,0Zm-0.034,0.962l-0.013,0.001l-0.013,0l-0.013,0.001l-0.014,0.001l-0.013,0l-0.013,0.001l-0.013,0.002l-0.013,0.001l-0.014,0.002l-0.013,0.001l-0.013,0.002l-0.014,0.002l-0.013,0.002l-0.013,0.003l-0.014,0.002l-0.013,0.003l-0.013,0.003l-0.014,0.003l-0.013,0.003l-0.013,0.003l-0.014,0.004l-0.013,0.003l-0.014,0.004l-0.013,0.004l-0.013,0.004l-0.014,0.005l-0.013,0.004l-0.014,0.005l-0.013,0.005l-0.014,0.005l-0.013,0.005l-0.014,0.005l-0.013,0.006l-0.014,0.006l-0.013,0.006l-0.014,0.006l-0.013,0.006l-0.014,0.007l-0.013,0.006l-0.014,0.007l-0.013,0.007l-0.014,0.007l-0.013,0.008l-0.014,0.007l-0.013,0.008l-0.014,0.008l-0.013,0.008l-0.014,0.009l-0.013,0.008l-0.014,0.009l-0.013,0.009l-0.014,0.009l-0.013,0.01l-0.014,0.009l-0.013,0.01l-0.011,0.012l-0.011,0.012l-0.011,0.012l-0.011,0.013l-0.011,0.012l-0.011,0.012l-0.01,0.013l-0.011,0.012l-0.01,0.013l-0.01,0.013l-0.01,0.012l-0.01,0.013l-0.01,0.012l-0.01,0.013l-0.01,0.013l-0.009,0.013l-0.01,0.013l-0.009,0.013l-0.009,0.013l-0.01,0.013l-0.009,0.013l-0.009,0.013l-0.008,0.013l-0.009,0.013l-0.009,0.013l-0.009,0.013l-0.008,0.014l-0.009,0.013l-0.008,0.013l-0.008,0.014l-0.008,0.013l-0.008,0.014l-0.008,0.013l-0.008,0.014l-0.008,0.013l-0.008,0.014l-0.007,0.014l-0.008,0.013l-0.007,0.014l-0.008,0.014l-0.007,0.014l-0.007,0.013l-0.007,0.014l-0.007,0.014l-0.014,0.028l-0.013,0.028l-0.013,0.028l-0.013,0.029l-0.013,0.028l-0.012,0.028l-0.012,0.029l-0.011,0.029l-0.012,0.029l-0.011,0.029l-0.011,0.029l-0.01,0.029l-0.01,0.03l-0.01,0.029l-0.01,0.03l-0.009,0.029l-0.009,0.03l-0.009,0.03l-0.009,0.03l-0.008,0.03l-0.009,0.03l-0.008,0.031l-0.008,0.03l-0.007,0.03l-0.007,0.031l-0.008,0.031l-0.007,0.03l-0.006,0.031l-0.007,0.031l-0.006,0.031l-0.007,0.031l-0.006,0.031l-0.005,0.031l-0.006,0.031l-0.006,0.031l-0.005,0.032l-0.005,0.031l-0.006,0.031l-0.005,0.032l-0.004,0.031l-0.005,0.032l-0.005,0.032l-0.004,0.031l-0.005,0.032l-0.004,0.032l-0.004,0.032l-0.004,0.031l-0.004,0.032l-0.008,0.064l-0.007,0.064l-0.008,0.064l-0.007,0.064l-0.006,0.064l-0.007,0.064l-0.007,0.064l-0.013,0.129l-0.006,0.064l-0.007,0.064l-0.007,0.064l-0.007,0.064l-0.007,0.064l-0.007,0.063l-0.008,0.064l-0.004,0.032l-0.004,0.031l-0.004,0.032l-0.004,0.032l-0.004,0.031l-0.005,0.032l-0.004,0.031l-0.005,0.031l-0.004,0.032l-0.005,0.031l-0.005,0.031l-0.005,0.031l-0.006,0.031l-0.005,0.031l-0.006,0.031l-0.005,0.031l-0.006,0.031l-0.006,0.031l-0.007,0.03l-0.006,0.031l-0.007,0.03l-0.006,0.031l-0.007,0.03l-0.008,0.03l-0.007,0.03l-0.008,0.03l0.001,0.017l0,0.017l0.001,0.017l0,0.017l0,0.016l-0.001,0.016l0,0.016l-0.001,0.016l0,0.016l-0.001,0.015l-0.001,0.015l-0.001,0.016l-0.002,0.015l-0.001,0.014l-0.002,0.015l-0.002,0.014l-0.002,0.015l-0.002,0.014l-0.003,0.014l-0.002,0.013l-0.003,0.014l-0.002,0.014l-0.003,0.013l-0.003,0.013l-0.004,0.013l-0.003,0.013l-0.003,0.012l-0.004,0.013l-0.004,0.012l-0.004,0.013l-0.004,0.012l-0.004,0.012l-0.004,0.011l-0.005,0.012l-0.004,0.011l-0.005,0.012l-0.005,0.011l-0.005,0.011l-0.005,0.011l-0.005,0.011l-0.006,0.011l-0.005,0.01l-0.006,0.01l-0.006,0.011l-0.005,0.01l-0.006,0.01l-0.006,0.01l-0.007,0.01l-0.006,0.009l-0.006,0.01l-0.007,0.009l-0.007,0.009l-0.006,0.01l-0.007,0.009l-0.007,0.009l-0.007,0.008l-0.007,0.009l-0.008,0.009l-0.007,0.008l-0.008,0.008l-0.007,0.009l-0.008,0.008l-0.008,0.008l-0.007,0.008l-0.008,0.008l-0.008,0.008l-0.009,0.007l-0.008,0.008l-0.008,0.007l-0.009,0.008l-0.008,0.007l-0.009,0.007l-0.008,0.007l-0.009,0.007l-0.009,0.007l-0.009,0.007l-0.009,0.007l-0.009,0.006l-0.009,0.007l-0.009,0.006l-0.01,0.007l-0.009,0.006l-0.009,0.006l-0.01,0.006l-0.01,0.007l-0.009,0.006l-0.01,0.006l-0.01,0.005l-0.01,0.006l-0.009,0.006l-0.02,0.011l-0.021,0.011l-0.02,0.011l-0.021,0.011l-0.021,0.01l-0.021,0.01l-0.021,0.01l-0.021,0.01l-0.022,0.009l-0.022,0.01l-0.022,0.009l-0.022,0.009l-0.022,0.009l-0.022,0.009l-0.022,0.009l-0.023,0.008l-0.022,0.009l-0.023,0.008l-0.022,0.009l-0.046,0.016l-0.046,0.017l-0.091,0.033l-0.045,0.016l-0.045,0.017l-0.023,0.009l-0.022,0.008l-0.023,0.009l-0.022,0.009l-0.022,0.009l-0.022,0.009l-0.022,0.009l-0.022,0.009l-0.021,0.01l-0.022,0.009l-0.021,0.01l-0.021,0.01l-0.021,0.01l-0.021,0.011l-0.02,0.01l-0.021,0.011l-0.02,0.011l-0.019,0.012l-0.01,0.006l-0.01,0.005l-0.01,0.006l-0.009,0.006l-0.01,0.006l-0.009,0.007l-0.009,0.006l-0.01,0.006l-0.009,0.007l-0.009,0.006l-0.009,0.007l-0.009,0.006l-0.009,0.007l-0.009,0.007l-0.009,0.007l-0.009,0.007l-0.008,0.007l-0.009,0.007l-0.008,0.007l-0.009,0.007l-0.008,0.008l-0.008,0.007l-0.008,0.008l-0.008,0.008l-0.008,0.008l-0.008,0.007l-0.007,0.008l-0.008,0.009l-0.008,0.008l-0.007,0.008l-0.007,0.009l-0.007,0.008l-0.008,0.009l-0.007,0.009l-0.006,0.009l-0.007,0.009l-0.007,0.009l-0.006,0.009l-0.007,0.009l-0.006,0.01l-0.006,0.009l-0.007,0.01l-0.006,0.01l-0.005,0.01l-0.006,0.01l-0.006,0.01l-0.005,0.011l-0.006,0.01l-0.005,0.011l-0.005,0.011l-0.005,0.01l-0.005,0.012l-0.005,0.011l-0.004,0.011l-0.005,0.011l-0.004,0.012l-0.004,0.012l-0.005,0.012l-0.003,0.012l-0.004,0.012l-0.004,0.012l-0.003,0.013l-0.004,0.012l-0.003,0.013l-0.003,0.013l-0.003,0.013l-0.003,0.013l-0.003,0.014l-0.009,0.053l-0.01,0.053l-0.009,0.054l-0.009,0.053l-0.008,0.053l-0.009,0.053l-0.008,0.054l-0.008,0.053l-0.008,0.053l-0.008,0.054l-0.008,0.053l-0.007,0.054l-0.007,0.053l-0.007,0.053l-0.007,0.054l-0.007,0.053l-0.006,0.054l-0.006,0.053l-0.007,0.054l-0.005,0.054l-0.006,0.053l-0.006,0.054l-0.005,0.053l-0.006,0.054l-0.005,0.054l-0.005,0.053l-0.004,0.054l-0.005,0.054l-0.005,0.053l-0.004,0.054l-0.004,0.054l-0.004,0.053l-0.004,0.054l-0.004,0.054l-0.004,0.054l-0.003,0.053l-0.003,0.054l-0.004,0.054l-0.003,0.054l-0.003,0.054l-0.003,0.054l-0.002,0.053l-0.003,0.054l-0.003,0.054l-0.002,0.054l-0.002,0.054l-0.003,0.054l-0.002,0.054l-0.002,0.054l-0.001,0.054l-0.002,0.053l-0.002,0.054l-0.002,0.054l-0.001,0.054l-0.003,0.108l-0.002,0.108l-0.002,0.108l-0.002,0.108l-0.001,0.108l-0.002,0.108l-0.001,0.108l0,0.109l-0.001,0.108l0,0.108l0,0.108l0,0.108l0,0.108l0,0.108l0.001,0.108l0.001,0.217l0.002,0.432l0.001,0.216l0.001,0.216l0,0.108l0,0.108l0,0.108l0,0.108l0,0.108l-0.001,0.108l0,0.108l-0.001,0.108l-0.001,0.108l-0.002,0.107l-0.002,0.108l-0.002,0.108l-0.001,0.134l0,0.134l-0.001,0.134l0,0.134l-0.001,0.134l0,0.135l0,0.134l0,0.134l0,0.134l0.001,0.135l0,0.134l0.001,0.134l0,0.134l0.001,0.135l0.001,0.134l0.001,0.134l0.002,0.269l0.003,0.268l0.003,0.269l0.003,0.269l0.003,0.268l0.004,0.269l0.003,0.269l0.004,0.268l0.008,0.538l0.008,0.537l0.004,0.269l0.003,0.268l0.004,0.269l0.003,0.269l0.004,0.269l0.003,0.268l0.003,0.269l0.002,0.269l0.002,0.268l0.001,0.135l0.001,0.134l0.001,0.134l0,0.135l0.001,0.134l0,0.134l0.001,0.135l0,0.134l0,0.134l0,0.135l0,0.134l-0.001,0.134l0,0.134l-0.001,0.135l-0.001,0.134l0,0.134l-0.002,0.134l-0.001,0.135l-0.001,0.134l-0.002,0.134l-0.002,0.134l-0.002,0.135l-0.002,0.134l-0.002,0.134l-0.003,0.134l-0.002,0.134l-0.003,0.135l-0.004,0.134l-0.003,0.134l-0.004,0.134l-0.003,0.134l-0.004,0.134l-0.005,0.134l-0.004,0.135l-0.005,0.134l-0.005,0.134l-0.005,0.134l-0.006,0.134l-0.005,0.134l-0.006,0.134l-0.007,0.134l-0.006,0.134l-0.007,0.134l-0.007,0.134l-0.007,0.134l-0.008,0.134l-0.008,0.134l-0.008,0.134l-0.009,0.134l-0.009,0.134l-0.009,0.134l-0.009,0.134l-0.01,0.133l-0.01,0.134l-0.011,0.134l-0.01,0.134l-0.012,0.134l-0.011,0.134l-0.012,0.133l-0.012,0.134l-0.012,0.134l-0.013,0.134l-0.007,0.067l-0.006,0.066l-0.007,0.067l-0.007,0.067l-0.007,0.067l-0.007,0.067l-0.007,0.067l-0.007,0.067l-0.008,0.066l-0.007,0.067l-0.007,0.067l-0.008,0.067l-0.008,0.067l-0.007,0.066l-0.008,0.067l-0.008,0.067l-0.001,0.011l0,0.011l-0.001,0.011l-0.002,0.011l-0.001,0.011l-0.002,0.011l-0.002,0.011l-0.002,0.012l-0.002,0.011l-0.002,0.011l-0.003,0.011l-0.003,0.011l-0.003,0.012l-0.004,0.011l-0.003,0.011l-0.004,0.012l-0.004,0.011l-0.005,0.011l-0.004,0.012l-0.005,0.011l-0.005,0.012l-0.005,0.011l-0.005,0.011l-0.006,0.012l-0.005,0.011l-0.006,0.012l-0.006,0.011l-0.006,0.012l-0.007,0.011l-0.007,0.012l-0.006,0.012l-0.007,0.011l-0.008,0.012l-0.007,0.011l-0.008,0.012l-0.007,0.012l-0.008,0.011l-0.008,0.012l-0.009,0.012l-0.008,0.011l-0.009,0.012l-0.009,0.012l-0.009,0.012l-0.009,0.011l-0.009,0.012l-0.01,0.012l-0.009,0.011l-0.01,0.012l-0.01,0.012l-0.01,0.012l-0.01,0.012l-0.011,0.011l-0.01,0.012l-0.011,0.012l-0.011,0.012l-0.011,0.012l-0.011,0.011l-0.011,0.012l-0.012,0.012l-0.011,0.012l-0.012,0.012l-0.012,0.012l-0.012,0.012l-0.012,0.011l-0.025,0.024l-0.025,0.024l-0.026,0.024l-0.026,0.023l-0.027,0.024l-0.027,0.024l-0.027,0.024l-0.028,0.023l-0.029,0.024l-0.029,0.024l-0.029,0.023l-0.03,0.024l-0.03,0.024l-0.03,0.023l-0.031,0.024l-0.031,0.024l-0.031,0.023l-0.032,0.024l-0.032,0.023l-0.032,0.023l-0.033,0.024l-0.033,0.023l-0.033,0.023l-0.033,0.024l-0.034,0.023l-0.033,0.023l-0.034,0.023l-0.034,0.023l-0.035,0.023l-0.034,0.023l-0.035,0.023l-0.034,0.022l-0.035,0.023l-0.035,0.023l-0.035,0.022l-0.035,0.023l-0.035,0.022l-0.035,0.022l-0.036,0.022l-0.035,0.022l-0.07,0.044l-0.071,0.043l-0.07,0.043l-0.07,0.043l-0.069,0.042l-0.069,0.041l-0.069,0.041l-0.068,0.041l-0.133,0.079l-0.129,0.077l-0.063,0.037l-0.061,0.037l-0.06,0.036l-0.059,0.035l-0.056,0.035l-0.055,0.033l-0.054,0.034l-0.026,0.016l-0.025,0.016l-0.025,0.016l-0.024,0.015l-0.024,0.016l-0.023,0.015l-0.023,0.015l-0.022,0.014l-0.022,0.015l-0.021,0.014l-0.02,0.014l-0.02,0.014l-0.019,0.014l-0.018,0.013l-0.018,0.013l-0.017,0.013l-0.016,0.012l-0.016,0.013l-0.006,0.014l-0.005,0.013l-0.006,0.014l-0.004,0.013l-0.005,0.013l-0.004,0.012l-0.004,0.012l-0.003,0.012l-0.003,0.012l-0.003,0.012l-0.002,0.011l-0.002,0.011l-0.001,0.011l-0.002,0.01l-0.001,0.011l0,0.01l0,0.01l0,0.009l0,0.009l0.001,0.01l0.001,0.004l0,0.004l0.001,0.005l0.001,0.004l0.001,0.004l0.001,0.004l0.001,0.004l0.001,0.004l0.001,0.004l0.001,0.004l0.002,0.004l0.001,0.004l0.002,0.004l0.001,0.004l0.002,0.003l0.002,0.004l0.002,0.003l0.002,0.004l0.002,0.003l0.002,0.004l0.002,0.003l0.002,0.003l0.002,0.003l0.003,0.003l0.002,0.004l0.003,0.003l0.002,0.003l0.003,0.003l0.003,0.002l0.002,0.003l0.006,0.006l0.006,0.005l0.007,0.005l0.007,0.005l0.007,0.005l0.007,0.004l0.007,0.004l0.008,0.004l0.008,0.004l0.009,0.004l0.009,0.003l0.008,0.003l0.01,0.003l0.009,0.003l0.01,0.003l0.01,0.002l0.01,0.003l0.01,0.002l0.011,0.002l0.011,0.001l0.011,0.002l0.012,0.001l0.011,0.001l0.012,0.001l0.013,0.001l0.012,0.001l0.013,0l0.012,0.001l0.013,0l0.014,0l0.013,0l0.014,-0.001l0.014,0l0.014,-0.001l0.014,-0.001l0.015,-0.001l0.015,-0.001l0.014,-0.001l0.016,-0.002l0.015,-0.002l0.015,-0.001l0.016,-0.002l0.016,-0.002l0.016,-0.003l0.016,-0.002l0.017,-0.003l0.016,-0.002l0.017,-0.003l0.017,-0.003l0.017,-0.003l0.018,-0.003l0.017,-0.004l0.018,-0.003l0.018,-0.004l0.017,-0.004l0.019,-0.003l0.018,-0.004l0.037,-0.009l0.037,-0.009l0.038,-0.009l0.039,-0.01l0.039,-0.01l0.039,-0.011l0.04,-0.011l0.041,-0.012l0.041,-0.012l0.041,-0.012l0.042,-0.013l0.042,-0.013l0.042,-0.013l0.043,-0.014l0.043,-0.014l0.043,-0.015l0.044,-0.015l0.044,-0.015l0.044,-0.015l0.044,-0.016l0.044,-0.015l0.045,-0.017l0.045,-0.016l0.045,-0.016l0.045,-0.017l0.045,-0.017l0.045,-0.017l0.045,-0.018l0.045,-0.017l0.045,-0.018l0.045,-0.017l0.045,-0.018l0.045,-0.018l0.045,-0.018l0.045,-0.018l0.044,-0.019l0.045,-0.018l0.044,-0.018l0.044,-0.019l0.044,-0.018l0.044,-0.018l0.044,-0.019l0.043,-0.018l0.043,-0.019l0.085,-0.036l0.083,-0.037l0.082,-0.035l0.08,-0.036l0.078,-0.035l0.076,-0.034l0.074,-0.034l0.071,-0.033l0.069,-0.031l0.067,-0.031l0.063,-0.03l0.06,-0.028l0.057,-0.027l0.054,-0.025l0.05,-0.024l0.046,-0.023l0.042,-0.02l0.039,-0.019l0.034,-0.017l0.01,-0.016l0.011,-0.015l0.011,-0.016l0.011,-0.014l0.011,-0.015l0.011,-0.015l0.011,-0.014l0.012,-0.014l0.012,-0.013l0.012,-0.014l0.012,-0.013l0.012,-0.013l0.013,-0.013l0.012,-0.012l0.013,-0.012l0.013,-0.012l0.013,-0.012l0.013,-0.012l0.013,-0.011l0.014,-0.011l0.013,-0.011l0.014,-0.011l0.014,-0.01l0.014,-0.01l0.014,-0.01l0.015,-0.01l0.014,-0.01l0.015,-0.009l0.014,-0.01l0.015,-0.009l0.015,-0.009l0.015,-0.008l0.015,-0.009l0.015,-0.008l0.016,-0.008l0.015,-0.008l0.016,-0.008l0.016,-0.008l0.015,-0.007l0.016,-0.008l0.016,-0.007l0.016,-0.007l0.017,-0.007l0.016,-0.007l0.016,-0.006l0.017,-0.007l0.016,-0.006l0.017,-0.006l0.017,-0.006l0.016,-0.006l0.017,-0.006l0.017,-0.006l0.017,-0.005l0.017,-0.006l0.018,-0.005l0.017,-0.005l0.017,-0.005l0.018,-0.005l0.017,-0.005l0.018,-0.005l0.017,-0.004l0.018,-0.005l0.018,-0.004l0.017,-0.005l0.018,-0.004l0.018,-0.004l0.036,-0.008l0.036,-0.008l0.036,-0.008l0.036,-0.007l0.036,-0.007l0.037,-0.007l0.036,-0.007l0.037,-0.007l0.037,-0.006l0.037,-0.006l0.036,-0.006l0.074,-0.013l0.073,-0.012l0.073,-0.012l0.037,-0.006l0.036,-0.006l0.036,-0.007l0.036,-0.006l0.036,-0.007l0.036,-0.007l0.035,-0.007l0.035,-0.007l0.035,-0.008l0.035,-0.008l0.018,-0.004l0.017,-0.004l0.017,-0.004l0.017,-0.004l0.017,-0.005l0.017,-0.004l0.017,-0.005l0.017,-0.004l0,-0.173l0.001,-0.173l0,-0.173l0,-0.173l0,-0.173l0,-0.173l0,-0.345l-0.002,-0.692l0,-0.346l-0.001,-0.173l0,-0.173l0,-0.172l0,-0.173l0.001,-0.173l0,-0.173l0.001,-0.173l0.001,-0.173l0.001,-0.173l0.001,-0.173l0.002,-0.172l0.002,-0.173l0.002,-0.173l0.002,-0.173l0.003,-0.173l0.002,-0.086l0.001,-0.087l0.002,-0.086l0.002,-0.087l0.002,-0.086l0.002,-0.087l0.001,-0.069l0.002,-0.069l0.001,-0.07l0.002,-0.069l0.002,-0.07l0.002,-0.069l0.002,-0.07l0.003,-0.069l0.002,-0.07l0.003,-0.069l0.003,-0.069l0.003,-0.07l0.003,-0.069l0.003,-0.07l0.003,-0.069l0.004,-0.069l0.004,-0.07l0.004,-0.069l0.004,-0.069l0.004,-0.07l0.004,-0.069l0.005,-0.069l0.004,-0.07l0.005,-0.069l0.005,-0.069l0.005,-0.07l0.006,-0.069l0.005,-0.069l0.006,-0.069l0.005,-0.07l0.006,-0.069l0.006,-0.069l0.007,-0.069l0.006,-0.069l0.007,-0.069l0.006,-0.069l0.007,-0.07l0.007,-0.069l0.007,-0.069l0.008,-0.069l0.007,-0.069l0.008,-0.069l0.008,-0.069l0.008,-0.069l0.008,-0.069l0.008,-0.069l0.009,-0.068l0.008,-0.069l0.009,-0.069l0.009,-0.069l0.009,-0.069l0.01,-0.069l0.009,-0.068l0.01,-0.069l0.01,-0.069l0.01,-0.068l0.01,-0.069l0.01,-0.069l0.01,-0.068l0.011,-0.069l0.011,-0.068l0.011,-0.069l0.011,-0.068l0.011,-0.069l0.012,-0.068l0.011,-0.069l0.012,-0.068l0.012,-0.068l0.012,-0.069l0.013,-0.068l0.012,-0.068l0.013,-0.069l0.012,-0.068l0.013,-0.068l0.014,-0.068l0.013,-0.068l0.013,-0.068l0.014,-0.068l0.014,-0.068l0.014,-0.068l0.014,-0.068l0.015,-0.068l0.014,-0.068l0.015,-0.067l0.015,-0.068l0.015,-0.068l0.015,-0.068l0.015,-0.067l0.016,-0.068l0.016,-0.067l0.016,-0.068l0.016,-0.068l0.016,-0.067l0.016,-0.067l0.017,-0.068l0.017,-0.067l0.017,-0.067l0.017,-0.068l0.017,-0.067l0.018,-0.067l0.018,-0.067l0.018,-0.067l0.018,-0.067l0.018,-0.067l0.018,-0.067l0.019,-0.067l0.019,-0.067l0.019,-0.067l0.019,-0.066l0.019,-0.067l0.02,-0.067l0.019,-0.066l0.02,-0.067l0.02,-0.066l0.021,-0.067l0.02,-0.066l0.021,-0.067l0.02,-0.066l0.021,-0.066l0.022,-0.066l0.021,-0.066l0.021,-0.067l0.022,-0.066l0.022,-0.066l0.022,-0.066l0.022,-0.065l0.023,-0.066l0.023,-0.066l0.007,0.056l0.006,0.057l0.007,0.056l0.007,0.057l0.006,0.056l0.006,0.057l0.007,0.056l0.006,0.057l0.006,0.056l0.006,0.057l0.005,0.056l0.006,0.057l0.005,0.056l0.006,0.057l0.005,0.056l0.005,0.057l0.005,0.057l0.005,0.056l0.005,0.057l0.005,0.056l0.005,0.057l0.004,0.056l0.004,0.057l0.005,0.056l0.004,0.057l0.004,0.056l0.004,0.057l0.004,0.057l0.004,0.056l0.003,0.057l0.004,0.056l0.003,0.057l0.004,0.056l0.003,0.057l0.003,0.057l0.003,0.056l0.003,0.057l0.003,0.056l0.003,0.057l0.003,0.056l0.003,0.057l0.002,0.057l0.005,0.113l0.004,0.113l0.005,0.113l0.003,0.114l0.004,0.113l0.003,0.113l0.003,0.113l0.002,0.114l0.003,0.113l0.001,0.113l0.002,0.113l0.001,0.114l0.002,0.113l0,0.113l0.001,0.114l0,0.113l0,0.113l0,0.114l0,0.113l-0.001,0.113l-0.001,0.114l-0.001,0.113l-0.001,0.114l-0.002,0.113l-0.001,0.113l-0.002,0.114l-0.002,0.113l-0.002,0.114l-0.003,0.113l-0.002,0.114l-0.003,0.113l-0.003,0.113l-0.003,0.114l-0.003,0.113l-0.003,0.114l-0.003,0.113l-0.004,0.114l-0.003,0.113l-0.004,0.114l-0.008,0.226l-0.007,0.227l-0.008,0.227l-0.009,0.227l-0.008,0.227l-0.008,0.227l-0.017,0.454l-0.009,0.227l-0.008,0.227l-0.008,0.227l-0.008,0.227l-0.007,0.227l-0.004,0.113l-0.003,0.114l-0.004,0.113l-0.003,0.114l-0.003,0.113l-0.003,0.114l-0.003,0.113l-0.003,0.114l-0.002,0.113l-0.003,0.114l-0.002,0.113l-0.002,0.114l-0.002,0.113l-0.002,0.113l-0.001,0.114l-0.002,0.113l-0.001,0.114l-0.001,0.113l-0.001,0.113l0,0.114l-0.001,0.113l0,0.114l0.001,0.113l0,0.113l0.001,0.114l0.001,0.113l0.001,0.114l0.001,0.113l0.002,0.113l0.002,0.114l0.002,0.113l0.003,0.113l0.003,0.114l0.003,0.113l0.004,0.113l0.004,0.113l0.004,0.114l0.005,0.113l0.005,0.113l0.003,0.057l0.002,0.056l0.003,0.057l0.003,0.057l0.003,0.056l0.003,0.057l0,0l0,0l0.007,0.043l0.007,0.044l0.007,0.043l0.004,0.022l0.004,0.022l0.004,0.022l0.004,0.021l0.005,0.022l0.004,0.022l0.005,0.021l0.004,0.022l0.005,0.021l0.005,0.022l0.005,0.021l0.006,0.022l0.005,0.021l0.006,0.021l0.006,0.022l0.006,0.021l0.006,0.021l0.007,0.021l0.007,0.021l0.007,0.021l0.007,0.02l0.008,0.021l0.008,0.021l0.008,0.02l0.008,0.021l0.009,0.02l0.008,0.011l0.008,0.011l0.008,0.011l0.008,0.011l0.008,0.01l0.008,0.01l0.008,0.01l0.008,0.01l0.007,0.009l0.008,0.01l0.008,0.009l0.008,0.009l0.008,0.008l0.008,0.009l0.008,0.008l0.007,0.008l0.008,0.008l0.008,0.007l0.008,0.008l0.008,0.007l0.007,0.007l0.008,0.007l0.008,0.006l0.008,0.007l0.007,0.006l0.008,0.006l0.008,0.006l0.007,0.005l0.008,0.006l0.008,0.005l0.007,0.005l0.008,0.005l0.007,0.005l0.008,0.004l0.008,0.004l0.007,0.005l0.008,0.004l0.007,0.003l0.008,0.004l0.007,0.003l0.008,0.003l0.007,0.003l0.008,0.003l0.007,0.003l0.007,0.003l0.008,0.002l0.007,0.002l0.008,0.002l0.007,0.002l0.007,0.002l0.008,0.001l0.007,0.001l0.007,0.002l0.007,0.001l0.008,0l0.007,0.001l0.007,0.001l0.007,0l0.007,0l0.008,0l0.007,0l0.007,0l0.007,0l0.007,-0.001l0.007,-0.001l0.007,-0.001l0.007,-0.001l0.007,-0.001l0.007,-0.001l0.007,-0.001l0.007,-0.002l0.007,-0.002l0.007,-0.002l0.007,-0.002l0.006,-0.002l0.007,-0.002l0.007,-0.002l0.007,-0.003l0.007,-0.002l0.006,-0.003l0.007,-0.003l0.007,-0.003l0.006,-0.003l0.007,-0.004l0.007,-0.003l0.006,-0.004l0.007,-0.003l0.006,-0.004l0.007,-0.004l0.007,-0.004l0.006,-0.004l0.007,-0.005l0.006,-0.004l0.006,-0.005l0.007,-0.004l0.006,-0.005l0.007,-0.005l0.006,-0.005l0.006,-0.005l0.007,-0.005l0.006,-0.005l0.006,-0.006l0.006,-0.005l0.006,-0.006l0.007,-0.005l0.006,-0.006l0.012,-0.012l0.012,-0.012l0.012,-0.013l0.012,-0.013l0.012,-0.013l0.011,-0.014l0.012,-0.014l0.011,-0.014l0.012,-0.015l0.011,-0.015l0.011,-0.015l0.011,-0.016l0.011,-0.016l0.011,-0.016l0.01,-0.016l0.011,-0.017l0.01,-0.017l0.011,-0.017l0.01,-0.018l0.01,-0.017l0.01,-0.018l0.01,-0.018l0.009,-0.018l0.01,-0.018l0.009,-0.019l0.01,-0.019l0.009,-0.018l0.009,-0.019l0.009,-0.019l0.009,-0.02l0.008,-0.019l0.009,-0.019l0.008,-0.02l0.008,-0.019l0.008,-0.02l0.008,-0.02l0.008,-0.019l0.008,-0.02l0.007,-0.02l0.007,-0.02l0.008,-0.02l0.007,-0.02l0.007,-0.02l0.006,-0.019l0.007,-0.02l0.006,-0.02l0.007,-0.02l0.006,-0.019l0.006,-0.02l0.006,-0.02l0.005,-0.019l0.006,-0.019l0.005,-0.02l0.005,-0.019l0.005,-0.019l0.005,-0.019l0.005,-0.019l0.004,-0.018l0.005,-0.019l0.004,-0.018l0.004,-0.018l0.004,-0.018l0.004,-0.018l0.003,-0.017l0.003,-0.018l0.003,-0.017l0.003,-0.017l0.003,-0.016l0.003,-0.017l0.002,-0.016l0.003,-0.015l0.002,-0.016l0.001,-0.015l0.002,-0.015l0.002,-0.015l0.01,-0.044l0.01,-0.044l0.011,-0.044l0.01,-0.044l0.009,-0.044l0.01,-0.044l0.01,-0.044l0.009,-0.044l0.01,-0.044l0.009,-0.044l0.009,-0.044l0.009,-0.044l0.009,-0.045l0.009,-0.044l0.009,-0.044l0.008,-0.044l0.009,-0.045l0.008,-0.044l0.008,-0.044l0.008,-0.045l0.009,-0.044l0.007,-0.044l0.008,-0.045l0.008,-0.044l0.008,-0.045l0.007,-0.044l0.008,-0.045l0.007,-0.044l0.007,-0.045l0.007,-0.044l0.007,-0.045l0.007,-0.044l0.014,-0.089l0.013,-0.09l0.013,-0.089l0.013,-0.089l0.012,-0.09l0.013,-0.089l0.011,-0.09l0.012,-0.089l0.011,-0.09l0.011,-0.09l0.011,-0.089l0.011,-0.09l0.01,-0.09l0.01,-0.089l0.01,-0.09l0.01,-0.09l0.01,-0.09l0.009,-0.09l0.01,-0.09l0.009,-0.09l0.009,-0.09l0.009,-0.09l0.018,-0.18l0.017,-0.18l0.018,-0.18l0.034,-0.36l0.018,-0.18l0.017,-0.18l0.009,-0.09l0.009,-0.089l0.009,-0.09l0.01,-0.09l0.009,-0.09l0.009,-0.09l0.01,-0.09l0.01,-0.089l0.01,-0.09l0.01,-0.09l0.01,-0.089l0.011,-0.09l0.006,-0.078l0.007,-0.078l0.007,-0.079l0.007,-0.078l0.007,-0.079l0.007,-0.078l0.008,-0.078l0.007,-0.079l0.008,-0.078l0.008,-0.078l0.008,-0.079l0.008,-0.078l0.008,-0.078l0.008,-0.079l0.008,-0.078l0.009,-0.078l0.008,-0.079l0.009,-0.078l0.017,-0.156l0.018,-0.157l0.018,-0.156l0.018,-0.157l0.019,-0.156l0.019,-0.157l0.019,-0.156l0.02,-0.156l0.019,-0.157l0.02,-0.156l0.02,-0.156l0.02,-0.157l0.02,-0.156l0.04,-0.312l0.041,-0.313l0.04,-0.313l0.02,-0.156l0.02,-0.156l0.02,-0.156l0.02,-0.157l0.019,-0.156l0.02,-0.156l0.019,-0.157l0.019,-0.156l0.019,-0.156l0.018,-0.157l0.018,-0.156l0.018,-0.157l0.018,-0.156l0.008,-0.079l0.009,-0.078l0.008,-0.078l0.009,-0.078l0.008,-0.079l0.008,-0.078l0.008,-0.078l0.008,-0.078l0.008,-0.079l0.008,-0.078l0.007,-0.078l0.008,-0.079l0.007,-0.078l0.007,-0.078l0.007,-0.079l0.007,-0.078l0.007,-0.079l0.007,-0.078l0.006,-0.078l0.007,-0.079l0.006,-0.078l0.006,-0.079l0.006,-0.078l0.006,-0.079l0.005,-0.078l0.006,-0.079l0.005,-0.078l0.005,-0.079l0.005,-0.078l0.005,-0.079l0.004,-0.078l0.005,-0.079l0.004,-0.078l0.004,-0.079l0.004,-0.079l0.004,-0.078l0.003,-0.079l0.004,-0.079l0.003,-0.078l0.003,-0.079l0.002,-0.079l0.003,-0.078l0.002,-0.079l0.002,-0.079l0.002,-0.079l0.002,-0.079l-0.005,-0.015l-0.005,-0.015l-0.004,-0.015l-0.005,-0.015l-0.004,-0.015l-0.004,-0.015l-0.004,-0.015l-0.004,-0.014l-0.004,-0.015l-0.004,-0.015l-0.003,-0.015l-0.003,-0.015l-0.004,-0.014l-0.003,-0.015l-0.002,-0.014l-0.003,-0.015l-0.003,-0.015l-0.002,-0.014l-0.003,-0.015l-0.002,-0.014l-0.002,-0.014l-0.002,-0.015l-0.002,-0.014l-0.002,-0.014l-0.001,-0.015l-0.002,-0.014l-0.001,-0.014l-0.001,-0.014l-0.001,-0.014l-0.001,-0.014l-0.001,-0.014l-0.001,-0.014l0,-0.014l-0.001,-0.014l0,-0.014l0,-0.014l0,-0.014l0,-0.014l0,-0.014l0,-0.014l0.001,-0.013l0,-0.014l0.001,-0.014l0,-0.013l0.001,-0.014l0.001,-0.014l0.001,-0.013l0.002,-0.014l0.001,-0.013l0.001,-0.014l0.002,-0.013l0.001,-0.013l0.002,-0.014l0.002,-0.013l0.002,-0.014l0.002,-0.013l0.002,-0.013l0.002,-0.013l0.003,-0.014l0.002,-0.013l0.003,-0.013l0.002,-0.013l0.003,-0.013l0.003,-0.013l0.003,-0.013l0.003,-0.013l0.003,-0.013l0.003,-0.013l0.004,-0.013l0.003,-0.013l0.004,-0.013l0.003,-0.013l0.004,-0.013l0.004,-0.012l0.004,-0.013l0.004,-0.013l0.004,-0.013l0.004,-0.012l0.004,-0.013l0.004,-0.013l0.009,-0.025l0.01,-0.025l0.009,-0.025l0.01,-0.025l0.01,-0.025l0.011,-0.025l0.011,-0.025l0.011,-0.024l0.011,-0.025l0.012,-0.024l0.012,-0.025l0.012,-0.024l0.013,-0.024l0.013,-0.024l0.013,-0.024l0.013,-0.024l0.014,-0.024l0.013,-0.024l0.015,-0.024l0.014,-0.023l0.014,-0.024l0.015,-0.023l0.015,-0.024l0.015,-0.023l0.015,-0.024l0.016,-0.023l0.016,-0.023l0.015,-0.023l0.016,-0.023l0.017,-0.023l0.016,-0.023l0.016,-0.023l0.017,-0.023l0.017,-0.023l0.017,-0.023l0.017,-0.022l0.017,-0.023l0.017,-0.023l0.018,-0.022l0.017,-0.023l0.018,-0.022l0.017,-0.023l0.036,-0.045l0.036,-0.044l0.036,-0.045l0.036,-0.044l0.037,-0.044l0.037,-0.044l0.036,-0.045l0.073,-0.087l0.037,-0.044l0.036,-0.044l0.036,-0.044l0.036,-0.044l0.035,-0.043l0.035,-0.044l0.035,-0.044l0.017,-0.022l0.018,-0.022l0.016,-0.021l0.017,-0.022l0.017,-0.022l0.017,-0.022l0.016,-0.022l0.016,-0.022l0.016,-0.022l0.016,-0.022l0.016,-0.022l0.016,-0.022l0.015,-0.022l0.015,-0.022l0.012,-0.012l0.012,-0.012l0.012,-0.013l0.012,-0.012l0.011,-0.012l0.012,-0.012l0.011,-0.013l0.011,-0.012l0.011,-0.013l0.011,-0.012l0.011,-0.013l0.01,-0.012l0.011,-0.013l0.01,-0.012l0.01,-0.013l0.01,-0.013l0.01,-0.012l0.01,-0.013l0.009,-0.013l0.01,-0.013l0.009,-0.013l0.009,-0.012l0.009,-0.013l0.009,-0.013l0.009,-0.013l0.008,-0.013l0.009,-0.013l0.008,-0.013l0.008,-0.013l0.008,-0.013l0.008,-0.014l0.008,-0.013l0.008,-0.013l0.007,-0.013l0.008,-0.013l0.007,-0.014l0.007,-0.013l0.007,-0.013l0.007,-0.014l0.007,-0.013l0.007,-0.013l0.006,-0.014l0.007,-0.013l0.006,-0.014l0.006,-0.013l0.006,-0.014l0.006,-0.013l0.006,-0.014l0.006,-0.014l0.005,-0.013l0.006,-0.014l0.005,-0.013l0.005,-0.014l0.006,-0.014l0.005,-0.014l0.004,-0.013l0.005,-0.014l0.005,-0.014l0.004,-0.014l0.005,-0.014l0.004,-0.014l0.004,-0.014l0.004,-0.013l0.004,-0.014l0.004,-0.014l0.004,-0.014l0.004,-0.014l0.003,-0.014l0.004,-0.014l0.003,-0.015l0.003,-0.014l0.003,-0.014l0.003,-0.014l0.003,-0.014l0.003,-0.014l0.003,-0.014l0.003,-0.015l0.002,-0.014l0.002,-0.014l0.003,-0.014l0.002,-0.015l0.002,-0.014l0.002,-0.014l0.002,-0.014l0.002,-0.015l0.002,-0.014l0.001,-0.014l0.002,-0.015l0.001,-0.014l0.002,-0.015l0.001,-0.014l0.001,-0.015l0.001,-0.014l0.001,-0.014l0.001,-0.015l0.001,-0.014l0.001,-0.029l0.001,-0.03l0.001,-0.029l0,-0.029l0,-0.029l0,-0.029l-0.001,-0.03l-0.001,-0.029l-0.002,-0.029l-0.001,-0.03l-0.002,-0.029l-0.002,-0.03l-0.003,-0.029l-0.003,-0.03l-0.003,-0.029l-0.003,-0.03l-0.004,-0.03l-0.004,-0.029l-0.004,-0.03l-0.005,-0.03l-0.004,-0.029l-0.005,-0.03l-0.006,-0.03l-0.005,-0.029l-0.006,-0.03l-0.006,-0.03l-0.006,-0.03l-0.006,-0.029l-0.007,-0.03l-0.007,-0.03l-0.007,-0.029l-0.007,-0.03l-0.007,-0.03l-0.008,-0.03l-0.007,-0.029l-0.008,-0.03l-0.008,-0.03l-0.009,-0.029l-0.008,-0.03l-0.009,-0.03l-0.009,-0.029l-0.008,-0.03l-0.01,-0.029l-0.009,-0.03l-0.009,-0.029l-0.009,-0.03l-0.01,-0.029l-0.01,-0.029l-0.01,-0.03l-0.009,-0.029l-0.01,-0.029l-0.011,-0.029l-0.01,-0.03l-0.01,-0.029l-0.01,-0.029l-0.011,-0.029l-0.021,-0.058l-0.021,-0.057l-0.022,-0.058l-0.022,-0.057l-0.021,-0.057l-0.022,-0.056l-0.022,-0.056l-0.022,-0.056l-0.044,-0.111l-0.043,-0.109l-0.013,-0.024l-0.013,-0.023l-0.012,-0.024l-0.012,-0.024l-0.013,-0.024l-0.012,-0.024l-0.012,-0.024l-0.011,-0.025l-0.012,-0.025l-0.012,-0.025l-0.011,-0.025l-0.012,-0.026l-0.011,-0.025l-0.012,-0.026l-0.011,-0.026l-0.011,-0.026l-0.011,-0.026l-0.011,-0.026l-0.011,-0.027l-0.011,-0.026l-0.011,-0.027l-0.011,-0.027l-0.021,-0.054l-0.021,-0.054l-0.022,-0.055l-0.021,-0.055l-0.021,-0.055l-0.042,-0.111l-0.042,-0.111l-0.022,-0.056l-0.021,-0.056l-0.022,-0.056l-0.022,-0.056l-0.022,-0.055l-0.011,-0.028l-0.011,-0.028l-0.012,-0.027l-0.011,-0.028l-0.011,-0.027l-0.012,-0.028l-0.012,-0.027l-0.011,-0.027l-0.012,-0.027l-0.012,-0.027l-0.012,-0.027l-0.013,-0.027l-0.012,-0.027l-0.013,-0.026l-0.012,-0.027l-0.013,-0.026l-0.013,-0.026l-0.013,-0.026l-0.013,-0.026l-0.013,-0.026l-0.014,-0.026l-0.013,-0.025l-0.014,-0.025l-0.014,-0.025l-0.014,-0.025l-0.014,-0.025l-0.015,-0.024l-0.014,-0.025l-0.015,-0.024l-0.015,-0.024l-0.016,-0.023l-0.015,-0.024l-0.016,-0.023l-0.015,-0.023l-0.016,-0.023l-0.017,-0.022l-0.016,-0.023l-0.017,-0.022l-0.017,-0.022l-0.017,-0.021l-0.017,-0.021l-0.009,-0.011l-0.009,-0.01l-0.009,-0.011l-0.009,-0.01l-0.009,-0.01l-0.009,-0.01l-0.009,-0.01l-0.009,-0.01l-0.01,-0.01l-0.009,-0.01l-0.009,-0.01l-0.01,-0.01l-0.009,-0.009l-0.01,-0.01l-0.01,-0.009l-0.009,-0.01l-0.01,-0.009l-0.01,-0.009l-0.01,-0.009l-0.01,-0.009l-0.01,-0.009l-0.01,-0.009l-0.011,-0.009l-0.01,-0.009l-0.01,-0.008l-0.011,-0.009l-0.01,-0.008l-0.011,-0.009l-0.011,-0.008l-0.01,-0.008l-0.011,-0.008l-0.011,-0.008l-0.011,-0.008l-0.011,-0.008l-0.011,-0.008l-0.011,-0.007l-0.012,-0.008l-0.011,-0.007l-0.011,-0.008l-0.012,-0.007l-0.012,-0.007l-0.011,-0.007l-0.012,-0.007l-0.012,-0.007l-0.012,-0.007l-0.012,-0.007l-0.012,-0.006l-0.012,-0.007l-0.012,-0.006l-0.013,-0.006l-0.012,-0.006l-0.013,-0.006l-0.012,-0.006l-0.013,-0.006l-0.013,-0.006l-0.013,-0.006l-0.013,-0.005l-0.013,-0.005l-0.013,-0.006l-0.013,-0.005l-0.013,-0.005l-0.014,-0.005l-0.013,-0.005l-0.014,-0.005l-0.014,-0.004l-0.013,-0.005l-0.014,-0.004l-0.014,-0.004l-0.014,-0.004l-0.015,-0.004l-0.014,-0.004l-0.014,-0.004l-0.015,-0.004l-0.014,-0.003l-0.013,-0.01l-0.013,-0.01l-0.013,-0.011l-0.013,-0.01l-0.012,-0.01l-0.013,-0.01l-0.012,-0.011l-0.012,-0.01l-0.012,-0.011l-0.012,-0.01l-0.012,-0.011l-0.012,-0.011l-0.011,-0.01l-0.012,-0.011l-0.011,-0.011l-0.011,-0.011l-0.011,-0.011l-0.011,-0.011l-0.011,-0.011l-0.011,-0.011l-0.011,-0.012l-0.01,-0.011l-0.011,-0.011l-0.01,-0.012l-0.01,-0.011l-0.01,-0.012l-0.01,-0.011l-0.01,-0.012l-0.01,-0.012l-0.01,-0.011l-0.009,-0.012l-0.01,-0.012l-0.009,-0.012l-0.01,-0.012l-0.009,-0.012l-0.009,-0.012l-0.009,-0.012l-0.009,-0.012l-0.008,-0.013l-0.009,-0.012l-0.009,-0.012l-0.008,-0.013l-0.008,-0.012l-0.009,-0.012l-0.008,-0.013l-0.008,-0.013l-0.008,-0.012l-0.008,-0.013l-0.007,-0.013l-0.008,-0.012l-0.008,-0.013l-0.007,-0.013l-0.008,-0.013l-0.007,-0.013l-0.007,-0.013l-0.007,-0.013l-0.007,-0.013l-0.007,-0.013l-0.007,-0.013l-0.007,-0.014l-0.007,-0.013l-0.006,-0.013l-0.007,-0.014l-0.006,-0.013l-0.006,-0.013l-0.007,-0.014l-0.006,-0.013l-0.006,-0.014l-0.006,-0.014l-0.006,-0.013l-0.006,-0.014l-0.005,-0.014l-0.012,-0.027l-0.011,-0.028l-0.01,-0.028l-0.011,-0.028l-0.01,-0.028l-0.009,-0.028l-0.01,-0.029l-0.009,-0.028l-0.009,-0.029l-0.008,-0.029l-0.009,-0.029l-0.008,-0.029l-0.008,-0.029l-0.007,-0.029l-0.007,-0.03l-0.008,-0.029l-0.006,-0.03l-0.007,-0.03l-0.006,-0.029l-0.006,-0.03l-0.006,-0.03l-0.006,-0.031l-0.005,-0.03l-0.006,-0.03l-0.005,-0.03l-0.004,-0.031l-0.005,-0.03l-0.004,-0.031l-0.005,-0.031l-0.004,-0.031l-0.004,-0.03l-0.003,-0.031l-0.004,-0.031l-0.003,-0.031l-0.004,-0.031l-0.003,-0.031l-0.003,-0.031l-0.003,-0.032l-0.002,-0.031l-0.003,-0.031l-0.002,-0.031l-0.003,-0.032l-0.002,-0.031l-0.002,-0.031l-0.002,-0.032l-0.002,-0.031l-0.002,-0.032l-0.002,-0.031l-0.003,-0.063l-0.003,-0.063l-0.002,-0.063l-0.003,-0.063l-0.002,-0.063l-0.002,-0.063l-0.004,-0.125l-0.004,-0.125l-0.002,-0.062l-0.002,-0.061l-0.002,-0.062l-0.002,-0.061l-0.003,-0.061l-0.003,-0.061l-0.003,-0.06l-0.001,-0.03l-0.002,-0.03l-0.002,-0.03l-0.002,-0.03l-0.002,-0.029l-0.002,-0.03l-0.002,-0.029l-0.003,-0.03l-0.002,-0.029l-0.003,-0.029l0.002,-0.014l0.001,-0.014l0.001,-0.014l0.001,-0.014l0.001,-0.014l0.001,-0.014l0.001,-0.014l0,-0.014l0.001,-0.014l0,-0.015l0,-0.014l0,-0.014l0,-0.014l0,-0.014l0,-0.014l0,-0.014l-0.001,-0.014l-0.001,-0.014l0,-0.014l-0.001,-0.015l-0.001,-0.014l-0.001,-0.014l-0.001,-0.014l-0.001,-0.014l-0.002,-0.014l-0.001,-0.014l-0.002,-0.014l-0.002,-0.014l-0.002,-0.014l-0.001,-0.014l-0.003,-0.014l-0.002,-0.014l-0.002,-0.014l-0.002,-0.014l-0.003,-0.014l-0.002,-0.014l-0.003,-0.014l-0.003,-0.014l-0.003,-0.013l-0.003,-0.014l-0.003,-0.014l-0.003,-0.014l-0.003,-0.014l-0.004,-0.013l-0.003,-0.014l-0.004,-0.014l-0.004,-0.013l-0.004,-0.014l-0.004,-0.014l-0.004,-0.013l-0.004,-0.014l-0.004,-0.013l-0.004,-0.014l-0.005,-0.013l-0.004,-0.014l-0.005,-0.013l-0.004,-0.013l-0.005,-0.014l-0.005,-0.013l-0.005,-0.013l-0.005,-0.014l-0.005,-0.013l-0.006,-0.013l-0.005,-0.013l-0.005,-0.013l-0.006,-0.013l-0.006,-0.013l-0.005,-0.013l-0.006,-0.013l-0.006,-0.013l-0.006,-0.012l-0.006,-0.013l-0.006,-0.013l-0.006,-0.013l-0.007,-0.012l-0.006,-0.013l-0.007,-0.012l-0.006,-0.013l-0.007,-0.012l-0.007,-0.012l-0.007,-0.013l-0.007,-0.012l-0.007,-0.012l-0.007,-0.012l-0.007,-0.012l-0.007,-0.012l-0.007,-0.012l-0.008,-0.012l-0.007,-0.012l-0.008,-0.012l-0.007,-0.011l-0.008,-0.012l-0.008,-0.011l-0.008,-0.012l-0.008,-0.011l-0.008,-0.012l-0.008,-0.011l-0.008,-0.011l-0.008,-0.012l-0.009,-0.011l-0.008,-0.011l-0.009,-0.011l-0.008,-0.011l-0.009,-0.01l-0.008,-0.011l-0.009,-0.011l-0.009,-0.01l-0.009,-0.011l-0.009,-0.01l-0.009,-0.011l-0.009,-0.01l-0.009,-0.01l-0.009,-0.01l-0.01,-0.01l-0.009,-0.01l-0.009,-0.01l-0.01,-0.01l-0.009,-0.01l-0.01,-0.009l-0.01,-0.01l-0.01,-0.009l-0.009,-0.01l-0.01,-0.009l-0.01,-0.009l-0.01,-0.009l-0.01,-0.009l-0.01,-0.009l-0.01,-0.009l-0.011,-0.009l-0.01,-0.008l-0.01,-0.009l-0.011,-0.008l-0.01,-0.009l-0.011,-0.008l-0.01,-0.008l-0.011,-0.008l-0.011,-0.008l-0.01,-0.008l-0.011,-0.008l-0.011,-0.007l-0.011,-0.008l-0.011,-0.007l-0.011,-0.008l-0.011,-0.007l-0.011,-0.007l-0.011,-0.007l-0.011,-0.007l-0.011,-0.007l-0.012,-0.006l-0.011,-0.007l-0.011,-0.006l-0.012,-0.007l-0.011,-0.006l-0.012,-0.006l-0.011,-0.006l-0.012,-0.006l-0.012,-0.006l-0.011,-0.006l-0.012,-0.005l-0.012,-0.006l-0.012,-0.005l-0.012,-0.005l-0.011,-0.005l-0.012,-0.005l-0.012,-0.005l-0.012,-0.005l-0.013,-0.004l-0.012,-0.005l-0.012,-0.004l-0.012,-0.004l-0.012,-0.004l-0.012,-0.004l-0.013,-0.004l-0.012,-0.004l-0.012,-0.003l-0.013,-0.004l-0.012,-0.003l-0.013,-0.003l-0.012,-0.003l-0.013,-0.003l-0.012,-0.003l-0.013,-0.003l-0.012,-0.002l-0.013,-0.002l-0.013,-0.003l-0.012,-0.002l-0.013,-0.002l-0.013,-0.001l-0.013,-0.002l-0.013,-0.002l-0.012,-0.001l-0.013,-0.001l-0.013,-0.001l-0.013,-0.001l-0.013,-0.001l-0.013,-0.001l-0.013,0l-0.013,0l-0.013,-0.001l-0.013,0l-0.013,0Zm2.25,31.167l0.002,-0.01l0,0l-0.002,0.01Zm0.005,-0.034l-0.003,0.024l0.002,-0.006l0.004,-0.043l-0.003,0.025Zm-5.947,-13.483l0.003,0.001l0.004,0l0.004,0.001l0.003,0.001l0.004,0.001l0.004,0.001l0.004,0.001l0.005,0.002l0.004,0.001l0.004,0.002l0.005,0.002l0.004,0.002l0.005,0.003l0.005,0.002l0.004,0.003l0.005,0.003l0.005,0.003l0.005,0.004l0.005,0.003l0.006,0.004l0.005,0.004l0.005,0.004l0.006,0.005l0.006,0.004l0.005,0.005l0.006,0.005l0.052,0.187l0,0.029l0,0.028l-0.001,0.027l-0.001,0.026l-0.001,0.025l-0.001,0.023l-0.001,0.023l-0.002,0.022l-0.001,0.02l-0.002,0.02l-0.002,0.018l-0.002,0.018l-0.002,0.016l-0.003,0.016l-0.002,0.015l-0.003,0.013l-0.003,0.013l-0.003,0.012l-0.003,0.011l-0.003,0.01l-0.001,0.005l-0.002,0.005l-0.002,0.004l-0.001,0.004l-0.002,0.004l-0.002,0.004l-0.002,0.004l-0.001,0.003l-0.002,0.003l-0.002,0.003l-0.002,0.003l-0.002,0.003l-0.002,0.002l-0.001,0.002l-0.002,0.002l-0.002,0.002l-0.002,0.002l-0.002,0.001l-0.002,0.001l-0.002,0.002l-0.002,0.001l-0.002,0l-0.002,0.001l-0.002,0l-0.002,0.001l-0.003,0l-0.002,0l-0.002,0l-0.002,-0.001l-0.002,0l-0.002,-0.001l-0.002,-0.001l-0.003,-0.001l-0.002,-0.001l-0.002,-0.001l-0.002,-0.001l-0.002,-0.002l-0.002,-0.001l-0.003,-0.002l-0.002,-0.002l-0.002,-0.002l-0.002,-0.002l-0.005,-0.005l-0.004,-0.005l-0.005,-0.006l-0.004,-0.006l-0.005,-0.007l-0.004,-0.007l-0.004,-0.008l-0.005,-0.008l-0.004,-0.008l-0.005,-0.009l-0.004,-0.009l-0.004,-0.009l-0.004,-0.01l-0.005,-0.01l-0.004,-0.01l-0.004,-0.011l-0.004,-0.011l-0.004,-0.011l-0.004,-0.011l-0.003,-0.012l-0.004,-0.012l-0.004,-0.012l-0.003,-0.012l-0.004,-0.012l-0.003,-0.012l-0.003,-0.013l-0.004,-0.013l-0.003,-0.012l-0.003,-0.013l-0.002,-0.013l-0.003,-0.013l-0.003,-0.013l-0.002,-0.013l-0.002,-0.013l-0.002,-0.013l-0.002,-0.013l-0.002,-0.012l-0.002,-0.013l-0.001,-0.013l-0.002,-0.012l-0.001,-0.013l-0.001,-0.012l-0.001,-0.013l-0.001,-0.012l0,-0.011l0,-0.012l0,-0.012l0,-0.011l0,-0.011l0.001,-0.011l0,-0.01l0.001,-0.01l0.002,-0.01l0.001,-0.01l0.002,-0.009l0.002,-0.009l0.002,-0.008l0.002,-0.008l0.001,-0.004l0.002,-0.004l0.001,-0.004l0.002,-0.003l0.001,-0.004l0.002,-0.003l0.001,-0.004l0.002,-0.003l0.002,-0.003l0.002,-0.003l0.002,-0.003l0.002,-0.002l0.002,-0.003l0.002,-0.002l0.002,-0.003l0.003,-0.002l0.002,-0.002l0.002,-0.002l0.003,-0.002l0.003,-0.001l0.002,-0.002l0.003,-0.001l0.003,-0.001l0.003,-0.001l0.003,-0.001l0.003,-0.001l0.003,-0.001l0.003,0l0.003,-0.001l0.004,0l0.003,0l0.004,0Zm0.843,-3.607l0.001,0.002l0.003,0.008l0.002,0.007l0.003,0.008l0.002,0.009l0.003,0.008l0.002,0.009l-0.003,0.024l-0.002,0.025l-0.003,0.024l-0.003,0.024l-0.003,0.025l-0.003,0.024l-0.004,0.024l-0.003,0.025l-0.003,0.024l-0.004,0.024l-0.004,0.024l-0.004,0.025l-0.004,0.024l-0.004,0.024l-0.004,0.024l-0.004,0.024l-0.005,0.024l-0.004,0.024l-0.005,0.024l-0.005,0.025l-0.004,0.024l-0.005,0.024l-0.005,0.024l-0.005,0.024l-0.006,0.023l-0.005,0.024l-0.011,0.048l-0.011,0.048l-0.011,0.048l-0.012,0.047l-0.012,0.048l-0.013,0.047l-0.013,0.048l-0.012,0.047l-0.014,0.047l-0.013,0.048l-0.014,0.047l-0.014,0.047l-0.014,0.047l-0.014,0.047l-0.015,0.047l-0.014,0.046l-0.015,0.047l-0.015,0.047l-0.015,0.046l-0.014,0.05l-0.013,0.049l-0.013,0.046l-0.013,0.045l-0.013,0.043l-0.006,0.02l-0.006,0.02l-0.006,0.019l-0.006,0.019l-0.006,0.018l-0.006,0.018l-0.006,0.017l-0.005,0.016l-0.006,0.015l-0.005,0.015l-0.006,0.014l-0.005,0.013l-0.005,0.013l-0.005,0.012l-0.005,0.01l-0.005,0.011l-0.004,0.009l-0.005,0.008l-0.004,0.008l-0.002,0.003l-0.002,0.004l-0.003,0.003l-0.002,0.002l-0.002,0.003l-0.002,0.002l-0.002,0.002l-0.002,0.002l-0.002,0.002l-0.001,0.001l-0.002,0.001l-0.002,0.001l-0.002,0.001l-0.002,0l-0.001,0l-0.002,0l-0.002,0l-0.001,-0.001l-0.002,-0.001l-0.001,-0.001l-0.002,-0.001l-0.001,-0.002l-0.002,-0.002l-0.001,-0.002l-0.001,-0.003l-0.002,-0.003l-0.001,-0.003l-0.001,-0.003l-0.001,-0.004l-0.001,-0.004l-0.001,-0.004l-0.002,-0.004l-0.001,-0.005l-0.001,-0.005l-0.001,-0.011l-0.002,-0.013l-0.002,-0.013l-0.001,-0.015l-0.001,-0.016l-0.001,-0.017l-0.001,-0.019l0,-0.019l-0.001,-0.022l0,-0.022l0,-0.024l0,-0.025l0,-0.027l0.001,-0.028l0.001,-0.03l0.001,-0.031l0.001,-0.032l0.001,-0.034l-0.002,-0.006l-0.002,-0.006l-0.002,-0.006l-0.002,-0.006l-0.002,-0.006l-0.002,-0.007l-0.002,-0.006l-0.001,-0.007l-0.002,-0.007l-0.002,-0.006l-0.003,-0.015l-0.002,-0.014l-0.003,-0.015l-0.002,-0.015l-0.002,-0.016l-0.002,-0.016l-0.001,-0.017l-0.001,-0.017l-0.001,-0.017l-0.001,-0.018l-0.001,-0.018l0,-0.018l0,-0.019l0,-0.019l0.001,-0.019l0,-0.019l0.001,-0.02l0.001,-0.02l0.001,-0.02l0.002,-0.021l0.001,-0.02l0.002,-0.021l0.002,-0.022l0.002,-0.021l0.003,-0.021l0.002,-0.022l0.003,-0.022l0.003,-0.022l0.003,-0.022l0.003,-0.022l0.003,-0.022l0.004,-0.023l0.004,-0.022l0.004,-0.023l0.004,-0.022l0.004,-0.023l0.004,-0.022l0.005,-0.023l0.004,-0.023l0.005,-0.023l0.005,-0.022l0.005,-0.023l0.005,-0.023l0.005,-0.022l0.006,-0.023l0.005,-0.022l0.006,-0.023l0.005,-0.022l0.006,-0.022l0.006,-0.022l0.006,-0.022l0.006,-0.022l0.006,-0.022l0.007,-0.022l0.006,-0.021l0.007,-0.021l0.006,-0.021l0.007,-0.021l0.007,-0.021l0.006,-0.02l0.007,-0.02l0.007,-0.02l0.007,-0.019l0.007,-0.02l0.007,-0.019l0.007,-0.019l0.008,-0.018l0.007,-0.018l0.007,-0.018l0.007,-0.017l0.008,-0.017l0.007,-0.017l0.008,-0.017l0.007,-0.015l0.008,-0.016l0.007,-0.015l0.008,-0.015l0.007,-0.014l0.008,-0.014l0.007,-0.013l0.008,-0.013l0.007,-0.013l0.008,-0.012l0.003,-0.005l0.245,0.013Zm0.016,0.051l0,0l0,0l0,0l0,0Zm-0.122,-0.177l0.004,0.001l0.003,0l0.004,0.001l0.003,0.001l0.003,0.001l0.004,0.001l0.003,0.001l0.003,0.002l0.004,0.001l0.003,0.002l0.003,0.003l0.003,0.002l0.003,0.003l0.004,0.002l0.003,0.003l0.003,0.003l0.003,0.004l0.003,0.003l0.003,0.004l0.003,0.004l0.003,0.004l0.003,0.005l0.002,0.002l-0.187,0.026l0.002,-0.003l0.008,-0.01l0.007,-0.008l0.004,-0.004l0.004,-0.005l0.003,-0.003l0.004,-0.004l0.004,-0.004l0.003,-0.003l0.004,-0.003l0.004,-0.003l0.003,-0.003l0.004,-0.003l0.004,-0.003l0.003,-0.002l0.004,-0.003l0.004,-0.002l0.003,-0.002l0.004,-0.002l0.003,-0.001l0.004,-0.002l0.004,-0.001l0.003,-0.001l0.004,-0.001l0.003,-0.001l0.004,-0.001l0.003,0l0.004,-0.001l0.003,0l0.003,0Zm8.188,-1.19l-0.013,0.018l-0.014,0.016l-0.017,0.017l-0.018,0.018l0.046,-0.045l0.003,-0.006l0.002,-0.002l0.03,-0.043l-0.019,0.027Zm-2.572,-4.52l0.021,0.019l0.021,0.019l0.022,0.02l0.021,0.02l0.021,0.019l0.022,0.02l0.021,0.021l0.021,0.02l0.021,0.021l0.021,0.02l0.021,0.021l0.021,0.022l0.021,0.021l0.021,0.021l0.021,0.022l0.021,0.022l0.02,0.022l0.021,0.022l0.02,0.023l0.02,0.022l0.021,0.023l0.02,0.023l0.02,0.023l0.02,0.023l0.02,0.023l0.019,0.024l0.02,0.023l0.019,0.024l0.02,0.024l0.019,0.024l0.019,0.025l0.019,0.024l0.019,0.024l0.018,0.025l0.019,0.025l0.018,0.025l0.018,0.025l0.018,0.025l0.018,0.026l0.018,0.025l0.017,0.026l0.017,0.025l0.018,0.026l0.016,0.026l0.017,0.026l0.017,0.026l0.016,0.027l0.016,0.026l0.016,0.027l0.016,0.026l0.015,0.027l0.015,0.027l0.015,0.027l0.015,0.027l0.014,0.027l0.015,0.027l0.014,0.027l0.013,0.028l0.014,0.027l0.013,0.028l0.013,0.027l0.013,0.028l0.012,0.028l0.012,0.028l0.012,0.028l0.012,0.028l0.011,0.028l0.011,0.028l0.011,0.029l0.01,0.028l0.01,0.028l0.01,0.029l0.01,0.028l0.009,0.029l0.008,0.029l0.009,0.028l0.008,0.029l0.008,0.029l0.007,0.029l0.008,0.029l0.006,0.029l0.007,0.029l0.006,0.029l0.003,0.014l0.003,0.015l0.002,0.014l0.003,0.015l0.003,0.014l0.002,0.015l0.002,0.015l0.003,0.014l0.002,0.015l0.002,0.014l0.002,0.015l0.002,0.015l0.002,0.014l0.001,0.015l0.002,0.015l0.001,0.014l0.002,0.015l0.001,0.015l0.001,0.014l0.001,0.015l0.001,0.015l0.001,0.014l0.001,0.015l0.001,0.015l0,0.014l0.001,0.015l0,0.015l0.001,0.014l0,0.015l0,0.015l0,0.015l0,0.014l-0.001,0.015l0,0.015l0,0.014l-0.001,0.015l-0.001,0.015l0,0.015l-0.001,0.014l-0.001,0.015l-0.002,0.015l-0.001,0.014l-0.001,0.015l-0.002,0.015l-0.001,0.015l-0.002,0.014l-0.002,0.015l-0.002,0.015l-0.002,0.015l-0.002,0.014l-0.002,0.015l-0.002,0.015l-0.003,0.014l-0.003,0.015l-0.002,0.015l-0.003,0.014l-0.003,0.015l-0.003,0.015l-0.003,0.014l-0.004,0.015l-0.003,0.015l-0.004,0.014l-0.003,0.015l-0.004,0.015l-0.004,0.014l-0.004,0.015l-0.005,0.015l-0.004,0.014l-0.004,0.015l-0.005,0.015l-0.005,0.014l-0.004,0.015l-0.005,0.014l-0.005,0.015l-0.006,0.015l-0.005,0.014l-0.005,0.015l-0.006,0.014l-0.006,0.015l-0.006,0.014l-0.006,0.015l-0.006,0.014l-0.006,0.015l-0.006,0.014l-0.007,0.015l-0.007,0.014l-0.007,0.015l-0.006,0.014l0,0l-0.005,0.019l-0.006,0.018l-0.005,0.018l-0.005,0.018l-0.005,0.018l-0.006,0.017l-0.005,0.017l-0.006,0.017l-0.005,0.016l-0.006,0.017l-0.006,0.016l-0.005,0.015l-0.006,0.016l-0.006,0.015l-0.006,0.015l-0.006,0.015l-0.006,0.014l-0.007,0.014l-0.006,0.014l-0.006,0.014l-0.007,0.014l-0.006,0.013l-0.007,0.013l-0.006,0.013l-0.007,0.012l-0.006,0.013l-0.007,0.012l-0.007,0.011l-0.007,0.012l-0.007,0.011l-0.007,0.011l-0.007,0.011l-0.007,0.011l-0.007,0.01l-0.007,0.01l-0.007,0.01l-0.008,0.01l-0.007,0.01l-0.007,0.009l-0.008,0.009l-0.007,0.009l-0.008,0.008l-0.007,0.009l-0.008,0.008l-0.007,0.008l-0.008,0.008l-0.008,0.007l-0.008,0.007l-0.007,0.007l-0.008,0.007l-0.008,0.007l-0.008,0.006l-0.008,0.007l-0.008,0.006l-0.008,0.005l-0.008,0.006l-0.008,0.005l-0.008,0.006l-0.008,0.005l-0.009,0.005l-0.008,0.004l-0.008,0.005l-0.008,0.004l-0.009,0.004l-0.008,0.004l-0.009,0.003l-0.008,0.004l-0.008,0.003l-0.009,0.003l-0.008,0.003l-0.009,0.003l-0.008,0.002l-0.009,0.002l-0.008,0.003l-0.009,0.001l-0.009,0.002l-0.008,0.002l-0.009,0.001l-0.008,0.001l-0.009,0.002l-0.009,0l-0.009,0.001l-0.008,0.001l-0.009,0l-0.009,0l-0.009,0l-0.008,0l-0.009,0l-0.009,-0.001l-0.009,0l-0.008,-0.001l-0.009,-0.001l-0.009,-0.001l-0.009,-0.002l-0.009,-0.001l-0.009,-0.002l-0.008,-0.001l-0.009,-0.002l-0.009,-0.002l-0.009,-0.003l-0.009,-0.002l-0.009,-0.003l-0.008,-0.002l-0.009,-0.003l-0.009,-0.003l-0.009,-0.003l-0.009,-0.003l-0.009,-0.004l-0.008,-0.003l-0.009,-0.004l-0.009,-0.004l-0.009,-0.004l-0.009,-0.004l-0.008,-0.004l-0.009,-0.005l-0.009,-0.004l-0.009,-0.005l-0.008,-0.005l-0.009,-0.005l-0.009,-0.005l-0.008,-0.005l-0.009,-0.005l-0.009,-0.006l-0.008,-0.005l-0.009,-0.006l-0.009,-0.006l-0.008,-0.006l-0.009,-0.006l-0.008,-0.006l-0.009,-0.006l-0.008,-0.006l-0.009,-0.007l-0.008,-0.007l-0.009,-0.006l-0.008,-0.007l-0.008,-0.007l-0.009,-0.007l-0.008,-0.007l-0.008,-0.008l-0.009,-0.007l-0.008,-0.008l-0.008,-0.007l-0.008,-0.008l-0.008,-0.008l-0.008,-0.008l-0.008,-0.008l-0.008,-0.008l-0.008,-0.008l-0.008,-0.008l-0.008,-0.009l-0.008,-0.008l-0.008,-0.009l-0.015,-0.017l-0.016,-0.018l-0.015,-0.018l-0.015,-0.018l-0.015,-0.019l-0.015,-0.019l-0.014,-0.02l-0.014,-0.019l-0.014,-0.02l-0.014,-0.02l-0.014,-0.021l-0.013,-0.021l-0.013,-0.021l-0.013,-0.021l-0.013,-0.022l-0.012,-0.021l-0.013,-0.022l-0.012,-0.022l-0.011,-0.023l-0.012,-0.022l-0.011,-0.023l-0.01,-0.023l-0.011,-0.023l-0.01,-0.023l-0.01,-0.023l-0.01,-0.024l-0.009,-0.023l-0.009,-0.024l-0.008,-0.024l-0.009,-0.023l-0.008,-0.024l-0.007,-0.024l-0.004,-0.012l-0.003,-0.012l-0.004,-0.012l-0.003,-0.012l-0.003,-0.013l-0.004,-0.012l-0.003,-0.012l-0.003,-0.012l-0.003,-0.012l-0.002,-0.012l-0.003,-0.012l-0.003,-0.012l-0.002,-0.012l-0.003,-0.012l-0.002,-0.012l-0.002,-0.013l-0.002,-0.012l-0.002,-0.012l-0.002,-0.012l-0.002,-0.012l-0.002,-0.012l-0.001,-0.012l-0.002,-0.012l-0.001,-0.012l-0.002,-0.012l-0.001,-0.012l-0.001,-0.012l-0.001,-0.012l-0.001,-0.012l0,-0.012l-0.001,-0.012l-0.001,-0.012l0,-0.012l0,-0.012l0,-0.012l0,-0.011l0,-0.012l0,-0.012l0,-0.012l0,-0.011l0,-0.019l0,-0.019l-0.001,-0.019l-0.001,-0.019l0,-0.02l-0.001,-0.02l-0.002,-0.021l-0.001,-0.02l-0.001,-0.021l-0.002,-0.022l-0.003,-0.043l-0.004,-0.044l-0.004,-0.045l-0.005,-0.046l-0.004,-0.047l-0.005,-0.048l-0.005,-0.048l-0.011,-0.099l-0.011,-0.101l-0.006,-0.051l-0.005,-0.052l-0.006,-0.052l-0.005,-0.052l-0.005,-0.052l-0.005,-0.053l-0.004,-0.052l-0.005,-0.053l-0.002,-0.026l-0.002,-0.027l-0.002,-0.026l-0.001,-0.026l-0.002,-0.027l-0.002,-0.026l-0.001,-0.026l-0.001,-0.026l-0.001,-0.027l-0.001,-0.026l-0.001,-0.026l-0.001,-0.025l-0.001,-0.026l0,-0.026l0,-0.026l-0.001,-0.025l0,-0.026l0.001,-0.025l0,-0.025l0.001,-0.025l0,-0.025l0.001,-0.025l0.001,-0.024l0.002,-0.025l0.001,-0.024l0.002,-0.024l0.002,-0.024l0.002,-0.024l0.003,-0.023l0.002,-0.024l0.003,-0.023l0.003,-0.023l0.004,-0.023l0.003,-0.022l0.004,-0.022l0.005,-0.022l0.004,-0.022l0.005,-0.021l0.005,-0.022l0.005,-0.021l0.006,-0.02l0.003,-0.011l0.003,-0.01l0.003,-0.01l0.003,-0.01l0.003,-0.01l0.003,-0.01l0.004,-0.009l0.003,-0.01l0.004,-0.01l0.003,-0.009l0.004,-0.01l0.004,-0.009l0.004,-0.009l0.003,-0.01l0.004,-0.009l0.005,-0.009l0.004,-0.009l0.004,-0.009l0.004,-0.009l0.005,-0.008l0.004,-0.009l0.005,-0.009l0.005,-0.008l0.004,-0.008l0.005,-0.009l0.005,-0.008l0.005,-0.008l0.006,-0.008l0.005,-0.008l0.005,-0.008l0.006,-0.007l0.005,-0.008l0.006,-0.007l0.005,-0.008l0.006,-0.007l0.006,-0.007l0.006,-0.007l0.006,-0.007l0.006,-0.007l0.007,-0.007l0.006,-0.007l0.007,-0.006l0.006,-0.007l0.007,-0.006l0.007,-0.006l0.007,-0.006l0.007,-0.006l0.007,-0.006l0.007,-0.006l0.007,-0.006l0.008,-0.005l0.007,-0.006l0.008,-0.005l0.008,-0.006l0.008,-0.005l0.008,-0.005l0.008,-0.004l0.008,-0.005l0.008,-0.005l0.009,-0.004l0.008,-0.005l0.009,-0.004l0.009,-0.004l0.009,-0.004l0.009,-0.004l0.009,-0.004l0.009,-0.003l0.009,-0.004l0.01,-0.003l0.009,-0.004l0.01,-0.003l0.01,-0.003l0.01,-0.002l0.01,-0.003l0.01,-0.003l0.01,-0.002l0.011,-0.002l0.01,-0.003l0.022,0.019Zm2.09,3.71l-0.002,0.006l0.003,-0.005l0.002,-0.007l-0.003,0.006Zm-7.255,-0.704l-0.004,0.038l-0.004,0.036l-0.003,0.034l-0.004,0.032l-0.004,0.031l-0.004,0.029l-0.004,0.027l-0.003,0.026l-0.004,0.025l-0.004,0.022l-0.004,0.022l-0.004,0.02l-0.004,0.018l-0.004,0.017l-0.003,0.016l-0.004,0.014l-0.002,0.007l-0.002,0.006l-0.002,0.006l-0.002,0.006l-0.002,0.005l-0.002,0.005l-0.002,0.005l-0.002,0.004l-0.002,0.004l-0.001,0.004l-0.002,0.003l-0.002,0.004l-0.002,0.002l-0.002,0.003l-0.002,0.002l-0.002,0.002l-0.002,0.002l-0.002,0.001l-0.001,0.001l-0.002,0.001l-0.002,0l-0.002,0.001l-0.002,0l-0.002,-0.001l-0.001,0l-0.002,-0.001l-0.002,-0.001l-0.002,-0.001l-0.002,-0.002l-0.002,-0.002l-0.001,-0.002l-0.002,-0.002l-0.002,-0.003l-0.002,-0.002l-0.001,-0.004l-0.002,-0.003l-0.002,-0.003l-0.002,-0.004l-0.001,-0.004l-0.002,-0.004l-0.003,-0.009l-0.004,-0.01l-0.003,-0.011l-0.003,-0.011l-0.003,-0.012l-0.004,-0.013l-0.003,-0.014l-0.003,-0.014l-0.003,-0.015l-0.003,-0.016l-0.003,-0.016l-0.002,-0.017l-0.003,-0.018l-0.003,-0.018l-0.003,-0.018l-0.002,-0.019l-0.003,-0.02l-0.002,-0.02l-0.003,-0.02l-0.002,-0.021l-0.002,-0.021l-0.002,-0.022l-0.002,-0.022l-0.002,-0.022l-0.002,-0.023l-0.002,-0.02l0.028,0.003l0.091,0.001l0.086,-0.009l0,0.005Zm-0.126,-0.959l0.003,0l0.003,0.001l0.003,0l0.003,0.002l0.003,0.001l0.003,0.002l0.003,0.002l0.003,0.002l0.003,0.002l0.003,0.003l0.003,0.003l0.004,0.004l0.003,0.004l0.004,0.004l0.003,0.004l0.003,0.005l0.004,0.005l0.004,0.005l0.003,0.006l0.004,0.006l0.004,0.006l0.003,0.007l0.005,0.027l0.005,0.028l0.005,0.027l0.004,0.028l0.004,0.027l0.003,0.028l0.004,0.027l0.003,0.028l0.003,0.027l0.003,0.028l0.003,0.028l0.002,0.027l0.003,0.028l0.002,0.028l0.001,0.021l-0.022,-0.003l-0.138,-0.001l-0.057,0.007l0,-0.002l0,-0.023l0.001,-0.023l0,-0.022l0.001,-0.022l0.001,-0.021l0.001,-0.022l0.001,-0.02l0.001,-0.021l0.001,-0.02l0.002,-0.019l0.001,-0.019l0.002,-0.019l0.002,-0.018l0.002,-0.017l0.002,-0.017l0.003,-0.017l0.002,-0.015l0.003,-0.015l0.003,-0.015l0.003,-0.013l0.003,-0.013l0.003,-0.012l0.002,-0.006l0.001,-0.006l0.002,-0.005l0.002,-0.005l0.002,-0.005l0.002,-0.005l0.002,-0.005l0.001,-0.004l0.002,-0.004l0.003,-0.004l0.002,-0.004l0.002,-0.003l0.002,-0.003l0.002,-0.003l0.002,-0.003l0.003,-0.003l0.002,-0.002l0.002,-0.002l0.003,-0.002l0.002,-0.001l0.003,-0.002l0.002,-0.001l0.003,0l0.003,-0.001l0.002,0l0.003,0Zm5.107,-8.334l0.002,0.021l-0.001,0.014l-0.002,0.023l-0.001,0.022l-0.003,0.022l0.008,-0.072l-0.001,-0.009l0,-0.002l-0.005,-0.053l0.003,0.034Z"/><path id="svg_7" d="M62.724,48.685c1.111,0 2.012,-0.901 2.012,-2.012c0,-1.112 -0.901,-2.013 -2.012,-2.013c-1.112,0 -2.014,0.901 -2.014,2.013c0,1.111 0.902,2.012 2.014,2.012Zm5.643,8.678l-1.805,-6.697c-0.017,-0.061 -0.041,-0.119 -0.07,-0.172c-0.205,-0.628 -0.794,-1.082 -1.49,-1.082l-4.57,0c-0.725,0 -1.334,0.493 -1.514,1.163c-0.012,0.029 -0.022,0.06 -0.031,0.092l-1.773,6.697c-0.119,0.439 0.142,0.89 0.582,1.008c0.439,0.118 0.89,-0.143 1.008,-0.582l1.393,-5.261l0.58,0l-2.528,9.519l2.382,0l0,6.571c0,0.506 0.41,0.915 0.916,0.915c0.505,0 0.915,-0.409 0.915,-0.915l0,-6.571l0.727,0l0,6.571c0,0.506 0.41,0.915 0.916,0.915c0.505,0 0.915,-0.409 0.915,-0.915l0,-6.571l2.381,0l-2.537,-9.519l0.595,0l1.419,5.261c0.118,0.439 0.569,0.7 1.008,0.582c0.438,-0.118 0.699,-0.57 0.581,-1.009l0,0l0,0Z" style="fill:#87e878;fill-rule:nonzero;stroke:#000;stroke-width:0.54px;stroke-linecap:butt;stroke-linejoin:miter;stroke-miterlimit:4;"/><path id="svg_1" d="M20.771,43.67c0,-1.489 -1.452,0.332 0.029,0.332c1.48,0 -0.029,-1.821 -0.029,-0.332c0,1.488 1.48,0 0,0c-1.481,0 0,1.488 0,0Zm6.333,5.788l0,-1.361c0,-1.431 -1.153,-2.592 -2.578,-2.592l-7.511,0c-1.424,0 -2.579,1.161 -2.579,2.592l0,1.361c-0.002,0.031 -0.004,0.063 -0.004,0.095l0,7.837c0,0.609 0.491,1.102 1.096,1.102c0.605,0 1.097,-0.493 1.097,-1.102l0,-7.721l0.735,0l0,8.824l0.006,0l0,12.469c0,0.81 0.654,1.469 1.461,1.469c0.808,0 1.462,-0.658 1.462,-1.469l0,-12.469l0.964,0l0,12.469c0,0.81 0.655,1.469 1.462,1.469c0.807,0 1.462,-0.658 1.462,-1.469l0,-12.469l0.004,0l0,-8.824l0.735,0l0,7.721c0,0.609 0.492,1.102 1.097,1.102c0.606,0 1.097,-0.493 1.097,-1.102l0,-7.838c-0.001,-0.032 -0.003,-0.063 -0.006,-0.094l0,0l0,0Z" style="fill:#ff8767;fill-rule:nonzero;stroke:#000;stroke-width:0.67px;stroke-linecap:butt;stroke-linejoin:miter;stroke-miterlimit:4;"/><path id="svg_2" d="M19.904,34.797c-0.193,0.695 -0.529,1.338 -0.646,2.065c-0.037,0.426 -0.284,0.623 -0.578,0.574c-0.378,0.389 -0.115,1.122 0.22,1.346c0.323,0.374 0.828,0.075 1.151,0.416c0.415,0.562 0.495,1.468 0.222,2.216c-0.253,0.613 0.626,0.498 0.378,-0.054c-0.178,-0.531 0.51,-0.269 0.263,0.178c-0.087,0.374 0.143,0.531 -0.017,0.882c0.257,0.255 -0.07,0.333 -0.251,0.35c-0.445,0.211 0.14,-0.469 -0.153,-0.734c-0.308,0.043 -0.197,0.723 -0.288,0.634c-0.18,-0.245 -0.069,-1.05 -0.493,-0.573c-0.027,-0.663 0.279,-1.308 0.204,-1.974c0.133,-0.472 -0.422,-0.717 -0.426,-0.15c-0.088,0.855 -0.402,1.677 -0.405,2.539c0.083,0.544 0.486,0.839 0.703,1.28c0.181,0.341 0.426,0.713 0.788,0.664c0.399,0.032 0.802,0.038 1.185,0.175c0.492,0.089 0.942,-0.373 1.401,-0.579c0.568,-0.45 0.618,-1.387 0.67,-2.131c0.002,-0.464 0.198,-0.901 0.235,-1.356c-0.278,-0.625 -0.712,0.347 -0.67,0.796c-0.075,0.547 -0.093,1.263 -0.539,1.564c-0.326,-0.056 -0.66,0.058 -0.979,-0.07c-0.297,0.172 -0.731,0.107 -0.751,-0.403c0.026,-0.447 0.242,-0.889 0.092,-1.331c0.154,0.232 0.524,-0.109 0.284,0.329c-0.268,0.346 0.051,0.98 0.277,0.446c0.102,-0.365 -0.096,-0.896 0.329,-0.756c0.071,0.143 -0.448,1.008 0.121,0.85c0.397,-0.058 0.055,-0.908 0.574,-0.839c0.304,-0.353 0.337,-1.09 0.761,-1.331c0.48,-0.321 1.11,0.046 1.504,-0.556c0.306,-0.294 0.309,-1.224 -0.181,-0.983c-0.571,-0.005 0.021,-1.013 0.061,-1.416c0.18,-0.331 -0.011,-1.106 0.1,-1.17c0.138,0.409 0.145,0.866 0.042,1.307c-0.056,0.379 -0.32,1.389 0.169,0.811c0.196,-0.422 0.226,-0.928 0.386,-1.374c0.323,-0.965 0.126,-2.003 -0.131,-2.895c-0.255,-0.495 -0.608,-0.911 -0.938,-1.318c-0.593,-0.402 -1.288,-0.556 -1.971,-0.569c-0.613,0.053 -1.261,0.109 -1.808,0.576c-0.511,0.294 -1.018,0.707 -1.295,1.368c-0.236,0.531 -0.592,1.056 -0.55,1.688c0.05,0.528 -0.087,1.051 -0.14,1.577c0.124,0.627 0.444,-0.251 0.466,-0.552c0.089,-0.566 0.386,-1.036 0.624,-1.517l0,0l0,0Zm3.622,1.739c0.418,0.099 0.913,0.483 0.835,1.132c-0.025,0.658 -0.511,1.232 -1.014,1.098c-0.458,-0.114 -0.683,-0.683 -0.57,-1.272c-0.097,-0.446 0.208,-0.868 0.546,-0.921c0.067,-0.019 0.135,-0.031 0.203,-0.037l0,0Zm-2.871,-0.339c0.508,-0.047 1.012,0.431 0.915,1.147c-0.049,0.698 -0.627,0.757 -1.032,0.877c-0.295,0.188 -0.54,-0.059 -0.729,-0.314c-0.23,-0.431 -0.038,-1.208 0.312,-1.523c0.165,-0.122 0.353,-0.153 0.534,-0.187l0,0Zm1.432,2.057c0.179,0.463 0.375,1.159 -0.001,1.604c-0.313,0.251 -0.251,-0.452 -0.584,-0.163c-0.226,-0.347 0.109,-0.943 0.342,-1.232c0.074,-0.082 0.157,-0.152 0.243,-0.209Z" style="fill:#ff8767;fill-rule:nonzero;stroke:#000;stroke-width:0.53px;stroke-linecap:butt;stroke-linejoin:miter;stroke-miterlimit:4;"/></svg>