<?xml version="1.0" encoding="UTF-8" standalone="no"?><!DOCTYPE svg PUBLIC "-//W3C//DTD SVG 1.1//EN" "http://www.w3.org/Graphics/SVG/1.1/DTD/svg11.dtd"><svg width="100%" height="100%" viewBox="0 0 127 98" version="1.1" xmlns="http://www.w3.org/2000/svg" xmlns:xlink="http://www.w3.org/1999/xlink" xml:space="preserve" xmlns:serif="http://www.serif.com/" style="fill-rule:evenodd;clip-rule:evenodd;stroke-linecap:round;stroke-linejoin:round;stroke-miterlimit:1.5;"><path d="M124.204,11.374c0,-5.458 -4.431,-9.888 -9.889,-9.888l-101.91,0c-5.458,0 -9.889,4.43 -9.889,9.888l0,75.172c0,5.458 4.431,9.888 9.889,9.888l101.91,0c5.458,0 9.889,-4.43 9.889,-9.888l0,-75.172Z" style="fill:#e5f6e3;stroke:#000;stroke-width:1px;"/><clipPath id="_clip1"><rect id="icons8-calendar--1-" serif:id="icons8-calendar (1)" x="91.679" y="37.642" width="11.095" height="11.318"/></clipPath><g clip-path="url(#_clip1)"><path d="M94.868,38.633l0,1.132c0,0.078 0.062,0.141 0.139,0.141l0.277,0c0.077,0 0.139,-0.063 0.139,-0.141l0,-1.132c0,-0.078 -0.062,-0.142 -0.139,-0.142l-0.277,0c-0.077,0 -0.139,0.064 -0.139,0.142Z" style="fill:none;stroke:#000;stroke-width:0.28px;stroke-linecap:butt;stroke-linejoin:miter;stroke-miterlimit:10;"/><path id="Blue_5_" d="M94.868,39.199l-1.109,0c-0.306,0 -0.555,0.253 -0.555,0.566l0,7.073c0,0.312 0.249,0.566 0.555,0.566l6.934,0c0.306,0 0.555,-0.254 0.555,-0.566l0,-7.073c0,-0.313 -0.249,-0.566 -0.555,-0.566l-1.109,0" style="fill:none;stroke:#000;stroke-width:0.28px;stroke-linecap:butt;stroke-linejoin:miter;stroke-miterlimit:10;"/><path id="Blue_2_" d="M99.029,39.199l-3.606,0" style="fill:none;stroke:#000;stroke-width:0.28px;stroke-linecap:butt;stroke-linejoin:miter;stroke-miterlimit:10;"/><ellipse cx="98.335" cy="43.443" rx="0.139" ry="0.141"/><ellipse cx="97.781" cy="43.443" rx="0.139" ry="0.141"/><ellipse cx="97.226" cy="43.443" rx="0.139" ry="0.141"/><ellipse cx="96.671" cy="43.443" rx="0.139" ry="0.141"/><ellipse cx="96.117" cy="43.443" rx="0.139" ry="0.141"/><ellipse cx="95.562" cy="43.443" rx="0.139" ry="0.141"/><ellipse cx="98.89" cy="43.443" rx="0.139" ry="0.141"/><ellipse cx="98.335" cy="44.574" rx="0.139" ry="0.141"/><ellipse cx="97.781" cy="44.574" rx="0.139" ry="0.141"/><ellipse cx="97.226" cy="44.574" rx="0.139" ry="0.141"/><ellipse cx="96.671" cy="44.574" rx="0.139" ry="0.141"/><ellipse cx="96.117" cy="44.009" rx="0.139" ry="0.141"/><ellipse cx="96.117" cy="42.877" rx="0.139" ry="0.141"/><ellipse cx="96.117" cy="45.14" rx="0.139" ry="0.141"/><ellipse cx="95.007" cy="44.009" rx="0.139" ry="0.141"/><ellipse cx="95.007" cy="42.877" rx="0.139" ry="0.141"/><ellipse cx="95.007" cy="45.14" rx="0.139" ry="0.141"/><ellipse cx="97.226" cy="44.009" rx="0.139" ry="0.141"/><ellipse cx="97.226" cy="42.877" rx="0.139" ry="0.141"/><ellipse cx="97.226" cy="45.14" rx="0.139" ry="0.141"/><ellipse cx="98.335" cy="44.009" rx="0.139" ry="0.141"/><ellipse cx="98.335" cy="42.877" rx="0.139" ry="0.141"/><ellipse cx="98.335" cy="45.14" rx="0.139" ry="0.141"/><ellipse cx="99.445" cy="44.009" rx="0.139" ry="0.141"/><ellipse cx="99.445" cy="42.877" rx="0.139" ry="0.141"/><ellipse cx="99.445" cy="45.14" rx="0.139" ry="0.141"/><ellipse cx="96.117" cy="44.574" rx="0.139" ry="0.141"/><ellipse cx="95.562" cy="44.574" rx="0.139" ry="0.141"/><ellipse cx="95.007" cy="43.443" rx="0.139" ry="0.141"/><ellipse cx="95.007" cy="44.574" rx="0.139" ry="0.141"/><ellipse cx="99.445" cy="43.443" rx="0.139" ry="0.141"/><ellipse cx="99.445" cy="44.574" rx="0.139" ry="0.141"/><ellipse cx="98.89" cy="44.574" rx="0.139" ry="0.141"/><ellipse cx="98.335" cy="45.706" rx="0.139" ry="0.141"/><ellipse cx="97.781" cy="45.706" rx="0.139" ry="0.141"/><ellipse cx="97.226" cy="45.706" rx="0.139" ry="0.141"/><ellipse cx="96.671" cy="45.706" rx="0.139" ry="0.141"/><ellipse cx="96.117" cy="45.706" rx="0.139" ry="0.141"/><ellipse cx="95.562" cy="45.706" rx="0.139" ry="0.141"/><ellipse cx="95.007" cy="45.706" rx="0.139" ry="0.141"/><ellipse cx="99.445" cy="45.706" rx="0.139" ry="0.141"/><ellipse cx="98.89" cy="45.706" rx="0.139" ry="0.141"/><ellipse cx="98.335" cy="42.311" rx="0.139" ry="0.141"/><ellipse cx="97.781" cy="42.311" rx="0.139" ry="0.141"/><ellipse cx="97.226" cy="42.311" rx="0.139" ry="0.141"/><ellipse cx="96.671" cy="42.311" rx="0.139" ry="0.141"/><ellipse cx="96.117" cy="42.311" rx="0.139" ry="0.141"/><ellipse cx="95.562" cy="42.311" rx="0.139" ry="0.141"/><ellipse cx="95.007" cy="42.311" rx="0.139" ry="0.141"/><ellipse cx="99.445" cy="42.311" rx="0.139" ry="0.141"/><ellipse cx="98.89" cy="42.311" rx="0.139" ry="0.141"/><path d="M99.029,38.633l0,1.132c0,0.078 0.062,0.141 0.139,0.141l0.277,0c0.077,0 0.139,-0.063 0.139,-0.141l0,-1.132c0,-0.078 -0.062,-0.142 -0.139,-0.142l-0.277,0c-0.077,0 -0.139,0.064 -0.139,0.142Z" style="fill:none;stroke:#000;stroke-width:0.28px;stroke-linecap:butt;stroke-linejoin:miter;stroke-miterlimit:10;"/><path d="M101.248,40.896l-8.044,0" style="fill:none;stroke:#000;stroke-width:0.28px;stroke-linecap:butt;stroke-linejoin:miter;stroke-miterlimit:10;"/></g><clipPath id="_clip2"><rect id="icons8-calendar--1-1" serif:id="icons8-calendar (1)" x="17.855" y="9.613" width="45.505" height="46.418"/></clipPath><g clip-path="url(#_clip2)"><path d="M30.938,13.674l0,4.642c0,0.321 0.254,0.581 0.568,0.581l1.138,0c0.314,0 0.569,-0.26 0.569,-0.581l0,-4.642c0,-0.32 -0.255,-0.58 -0.569,-0.58l-1.138,0c-0.314,0 -0.568,0.26 -0.568,0.58Z" style="fill:none;stroke:#000;stroke-width:1.15px;stroke-linecap:butt;stroke-linejoin:miter;stroke-miterlimit:10;"/><path id="Blue_5_1" serif:id="Blue_5_" d="M30.938,15.995l-4.551,0c-1.256,0 -2.275,1.04 -2.275,2.321l0,29.012c0,1.282 1.019,2.321 2.275,2.321l28.441,0c1.256,0 2.275,-1.039 2.275,-2.321l0,-29.012c0,-1.281 -1.019,-2.321 -2.275,-2.321l-4.551,0" style="fill:none;stroke:#000;stroke-width:1.15px;stroke-linecap:butt;stroke-linejoin:miter;stroke-miterlimit:10;"/><path id="Blue_2_1" serif:id="Blue_2_" d="M48.002,15.995l-14.789,0" style="fill:none;stroke:#000;stroke-width:1.15px;stroke-linecap:butt;stroke-linejoin:miter;stroke-miterlimit:10;"/><ellipse cx="45.158" cy="33.402" rx="0.569" ry="0.58"/><ellipse cx="42.883" cy="33.402" rx="0.569" ry="0.58"/><ellipse cx="40.607" cy="33.402" rx="0.569" ry="0.58"/><ellipse cx="38.332" cy="33.402" rx="0.569" ry="0.58"/><ellipse cx="36.057" cy="33.402" rx="0.569" ry="0.58"/><ellipse cx="33.782" cy="33.402" rx="0.569" ry="0.58"/><ellipse cx="47.433" cy="33.402" rx="0.569" ry="0.58"/><ellipse cx="45.158" cy="38.044" rx="0.569" ry="0.58"/><ellipse cx="42.883" cy="38.044" rx="0.569" ry="0.58"/><ellipse cx="40.607" cy="38.044" rx="0.569" ry="0.58"/><ellipse cx="38.332" cy="38.044" rx="0.569" ry="0.58"/><ellipse cx="36.057" cy="35.723" rx="0.569" ry="0.58"/><ellipse cx="36.057" cy="31.081" rx="0.569" ry="0.58"/><ellipse cx="36.057" cy="40.365" rx="0.569" ry="0.58"/><ellipse cx="31.506" cy="35.723" rx="0.569" ry="0.58"/><ellipse cx="31.506" cy="31.081" rx="0.569" ry="0.58"/><ellipse cx="31.506" cy="40.365" rx="0.569" ry="0.58"/><ellipse cx="40.607" cy="35.723" rx="0.569" ry="0.58"/><ellipse cx="40.607" cy="31.081" rx="0.569" ry="0.58"/><ellipse cx="40.607" cy="40.365" rx="0.569" ry="0.58"/><ellipse cx="45.158" cy="35.723" rx="0.569" ry="0.58"/><ellipse cx="45.158" cy="31.081" rx="0.569" ry="0.58"/><ellipse cx="45.158" cy="40.365" rx="0.569" ry="0.58"/><ellipse cx="49.708" cy="35.723" rx="0.569" ry="0.58"/><ellipse cx="49.708" cy="31.081" rx="0.569" ry="0.58"/><ellipse cx="49.708" cy="40.365" rx="0.569" ry="0.58"/><ellipse cx="36.057" cy="38.044" rx="0.569" ry="0.58"/><ellipse cx="33.782" cy="38.044" rx="0.569" ry="0.58"/><ellipse cx="31.506" cy="33.402" rx="0.569" ry="0.58"/><ellipse cx="31.506" cy="38.044" rx="0.569" ry="0.58"/><ellipse cx="49.708" cy="33.402" rx="0.569" ry="0.58"/><ellipse cx="49.708" cy="38.044" rx="0.569" ry="0.58"/><ellipse cx="47.433" cy="38.044" rx="0.569" ry="0.58"/><ellipse cx="45.158" cy="42.686" rx="0.569" ry="0.58"/><ellipse cx="42.883" cy="42.686" rx="0.569" ry="0.58"/><ellipse cx="40.607" cy="42.686" rx="0.569" ry="0.58"/><ellipse cx="38.332" cy="42.686" rx="0.569" ry="0.58"/><ellipse cx="36.057" cy="42.686" rx="0.569" ry="0.58"/><ellipse cx="33.782" cy="42.686" rx="0.569" ry="0.58"/><ellipse cx="31.506" cy="42.686" rx="0.569" ry="0.58"/><ellipse cx="49.708" cy="42.686" rx="0.569" ry="0.58"/><ellipse cx="47.433" cy="42.686" rx="0.569" ry="0.58"/><ellipse cx="45.158" cy="28.76" rx="0.569" ry="0.58"/><ellipse cx="42.883" cy="28.76" rx="0.569" ry="0.58"/><ellipse cx="40.607" cy="28.76" rx="0.569" ry="0.58"/><ellipse cx="38.332" cy="28.76" rx="0.569" ry="0.58"/><ellipse cx="36.057" cy="28.76" rx="0.569" ry="0.58"/><ellipse cx="33.782" cy="28.76" rx="0.569" ry="0.58"/><ellipse cx="31.506" cy="28.76" rx="0.569" ry="0.58"/><ellipse cx="49.708" cy="28.76" rx="0.569" ry="0.58"/><ellipse cx="47.433" cy="28.76" rx="0.569" ry="0.58"/><path d="M48.002,13.674l0,4.642c0,0.321 0.255,0.581 0.569,0.581l1.137,0c0.314,0 0.569,-0.26 0.569,-0.581l0,-4.642c0,-0.32 -0.255,-0.58 -0.569,-0.58l-1.137,0c-0.314,0 -0.569,0.26 -0.569,0.58Z" style="fill:none;stroke:#000;stroke-width:1.15px;stroke-linecap:butt;stroke-linejoin:miter;stroke-miterlimit:10;"/><path d="M57.103,22.958l-32.991,0" style="fill:none;stroke:#000;stroke-width:1.15px;stroke-linecap:butt;stroke-linejoin:miter;stroke-miterlimit:10;"/></g><path id="svg_1" d="M93.504,58.265c-0.424,-0.043 -0.01,-0.705 -0.17,-1.011c-0.002,-0.451 -0.169,-0.895 -0.115,-1.344c0.334,-0.791 0.056,-1.654 -0.017,-2.469c-0.033,-0.18 -0.032,-0.642 -0.114,-0.231c-0.227,0.692 -0.005,1.548 -0.2,2.25c-0.325,0.39 -0.57,-0.229 -0.26,-0.467c0.362,-0.57 0.275,-1.339 0.287,-2.05c-0.016,-0.45 0.165,-1.015 0.699,-1.027c0.457,-0.035 0.889,0.183 1.35,0.156c1.344,0.021 2.701,0.032 4.028,-0.212c0.663,-0.153 1.322,0.116 1.986,0.007c0.372,0.04 0.57,-0.134 0.405,-0.461c0.278,-0.192 0.492,0.363 0.615,-0.131c0.447,-0.308 0.51,0.602 1.005,0.345c0.597,0.077 -0.26,0.611 0.24,0.879c0.303,0.233 0.766,0.811 0.164,0.978c-0.517,-0.037 -1.035,-0.003 -1.553,0.022c-0.239,0.4 -0.738,0.701 -0.683,1.225c-0.042,0.625 -0.48,1.241 -1.079,1.436c-0.256,-0.051 -0.368,0.032 -0.336,0.294c-0.133,0.343 -0.156,0.705 -0.14,1.07c-0.039,0.201 0.044,0.357 0.162,0.512c-0.139,0.242 -0.937,0.099 -0.635,-0.358c0.078,-0.599 -0.013,-1.2 -0.081,-1.795c-0.318,-0.227 -0.704,-0.144 -1.026,0.038c-0.71,0.26 -1.532,0.507 -2.26,0.173c-0.406,-0.114 -1.018,-0.198 -1.32,0.145c-0.136,0.516 -0.1,1.071 -0.215,1.595c-0.002,0.274 0.258,0.509 -0.183,0.433c-0.185,0.004 -0.37,0.01 -0.554,-0.002l0,0l0,0Zm0.376,-0.584c0.073,-0.245 -0.104,-0.869 -0.12,-0.287c-0.06,0.184 0.017,1.071 0.107,0.482c0.006,-0.064 0.01,-0.13 0.013,-0.195Z" style="fill:#ff8767;fill-rule:nonzero;stroke:#000;stroke-width:0.27px;stroke-linecap:butt;stroke-linejoin:miter;stroke-miterlimit:4;"/><g><g><path d="M32.185,60.716c1.029,-0.549 1.849,-1.485 2.342,-2.534c0.427,-0.909 0.642,-1.91 0.612,-2.915c-0.008,-0.284 -0.23,-0.521 -0.52,-0.521c-0.078,0 -0.154,0.019 -0.222,0.051c-0.025,0.005 -0.049,0.011 -0.073,0.02c-0.698,0.256 -1.412,0.464 -2.089,0.775c-0.673,0.31 -1.272,0.752 -1.841,1.221c-0.805,0.663 -1.522,1.459 -2.027,2.373c-0.339,-0.637 -0.744,-1.24 -1.216,-1.797c-0.618,-0.729 -1.385,-1.35 -2.213,-1.824c-0.493,-0.282 -1.136,-0.119 -1.425,0.374c-0.285,0.486 -0.118,1.143 0.374,1.425c0.263,0.15 0.516,0.316 0.759,0.496c0.44,0.353 0.837,0.754 1.19,1.194c0.402,0.54 0.736,1.126 1.008,1.741c0.233,0.575 0.413,1.169 0.546,1.773c0.461,0.211 0.868,0.461 1.216,0.75c0.274,-0.227 0.585,-0.43 0.929,-0.609c-0.081,-0.489 -0.19,-0.973 -0.328,-1.446c1.023,0.118 2.053,-0.054 2.978,-0.547Zm-2.9,-0.484c-0.009,-0.001 -0.017,-0.003 -0.026,-0.004c-0.05,-0.007 -0.1,-0.016 -0.149,-0.025c-0.027,-0.005 -0.054,-0.01 -0.081,-0.016c0.003,-0.005 0.005,-0.011 0.007,-0.015c0.027,-0.063 0.056,-0.126 0.086,-0.188c0.148,-0.309 0.327,-0.603 0.524,-0.884c0.039,-0.055 0.08,-0.11 0.121,-0.165c0.011,-0.015 0.04,-0.052 0.047,-0.061c0.025,-0.032 0.052,-0.064 0.078,-0.096c0.114,-0.14 0.234,-0.275 0.358,-0.406c0.237,-0.253 0.49,-0.491 0.753,-0.716c0.117,-0.1 0.236,-0.197 0.357,-0.292c0.017,-0.013 0.044,-0.034 0.051,-0.039c0.033,-0.025 0.066,-0.049 0.098,-0.073c0.076,-0.057 0.153,-0.111 0.23,-0.166c0.3,-0.211 0.612,-0.397 0.943,-0.557c0.077,-0.038 0.155,-0.073 0.234,-0.107c0.005,-0.002 0.009,-0.004 0.013,-0.006c0.004,-0.002 0.01,-0.004 0.017,-0.007c0.038,-0.016 0.077,-0.031 0.115,-0.046c0.166,-0.066 0.334,-0.125 0.502,-0.184c0.17,-0.058 0.341,-0.116 0.511,-0.173c-0.004,0.045 -0.009,0.091 -0.014,0.136c0,0.005 -0.001,0.012 -0.002,0.019c-0.004,0.028 -0.009,0.056 -0.013,0.084c-0.011,0.069 -0.023,0.137 -0.037,0.205c-0.028,0.146 -0.063,0.292 -0.103,0.436c-0.036,0.132 -0.078,0.262 -0.124,0.391c-0.023,0.065 -0.047,0.128 -0.072,0.192c-0.004,0.011 -0.009,0.022 -0.013,0.033c-0.005,0.011 -0.032,0.074 -0.04,0.092c-0.115,0.256 -0.251,0.502 -0.402,0.738c-0.062,0.096 -0.128,0.189 -0.195,0.281c0.001,-0.004 -0.079,0.1 -0.098,0.122c-0.049,0.06 -0.1,0.118 -0.152,0.175c-0.17,0.188 -0.356,0.362 -0.554,0.521c-0.001,0 -0.1,0.076 -0.124,0.093c-0.053,0.038 -0.107,0.074 -0.162,0.11c-0.119,0.077 -0.242,0.147 -0.368,0.213c-0.058,0.031 -0.117,0.059 -0.176,0.087c-0.027,0.012 -0.054,0.024 -0.081,0.036c-0.002,0.001 -0.004,0.002 -0.007,0.003c-0.133,0.054 -0.269,0.099 -0.407,0.14c-0.172,0.051 -0.349,0.088 -0.526,0.117c-0.012,0.002 -0.024,0.004 -0.035,0.006c-0.045,0.005 -0.089,0.009 -0.134,0.013c-0.105,0.01 -0.21,0.014 -0.315,0.016c-0.205,0.004 -0.41,-0.008 -0.614,-0.031c-0.009,-0.001 -0.016,-0.001 -0.021,-0.002Z" style="fill:#87e878;fill-rule:nonzero;stroke:#9d9994;stroke-width:0.73px;stroke-linecap:butt;stroke-miterlimit:1.41421;"/><path d="M27.555,63.271c-1.096,-0.645 -2.524,-0.898 -3.694,-0.898c-0.001,0 -0.003,0 -0.004,0c-3.89,0 -5.77,1.696 -5.995,6.23c-0.188,4.54 3.563,9.997 9.206,9.997c0.004,0 0.009,0 0.013,0c0.536,0 1.095,-0.442 1.523,-0.781c0.443,0.339 0.989,0.781 1.525,0.781c0.004,0 0.009,0 0.013,0c5.644,0 9.395,-5.456 9.207,-9.997c-0.225,-4.534 -2.106,-6.23 -5.996,-6.23c-0.001,0 -0.003,0 -0.004,0c-1.174,0 -2.604,0.254 -3.704,0.905c0,-0.001 0,-0.002 0,-0.004c-0.4,0.237 -0.756,0.526 -1.041,0.873c-0.285,-0.351 -0.645,-0.642 -1.049,-0.88" style="fill:#87e878;fill-rule:nonzero;stroke:#9d9994;stroke-width:0.73px;stroke-linecap:butt;stroke-miterlimit:1.41421;"/></g><path id="svg_11" serif:id="svg_1" d="M40.81,83.547c1.22,-3.995 2.89,-7.378 4.474,-9.064c1.697,-1.806 0.944,-2.589 -0.807,-0.839c-0.736,0.737 -0.947,0.202 -0.947,-2.406c0,-6.223 3.226,-10.074 10.988,-13.115c6.567,-2.574 11.409,-5.468 13.416,-8.02l1.636,-2.08l0,3.618c0,4.475 -1.388,11.234 -2.925,14.242c-1.63,3.191 -7.217,9.081 -9.958,10.499c-2.457,1.27 -7.702,1.644 -10.506,0.748c-1.397,-0.446 -1.841,-0.105 -2.564,1.972c-0.482,1.381 -0.876,3.345 -0.876,4.366c0,1.158 -0.464,1.854 -1.236,1.854c-0.918,0 -1.097,-0.458 -0.695,-1.775l0,0l0,0Z" style="fill:#87e878;fill-rule:nonzero;stroke:#9d9994;stroke-width:0.97px;stroke-linecap:butt;stroke-linejoin:miter;stroke-miterlimit:4;"/></g></svg>